G04 (created by PCBNEW (2013-07-07 BZR 4022)-stable) date 4/8/2015 5:18:20 PM*
%MOIN*%
G04 Gerber Fmt 3.4, Leading zero omitted, Abs format*
%FSLAX34Y34*%
G01*
G70*
G90*
G04 APERTURE LIST*
%ADD10C,0.00590551*%
%ADD11R,0.069X0.069*%
%ADD12O,0.069X0.069*%
%ADD13R,0.059X0.059*%
%ADD14O,0.059X0.059*%
%ADD15R,0.06X0.06*%
%ADD16C,0.06*%
%ADD17C,0.059*%
%ADD18C,0.16*%
%ADD19C,0.23622*%
%ADD20C,0.069*%
%ADD21C,0.01*%
G04 APERTURE END LIST*
G54D10*
G54D11*
X62250Y-55000D03*
G54D12*
X61250Y-55000D03*
X60250Y-55000D03*
G54D13*
X62000Y-53000D03*
G54D14*
X63000Y-53000D03*
G54D11*
X60250Y-59750D03*
G54D12*
X61250Y-59750D03*
X62250Y-59750D03*
G54D14*
X50750Y-64250D03*
X50750Y-60250D03*
X51750Y-60250D03*
X51750Y-64250D03*
G54D15*
X50750Y-53250D03*
G54D16*
X49750Y-53250D03*
X48750Y-53250D03*
G54D17*
X62750Y-49757D03*
X63438Y-50250D03*
X62061Y-50250D03*
X62750Y-50742D03*
X57000Y-66750D03*
X57000Y-64750D03*
X56250Y-51750D03*
X56250Y-49750D03*
X51250Y-59250D03*
X49250Y-59250D03*
G54D13*
X55750Y-64250D03*
G54D14*
X54750Y-64250D03*
X53750Y-64250D03*
X52750Y-64250D03*
X52750Y-67250D03*
X53750Y-67250D03*
X55750Y-67250D03*
X54750Y-67250D03*
G54D13*
X51750Y-58000D03*
G54D14*
X51750Y-57000D03*
X51750Y-56000D03*
X51750Y-55000D03*
X48750Y-55000D03*
X48750Y-56000D03*
X48750Y-58000D03*
X48750Y-57000D03*
G54D13*
X55000Y-49250D03*
G54D14*
X54000Y-49250D03*
X53000Y-49250D03*
X52000Y-49250D03*
X52000Y-52250D03*
X53000Y-52250D03*
X55000Y-52250D03*
X54000Y-52250D03*
G54D18*
X66250Y-58250D03*
X56250Y-58250D03*
G54D19*
X49250Y-49750D03*
X49250Y-66750D03*
X66250Y-49750D03*
X66250Y-66750D03*
G54D17*
X63250Y-61250D03*
X63250Y-63250D03*
X62250Y-61250D03*
X62250Y-63250D03*
G54D13*
X59250Y-66500D03*
G54D14*
X58250Y-66500D03*
X59000Y-65000D03*
X59000Y-61000D03*
G54D13*
X60000Y-64000D03*
G54D14*
X60000Y-61000D03*
G54D13*
X59750Y-57250D03*
G54D14*
X62750Y-57250D03*
X49750Y-60250D03*
X49750Y-64250D03*
G54D15*
X48500Y-61750D03*
G54D16*
X48500Y-62750D03*
G54D17*
X51500Y-67250D03*
X51500Y-65250D03*
G54D11*
X61000Y-66500D03*
G54D20*
X63000Y-66500D03*
X62000Y-66500D03*
G54D11*
X60000Y-50000D03*
G54D20*
X58000Y-50000D03*
X59000Y-50000D03*
G54D10*
G36*
X67200Y-65676D02*
X67061Y-65537D01*
X66535Y-65319D01*
X65966Y-65318D01*
X65440Y-65536D01*
X65037Y-65938D01*
X64819Y-66464D01*
X64818Y-67033D01*
X65036Y-67559D01*
X65176Y-67700D01*
X63984Y-67700D01*
X63984Y-50142D01*
X63901Y-49941D01*
X63748Y-49788D01*
X63547Y-49705D01*
X63331Y-49704D01*
X63293Y-49720D01*
X63288Y-49621D01*
X63227Y-49473D01*
X63132Y-49446D01*
X63061Y-49517D01*
X63061Y-49375D01*
X63034Y-49280D01*
X62830Y-49208D01*
X62614Y-49219D01*
X62465Y-49280D01*
X62438Y-49375D01*
X62750Y-49687D01*
X63061Y-49375D01*
X63061Y-49517D01*
X62820Y-49757D01*
X62826Y-49763D01*
X62755Y-49834D01*
X62750Y-49828D01*
X62744Y-49834D01*
X62673Y-49763D01*
X62679Y-49757D01*
X62367Y-49446D01*
X62272Y-49473D01*
X62200Y-49677D01*
X62202Y-49721D01*
X62141Y-49700D01*
X61925Y-49711D01*
X61776Y-49772D01*
X61749Y-49867D01*
X62061Y-50179D01*
X62066Y-50173D01*
X62137Y-50244D01*
X62131Y-50250D01*
X62137Y-50255D01*
X62066Y-50326D01*
X62061Y-50320D01*
X61990Y-50391D01*
X61990Y-50250D01*
X61678Y-49938D01*
X61583Y-49965D01*
X61511Y-50169D01*
X61522Y-50385D01*
X61583Y-50534D01*
X61678Y-50561D01*
X61990Y-50250D01*
X61990Y-50391D01*
X61749Y-50632D01*
X61776Y-50727D01*
X61980Y-50799D01*
X62196Y-50788D01*
X62204Y-50785D01*
X62204Y-50850D01*
X62287Y-51050D01*
X62440Y-51203D01*
X62641Y-51287D01*
X62857Y-51287D01*
X63058Y-51204D01*
X63211Y-51051D01*
X63294Y-50851D01*
X63294Y-50780D01*
X63330Y-50794D01*
X63546Y-50795D01*
X63747Y-50712D01*
X63900Y-50559D01*
X63983Y-50358D01*
X63984Y-50142D01*
X63984Y-67700D01*
X63799Y-67700D01*
X63799Y-63330D01*
X63795Y-63238D01*
X63795Y-61142D01*
X63712Y-60941D01*
X63559Y-60788D01*
X63528Y-60775D01*
X63528Y-53134D01*
X63528Y-52865D01*
X63468Y-52721D01*
X63326Y-52563D01*
X63134Y-52471D01*
X63050Y-52519D01*
X63050Y-52950D01*
X63479Y-52950D01*
X63528Y-52865D01*
X63528Y-53134D01*
X63479Y-53050D01*
X63050Y-53050D01*
X63050Y-53480D01*
X63134Y-53528D01*
X63326Y-53436D01*
X63468Y-53278D01*
X63528Y-53134D01*
X63528Y-60775D01*
X63358Y-60705D01*
X63305Y-60705D01*
X63305Y-57250D01*
X63264Y-57041D01*
X63146Y-56864D01*
X62969Y-56746D01*
X62950Y-56742D01*
X62950Y-53480D01*
X62950Y-53050D01*
X62942Y-53050D01*
X62942Y-52950D01*
X62950Y-52950D01*
X62950Y-52519D01*
X62865Y-52471D01*
X62673Y-52563D01*
X62545Y-52706D01*
X62545Y-52655D01*
X62507Y-52563D01*
X62436Y-52493D01*
X62344Y-52455D01*
X62245Y-52454D01*
X61655Y-52454D01*
X61563Y-52492D01*
X61493Y-52563D01*
X61455Y-52655D01*
X61454Y-52754D01*
X61454Y-53344D01*
X61492Y-53436D01*
X61563Y-53506D01*
X61655Y-53544D01*
X61754Y-53545D01*
X62344Y-53545D01*
X62436Y-53507D01*
X62506Y-53436D01*
X62544Y-53344D01*
X62545Y-53293D01*
X62673Y-53436D01*
X62865Y-53528D01*
X62950Y-53480D01*
X62950Y-56742D01*
X62845Y-56721D01*
X62845Y-55295D01*
X62845Y-54605D01*
X62807Y-54513D01*
X62736Y-54443D01*
X62644Y-54405D01*
X62545Y-54404D01*
X61855Y-54404D01*
X61763Y-54442D01*
X61693Y-54513D01*
X61662Y-54586D01*
X61558Y-54490D01*
X61392Y-54422D01*
X61300Y-54469D01*
X61300Y-54950D01*
X61307Y-54950D01*
X61307Y-55050D01*
X61300Y-55050D01*
X61300Y-55530D01*
X61392Y-55577D01*
X61558Y-55509D01*
X61662Y-55413D01*
X61692Y-55486D01*
X61763Y-55556D01*
X61855Y-55594D01*
X61954Y-55595D01*
X62644Y-55595D01*
X62736Y-55557D01*
X62806Y-55486D01*
X62844Y-55394D01*
X62845Y-55295D01*
X62845Y-56721D01*
X62760Y-56705D01*
X62739Y-56705D01*
X62530Y-56746D01*
X62353Y-56864D01*
X62235Y-57041D01*
X62194Y-57250D01*
X62235Y-57458D01*
X62353Y-57635D01*
X62530Y-57753D01*
X62739Y-57795D01*
X62760Y-57795D01*
X62969Y-57753D01*
X63146Y-57635D01*
X63264Y-57458D01*
X63305Y-57250D01*
X63305Y-60705D01*
X63142Y-60704D01*
X62941Y-60787D01*
X62845Y-60884D01*
X62845Y-59761D01*
X62845Y-59738D01*
X62799Y-59510D01*
X62670Y-59317D01*
X62477Y-59188D01*
X62250Y-59143D01*
X62022Y-59188D01*
X61829Y-59317D01*
X61750Y-59436D01*
X61670Y-59317D01*
X61477Y-59188D01*
X61250Y-59143D01*
X61200Y-59153D01*
X61200Y-55530D01*
X61200Y-55050D01*
X61192Y-55050D01*
X61192Y-54950D01*
X61200Y-54950D01*
X61200Y-54469D01*
X61107Y-54422D01*
X60941Y-54490D01*
X60770Y-54647D01*
X60751Y-54688D01*
X60670Y-54567D01*
X60595Y-54517D01*
X60595Y-50295D01*
X60595Y-49605D01*
X60557Y-49513D01*
X60486Y-49443D01*
X60394Y-49405D01*
X60295Y-49404D01*
X59605Y-49404D01*
X59513Y-49442D01*
X59443Y-49513D01*
X59421Y-49565D01*
X59392Y-49536D01*
X59347Y-49581D01*
X59314Y-49481D01*
X59092Y-49400D01*
X58856Y-49410D01*
X58685Y-49481D01*
X58652Y-49581D01*
X59000Y-49929D01*
X59005Y-49923D01*
X59076Y-49994D01*
X59070Y-50000D01*
X59076Y-50005D01*
X59005Y-50076D01*
X59000Y-50070D01*
X58929Y-50141D01*
X58929Y-50000D01*
X58581Y-49652D01*
X58500Y-49678D01*
X58418Y-49652D01*
X58347Y-49722D01*
X58347Y-49581D01*
X58314Y-49481D01*
X58092Y-49400D01*
X57856Y-49410D01*
X57685Y-49481D01*
X57652Y-49581D01*
X58000Y-49929D01*
X58347Y-49581D01*
X58347Y-49722D01*
X58070Y-50000D01*
X58418Y-50347D01*
X58500Y-50321D01*
X58581Y-50347D01*
X58929Y-50000D01*
X58929Y-50141D01*
X58652Y-50418D01*
X58685Y-50518D01*
X58907Y-50599D01*
X59143Y-50589D01*
X59314Y-50518D01*
X59347Y-50418D01*
X59347Y-50418D01*
X59392Y-50463D01*
X59421Y-50434D01*
X59442Y-50486D01*
X59513Y-50556D01*
X59605Y-50594D01*
X59704Y-50595D01*
X60394Y-50595D01*
X60486Y-50557D01*
X60556Y-50486D01*
X60594Y-50394D01*
X60595Y-50295D01*
X60595Y-54517D01*
X60477Y-54438D01*
X60250Y-54393D01*
X60022Y-54438D01*
X59829Y-54567D01*
X59700Y-54760D01*
X59655Y-54988D01*
X59655Y-55011D01*
X59700Y-55239D01*
X59829Y-55432D01*
X60022Y-55561D01*
X60250Y-55606D01*
X60477Y-55561D01*
X60670Y-55432D01*
X60751Y-55311D01*
X60770Y-55352D01*
X60941Y-55509D01*
X61107Y-55577D01*
X61200Y-55530D01*
X61200Y-59153D01*
X61022Y-59188D01*
X60829Y-59317D01*
X60807Y-59263D01*
X60736Y-59193D01*
X60644Y-59155D01*
X60545Y-59154D01*
X60295Y-59154D01*
X60295Y-57495D01*
X60295Y-56905D01*
X60257Y-56813D01*
X60186Y-56743D01*
X60094Y-56705D01*
X59995Y-56704D01*
X59405Y-56704D01*
X59347Y-56728D01*
X59313Y-56742D01*
X59243Y-56813D01*
X59205Y-56905D01*
X59204Y-57004D01*
X59204Y-57594D01*
X59242Y-57686D01*
X59313Y-57756D01*
X59405Y-57794D01*
X59504Y-57795D01*
X60094Y-57795D01*
X60186Y-57757D01*
X60256Y-57686D01*
X60294Y-57594D01*
X60295Y-57495D01*
X60295Y-59154D01*
X59855Y-59154D01*
X59763Y-59192D01*
X59693Y-59263D01*
X59655Y-59355D01*
X59654Y-59454D01*
X59654Y-60144D01*
X59692Y-60236D01*
X59763Y-60306D01*
X59855Y-60344D01*
X59954Y-60345D01*
X60644Y-60345D01*
X60736Y-60307D01*
X60806Y-60236D01*
X60829Y-60182D01*
X61022Y-60311D01*
X61250Y-60356D01*
X61477Y-60311D01*
X61670Y-60182D01*
X61750Y-60063D01*
X61829Y-60182D01*
X62022Y-60311D01*
X62250Y-60356D01*
X62477Y-60311D01*
X62670Y-60182D01*
X62799Y-59989D01*
X62845Y-59761D01*
X62845Y-60884D01*
X62788Y-60940D01*
X62750Y-61032D01*
X62712Y-60941D01*
X62559Y-60788D01*
X62358Y-60705D01*
X62142Y-60704D01*
X61941Y-60787D01*
X61788Y-60940D01*
X61705Y-61141D01*
X61704Y-61357D01*
X61787Y-61558D01*
X61940Y-61711D01*
X62141Y-61794D01*
X62357Y-61795D01*
X62558Y-61712D01*
X62711Y-61559D01*
X62749Y-61467D01*
X62787Y-61558D01*
X62940Y-61711D01*
X63141Y-61794D01*
X63357Y-61795D01*
X63558Y-61712D01*
X63711Y-61559D01*
X63794Y-61358D01*
X63795Y-61142D01*
X63795Y-63238D01*
X63788Y-63114D01*
X63727Y-62965D01*
X63632Y-62938D01*
X63561Y-63009D01*
X63561Y-62867D01*
X63534Y-62772D01*
X63330Y-62700D01*
X63114Y-62711D01*
X62965Y-62772D01*
X62938Y-62867D01*
X63250Y-63179D01*
X63561Y-62867D01*
X63561Y-63009D01*
X63320Y-63250D01*
X63632Y-63561D01*
X63727Y-63534D01*
X63799Y-63330D01*
X63799Y-67700D01*
X63599Y-67700D01*
X63599Y-66592D01*
X63589Y-66356D01*
X63561Y-66289D01*
X63561Y-63632D01*
X63250Y-63320D01*
X63179Y-63391D01*
X63179Y-63250D01*
X62867Y-62938D01*
X62772Y-62965D01*
X62751Y-63024D01*
X62727Y-62965D01*
X62632Y-62938D01*
X62561Y-63009D01*
X62561Y-62867D01*
X62534Y-62772D01*
X62330Y-62700D01*
X62114Y-62711D01*
X61965Y-62772D01*
X61938Y-62867D01*
X62250Y-63179D01*
X62561Y-62867D01*
X62561Y-63009D01*
X62320Y-63250D01*
X62632Y-63561D01*
X62727Y-63534D01*
X62748Y-63475D01*
X62772Y-63534D01*
X62867Y-63561D01*
X63179Y-63250D01*
X63179Y-63391D01*
X62938Y-63632D01*
X62965Y-63727D01*
X63169Y-63799D01*
X63385Y-63788D01*
X63534Y-63727D01*
X63561Y-63632D01*
X63561Y-66289D01*
X63518Y-66185D01*
X63418Y-66152D01*
X63347Y-66222D01*
X63347Y-66081D01*
X63314Y-65981D01*
X63092Y-65900D01*
X62856Y-65910D01*
X62685Y-65981D01*
X62652Y-66081D01*
X63000Y-66429D01*
X63347Y-66081D01*
X63347Y-66222D01*
X63070Y-66500D01*
X63418Y-66847D01*
X63518Y-66814D01*
X63599Y-66592D01*
X63599Y-67700D01*
X63347Y-67700D01*
X63347Y-66918D01*
X63000Y-66570D01*
X62929Y-66641D01*
X62929Y-66500D01*
X62581Y-66152D01*
X62561Y-66158D01*
X62561Y-63632D01*
X62250Y-63320D01*
X62179Y-63391D01*
X62179Y-63250D01*
X61867Y-62938D01*
X61772Y-62965D01*
X61700Y-63169D01*
X61711Y-63385D01*
X61772Y-63534D01*
X61867Y-63561D01*
X62179Y-63250D01*
X62179Y-63391D01*
X61938Y-63632D01*
X61965Y-63727D01*
X62169Y-63799D01*
X62385Y-63788D01*
X62534Y-63727D01*
X62561Y-63632D01*
X62561Y-66158D01*
X62500Y-66178D01*
X62418Y-66152D01*
X62347Y-66222D01*
X62070Y-66500D01*
X62418Y-66847D01*
X62500Y-66821D01*
X62581Y-66847D01*
X62929Y-66500D01*
X62929Y-66641D01*
X62652Y-66918D01*
X62685Y-67018D01*
X62907Y-67099D01*
X63143Y-67089D01*
X63314Y-67018D01*
X63347Y-66918D01*
X63347Y-67700D01*
X62347Y-67700D01*
X62347Y-66918D01*
X62000Y-66570D01*
X61994Y-66576D01*
X61929Y-66511D01*
X61923Y-66505D01*
X61929Y-66500D01*
X61923Y-66494D01*
X61994Y-66423D01*
X62000Y-66429D01*
X62347Y-66081D01*
X62314Y-65981D01*
X62092Y-65900D01*
X61856Y-65910D01*
X61685Y-65981D01*
X61652Y-66081D01*
X61607Y-66036D01*
X61578Y-66065D01*
X61557Y-66013D01*
X61486Y-65943D01*
X61394Y-65905D01*
X61295Y-65904D01*
X60605Y-65904D01*
X60545Y-65929D01*
X60545Y-64245D01*
X60545Y-63655D01*
X60545Y-63655D01*
X60545Y-61010D01*
X60545Y-60989D01*
X60503Y-60780D01*
X60385Y-60603D01*
X60208Y-60485D01*
X60000Y-60444D01*
X59791Y-60485D01*
X59614Y-60603D01*
X59500Y-60775D01*
X59385Y-60603D01*
X59208Y-60485D01*
X59000Y-60444D01*
X58791Y-60485D01*
X58614Y-60603D01*
X58496Y-60780D01*
X58455Y-60989D01*
X58455Y-61010D01*
X58496Y-61219D01*
X58614Y-61396D01*
X58791Y-61514D01*
X59000Y-61555D01*
X59208Y-61514D01*
X59385Y-61396D01*
X59500Y-61224D01*
X59614Y-61396D01*
X59791Y-61514D01*
X60000Y-61555D01*
X60208Y-61514D01*
X60385Y-61396D01*
X60503Y-61219D01*
X60545Y-61010D01*
X60545Y-63655D01*
X60507Y-63563D01*
X60436Y-63493D01*
X60344Y-63455D01*
X60245Y-63454D01*
X59655Y-63454D01*
X59563Y-63492D01*
X59493Y-63563D01*
X59455Y-63655D01*
X59454Y-63754D01*
X59454Y-64344D01*
X59492Y-64436D01*
X59563Y-64506D01*
X59655Y-64544D01*
X59754Y-64545D01*
X60344Y-64545D01*
X60436Y-64507D01*
X60506Y-64436D01*
X60544Y-64344D01*
X60545Y-64245D01*
X60545Y-65929D01*
X60513Y-65942D01*
X60443Y-66013D01*
X60405Y-66105D01*
X60404Y-66204D01*
X60404Y-66894D01*
X60442Y-66986D01*
X60513Y-67056D01*
X60605Y-67094D01*
X60704Y-67095D01*
X61394Y-67095D01*
X61486Y-67057D01*
X61556Y-66986D01*
X61578Y-66934D01*
X61607Y-66963D01*
X61652Y-66918D01*
X61685Y-67018D01*
X61907Y-67099D01*
X62143Y-67089D01*
X62314Y-67018D01*
X62347Y-66918D01*
X62347Y-67700D01*
X59795Y-67700D01*
X59795Y-66745D01*
X59795Y-66155D01*
X59757Y-66063D01*
X59686Y-65993D01*
X59594Y-65955D01*
X59545Y-65955D01*
X59545Y-65010D01*
X59545Y-64989D01*
X59503Y-64780D01*
X59385Y-64603D01*
X59208Y-64485D01*
X59000Y-64444D01*
X58791Y-64485D01*
X58614Y-64603D01*
X58496Y-64780D01*
X58455Y-64989D01*
X58455Y-65010D01*
X58496Y-65219D01*
X58614Y-65396D01*
X58791Y-65514D01*
X59000Y-65555D01*
X59208Y-65514D01*
X59385Y-65396D01*
X59503Y-65219D01*
X59545Y-65010D01*
X59545Y-65955D01*
X59495Y-65954D01*
X58905Y-65954D01*
X58813Y-65992D01*
X58743Y-66063D01*
X58705Y-66155D01*
X58704Y-66206D01*
X58576Y-66063D01*
X58384Y-65971D01*
X58347Y-65992D01*
X58347Y-50418D01*
X58000Y-50070D01*
X57929Y-50141D01*
X57929Y-50000D01*
X57581Y-49652D01*
X57481Y-49685D01*
X57400Y-49907D01*
X57410Y-50143D01*
X57481Y-50314D01*
X57581Y-50347D01*
X57929Y-50000D01*
X57929Y-50141D01*
X57652Y-50418D01*
X57685Y-50518D01*
X57907Y-50599D01*
X58143Y-50589D01*
X58314Y-50518D01*
X58347Y-50418D01*
X58347Y-65992D01*
X58300Y-66019D01*
X58300Y-66450D01*
X58307Y-66450D01*
X58307Y-66550D01*
X58300Y-66550D01*
X58300Y-66980D01*
X58384Y-67028D01*
X58576Y-66936D01*
X58704Y-66793D01*
X58704Y-66844D01*
X58742Y-66936D01*
X58813Y-67006D01*
X58905Y-67044D01*
X59004Y-67045D01*
X59594Y-67045D01*
X59686Y-67007D01*
X59756Y-66936D01*
X59794Y-66844D01*
X59795Y-66745D01*
X59795Y-67700D01*
X58200Y-67700D01*
X58200Y-66980D01*
X58200Y-66550D01*
X58200Y-66450D01*
X58200Y-66019D01*
X58115Y-65971D01*
X57923Y-66063D01*
X57781Y-66221D01*
X57721Y-66365D01*
X57770Y-66450D01*
X58200Y-66450D01*
X58200Y-66550D01*
X57770Y-66550D01*
X57721Y-66634D01*
X57781Y-66778D01*
X57923Y-66936D01*
X58115Y-67028D01*
X58200Y-66980D01*
X58200Y-67700D01*
X57549Y-67700D01*
X57549Y-64830D01*
X57538Y-64614D01*
X57477Y-64465D01*
X57382Y-64438D01*
X57311Y-64509D01*
X57311Y-64367D01*
X57300Y-64327D01*
X57300Y-58042D01*
X57140Y-57656D01*
X56845Y-57360D01*
X56799Y-57341D01*
X56799Y-49830D01*
X56788Y-49614D01*
X56727Y-49465D01*
X56632Y-49438D01*
X56561Y-49509D01*
X56561Y-49367D01*
X56534Y-49272D01*
X56330Y-49200D01*
X56114Y-49211D01*
X55965Y-49272D01*
X55938Y-49367D01*
X56250Y-49679D01*
X56561Y-49367D01*
X56561Y-49509D01*
X56320Y-49750D01*
X56632Y-50061D01*
X56727Y-50034D01*
X56799Y-49830D01*
X56799Y-57341D01*
X56795Y-57339D01*
X56795Y-51642D01*
X56712Y-51441D01*
X56561Y-51290D01*
X56561Y-50132D01*
X56250Y-49820D01*
X56179Y-49891D01*
X56179Y-49750D01*
X55867Y-49438D01*
X55772Y-49465D01*
X55700Y-49669D01*
X55711Y-49885D01*
X55772Y-50034D01*
X55867Y-50061D01*
X56179Y-49750D01*
X56179Y-49891D01*
X55938Y-50132D01*
X55965Y-50227D01*
X56169Y-50299D01*
X56385Y-50288D01*
X56534Y-50227D01*
X56561Y-50132D01*
X56561Y-51290D01*
X56559Y-51288D01*
X56358Y-51205D01*
X56142Y-51204D01*
X55941Y-51287D01*
X55788Y-51440D01*
X55705Y-51641D01*
X55704Y-51857D01*
X55787Y-52058D01*
X55940Y-52211D01*
X56141Y-52294D01*
X56357Y-52295D01*
X56558Y-52212D01*
X56711Y-52059D01*
X56794Y-51858D01*
X56795Y-51642D01*
X56795Y-57339D01*
X56459Y-57200D01*
X56042Y-57199D01*
X55656Y-57359D01*
X55555Y-57459D01*
X55555Y-52250D01*
X55514Y-52041D01*
X55396Y-51864D01*
X55219Y-51746D01*
X55010Y-51705D01*
X54989Y-51705D01*
X54780Y-51746D01*
X54603Y-51864D01*
X54500Y-52020D01*
X54396Y-51864D01*
X54219Y-51746D01*
X54010Y-51705D01*
X53989Y-51705D01*
X53780Y-51746D01*
X53603Y-51864D01*
X53500Y-52020D01*
X53396Y-51864D01*
X53219Y-51746D01*
X53010Y-51705D01*
X52989Y-51705D01*
X52780Y-51746D01*
X52603Y-51864D01*
X52500Y-52020D01*
X52396Y-51864D01*
X52219Y-51746D01*
X52010Y-51705D01*
X51989Y-51705D01*
X51950Y-51712D01*
X51950Y-49730D01*
X51950Y-49300D01*
X51520Y-49300D01*
X51471Y-49384D01*
X51531Y-49528D01*
X51673Y-49686D01*
X51865Y-49778D01*
X51950Y-49730D01*
X51950Y-51712D01*
X51780Y-51746D01*
X51603Y-51864D01*
X51485Y-52041D01*
X51444Y-52250D01*
X51485Y-52458D01*
X51603Y-52635D01*
X51780Y-52753D01*
X51989Y-52795D01*
X52010Y-52795D01*
X52219Y-52753D01*
X52396Y-52635D01*
X52500Y-52479D01*
X52603Y-52635D01*
X52780Y-52753D01*
X52989Y-52795D01*
X53010Y-52795D01*
X53219Y-52753D01*
X53396Y-52635D01*
X53500Y-52479D01*
X53603Y-52635D01*
X53780Y-52753D01*
X53989Y-52795D01*
X54010Y-52795D01*
X54219Y-52753D01*
X54396Y-52635D01*
X54500Y-52479D01*
X54603Y-52635D01*
X54780Y-52753D01*
X54989Y-52795D01*
X55010Y-52795D01*
X55219Y-52753D01*
X55396Y-52635D01*
X55514Y-52458D01*
X55555Y-52250D01*
X55555Y-57459D01*
X55360Y-57654D01*
X55200Y-58040D01*
X55199Y-58457D01*
X55359Y-58844D01*
X55654Y-59139D01*
X56040Y-59299D01*
X56457Y-59300D01*
X56844Y-59140D01*
X57139Y-58845D01*
X57299Y-58459D01*
X57300Y-58042D01*
X57300Y-64327D01*
X57284Y-64272D01*
X57080Y-64200D01*
X56864Y-64211D01*
X56715Y-64272D01*
X56688Y-64367D01*
X57000Y-64679D01*
X57311Y-64367D01*
X57311Y-64509D01*
X57070Y-64750D01*
X57382Y-65061D01*
X57477Y-65034D01*
X57549Y-64830D01*
X57549Y-67700D01*
X57545Y-67700D01*
X57545Y-66642D01*
X57462Y-66441D01*
X57311Y-66290D01*
X57311Y-65132D01*
X57000Y-64820D01*
X56929Y-64891D01*
X56929Y-64750D01*
X56617Y-64438D01*
X56522Y-64465D01*
X56450Y-64669D01*
X56461Y-64885D01*
X56522Y-65034D01*
X56617Y-65061D01*
X56929Y-64750D01*
X56929Y-64891D01*
X56688Y-65132D01*
X56715Y-65227D01*
X56919Y-65299D01*
X57135Y-65288D01*
X57284Y-65227D01*
X57311Y-65132D01*
X57311Y-66290D01*
X57309Y-66288D01*
X57108Y-66205D01*
X56892Y-66204D01*
X56691Y-66287D01*
X56538Y-66440D01*
X56455Y-66641D01*
X56454Y-66857D01*
X56537Y-67058D01*
X56690Y-67211D01*
X56891Y-67294D01*
X57107Y-67295D01*
X57308Y-67212D01*
X57461Y-67059D01*
X57544Y-66858D01*
X57545Y-66642D01*
X57545Y-67700D01*
X56049Y-67700D01*
X56146Y-67635D01*
X56264Y-67458D01*
X56305Y-67250D01*
X56295Y-67196D01*
X56295Y-64495D01*
X56295Y-63905D01*
X56257Y-63813D01*
X56186Y-63743D01*
X56094Y-63705D01*
X55995Y-63704D01*
X55405Y-63704D01*
X55313Y-63742D01*
X55243Y-63813D01*
X55205Y-63905D01*
X55205Y-63952D01*
X55146Y-63864D01*
X54969Y-63746D01*
X54760Y-63705D01*
X54739Y-63705D01*
X54530Y-63746D01*
X54353Y-63864D01*
X54250Y-64020D01*
X54146Y-63864D01*
X53969Y-63746D01*
X53760Y-63705D01*
X53739Y-63705D01*
X53530Y-63746D01*
X53353Y-63864D01*
X53250Y-64020D01*
X53146Y-63864D01*
X52969Y-63746D01*
X52760Y-63705D01*
X52739Y-63705D01*
X52530Y-63746D01*
X52353Y-63864D01*
X52295Y-63952D01*
X52295Y-58245D01*
X52295Y-57655D01*
X52257Y-57563D01*
X52186Y-57493D01*
X52094Y-57455D01*
X52047Y-57455D01*
X52135Y-57396D01*
X52253Y-57219D01*
X52295Y-57010D01*
X52295Y-56989D01*
X52253Y-56780D01*
X52135Y-56603D01*
X51979Y-56500D01*
X52135Y-56396D01*
X52253Y-56219D01*
X52295Y-56010D01*
X52295Y-55989D01*
X52253Y-55780D01*
X52135Y-55603D01*
X51979Y-55500D01*
X52135Y-55396D01*
X52253Y-55219D01*
X52295Y-55010D01*
X52295Y-54989D01*
X52253Y-54780D01*
X52135Y-54603D01*
X51958Y-54485D01*
X51750Y-54444D01*
X51541Y-54485D01*
X51364Y-54603D01*
X51300Y-54700D01*
X51300Y-53500D01*
X51300Y-52900D01*
X51262Y-52808D01*
X51191Y-52738D01*
X51099Y-52700D01*
X51000Y-52699D01*
X50400Y-52699D01*
X50308Y-52737D01*
X50238Y-52808D01*
X50200Y-52900D01*
X50200Y-52922D01*
X50061Y-52784D01*
X49859Y-52700D01*
X49641Y-52699D01*
X49438Y-52783D01*
X49284Y-52938D01*
X49252Y-53013D01*
X49231Y-52962D01*
X49135Y-52934D01*
X49065Y-53005D01*
X49065Y-52864D01*
X49037Y-52768D01*
X48831Y-52695D01*
X48613Y-52706D01*
X48462Y-52768D01*
X48434Y-52864D01*
X48750Y-53179D01*
X49065Y-52864D01*
X49065Y-53005D01*
X48820Y-53250D01*
X49135Y-53565D01*
X49231Y-53537D01*
X49250Y-53482D01*
X49283Y-53561D01*
X49438Y-53715D01*
X49640Y-53799D01*
X49858Y-53800D01*
X50061Y-53716D01*
X50199Y-53577D01*
X50199Y-53599D01*
X50237Y-53691D01*
X50308Y-53761D01*
X50400Y-53799D01*
X50499Y-53800D01*
X51099Y-53800D01*
X51191Y-53762D01*
X51261Y-53691D01*
X51299Y-53599D01*
X51300Y-53500D01*
X51300Y-54700D01*
X51246Y-54780D01*
X51205Y-54989D01*
X51205Y-55010D01*
X51246Y-55219D01*
X51364Y-55396D01*
X51520Y-55500D01*
X51364Y-55603D01*
X51246Y-55780D01*
X51205Y-55989D01*
X51205Y-56010D01*
X51246Y-56219D01*
X51364Y-56396D01*
X51520Y-56500D01*
X51364Y-56603D01*
X51246Y-56780D01*
X51205Y-56989D01*
X51205Y-57010D01*
X51246Y-57219D01*
X51364Y-57396D01*
X51452Y-57454D01*
X51405Y-57454D01*
X51313Y-57492D01*
X51243Y-57563D01*
X51205Y-57655D01*
X51204Y-57754D01*
X51204Y-58344D01*
X51242Y-58436D01*
X51313Y-58506D01*
X51405Y-58544D01*
X51504Y-58545D01*
X52094Y-58545D01*
X52186Y-58507D01*
X52256Y-58436D01*
X52294Y-58344D01*
X52295Y-58245D01*
X52295Y-63952D01*
X52295Y-63952D01*
X52295Y-60260D01*
X52295Y-60239D01*
X52253Y-60030D01*
X52135Y-59853D01*
X51958Y-59735D01*
X51795Y-59703D01*
X51795Y-59142D01*
X51712Y-58941D01*
X51559Y-58788D01*
X51358Y-58705D01*
X51142Y-58704D01*
X50941Y-58787D01*
X50788Y-58940D01*
X50705Y-59141D01*
X50704Y-59357D01*
X50787Y-59558D01*
X50940Y-59711D01*
X51141Y-59794D01*
X51357Y-59795D01*
X51558Y-59712D01*
X51711Y-59559D01*
X51794Y-59358D01*
X51795Y-59142D01*
X51795Y-59703D01*
X51750Y-59694D01*
X51541Y-59735D01*
X51364Y-59853D01*
X51246Y-60030D01*
X51243Y-60043D01*
X51186Y-59923D01*
X51028Y-59781D01*
X50884Y-59721D01*
X50800Y-59770D01*
X50800Y-60200D01*
X50807Y-60200D01*
X50807Y-60300D01*
X50800Y-60300D01*
X50800Y-60729D01*
X50884Y-60778D01*
X51028Y-60718D01*
X51186Y-60576D01*
X51243Y-60456D01*
X51246Y-60469D01*
X51364Y-60646D01*
X51541Y-60764D01*
X51750Y-60805D01*
X51958Y-60764D01*
X52135Y-60646D01*
X52253Y-60469D01*
X52295Y-60260D01*
X52295Y-63952D01*
X52248Y-64022D01*
X52135Y-63853D01*
X51958Y-63735D01*
X51750Y-63694D01*
X51541Y-63735D01*
X51364Y-63853D01*
X51250Y-64025D01*
X51135Y-63853D01*
X50958Y-63735D01*
X50750Y-63694D01*
X50700Y-63704D01*
X50700Y-60729D01*
X50700Y-60300D01*
X50692Y-60300D01*
X50692Y-60200D01*
X50700Y-60200D01*
X50700Y-59770D01*
X50615Y-59721D01*
X50471Y-59781D01*
X50313Y-59923D01*
X50256Y-60043D01*
X50253Y-60030D01*
X50135Y-59853D01*
X49958Y-59735D01*
X49799Y-59704D01*
X49799Y-59330D01*
X49788Y-59114D01*
X49727Y-58965D01*
X49632Y-58938D01*
X49561Y-59009D01*
X49561Y-58867D01*
X49534Y-58772D01*
X49330Y-58700D01*
X49114Y-58711D01*
X48965Y-58772D01*
X48938Y-58867D01*
X49250Y-59179D01*
X49561Y-58867D01*
X49561Y-59009D01*
X49320Y-59250D01*
X49632Y-59561D01*
X49727Y-59534D01*
X49799Y-59330D01*
X49799Y-59704D01*
X49750Y-59694D01*
X49561Y-59731D01*
X49561Y-59632D01*
X49250Y-59320D01*
X49179Y-59391D01*
X49179Y-59250D01*
X48867Y-58938D01*
X48772Y-58965D01*
X48700Y-59169D01*
X48711Y-59385D01*
X48772Y-59534D01*
X48867Y-59561D01*
X49179Y-59250D01*
X49179Y-59391D01*
X48938Y-59632D01*
X48965Y-59727D01*
X49169Y-59799D01*
X49385Y-59788D01*
X49534Y-59727D01*
X49561Y-59632D01*
X49561Y-59731D01*
X49541Y-59735D01*
X49364Y-59853D01*
X49246Y-60030D01*
X49205Y-60239D01*
X49205Y-60260D01*
X49246Y-60469D01*
X49364Y-60646D01*
X49541Y-60764D01*
X49750Y-60805D01*
X49958Y-60764D01*
X50135Y-60646D01*
X50253Y-60469D01*
X50256Y-60456D01*
X50313Y-60576D01*
X50471Y-60718D01*
X50615Y-60778D01*
X50700Y-60729D01*
X50700Y-63704D01*
X50541Y-63735D01*
X50364Y-63853D01*
X50250Y-64025D01*
X50135Y-63853D01*
X49958Y-63735D01*
X49750Y-63694D01*
X49541Y-63735D01*
X49364Y-63853D01*
X49246Y-64030D01*
X49205Y-64239D01*
X49205Y-64260D01*
X49246Y-64469D01*
X49364Y-64646D01*
X49541Y-64764D01*
X49750Y-64805D01*
X49958Y-64764D01*
X50135Y-64646D01*
X50250Y-64474D01*
X50364Y-64646D01*
X50541Y-64764D01*
X50750Y-64805D01*
X50958Y-64764D01*
X51135Y-64646D01*
X51250Y-64474D01*
X51364Y-64646D01*
X51452Y-64704D01*
X51392Y-64704D01*
X51191Y-64787D01*
X51038Y-64940D01*
X50955Y-65141D01*
X50954Y-65357D01*
X51037Y-65558D01*
X51190Y-65711D01*
X51391Y-65794D01*
X51607Y-65795D01*
X51808Y-65712D01*
X51961Y-65559D01*
X52044Y-65358D01*
X52045Y-65142D01*
X51962Y-64941D01*
X51813Y-64792D01*
X51958Y-64764D01*
X52135Y-64646D01*
X52248Y-64477D01*
X52353Y-64635D01*
X52530Y-64753D01*
X52739Y-64795D01*
X52760Y-64795D01*
X52969Y-64753D01*
X53146Y-64635D01*
X53250Y-64479D01*
X53353Y-64635D01*
X53530Y-64753D01*
X53739Y-64795D01*
X53760Y-64795D01*
X53969Y-64753D01*
X54146Y-64635D01*
X54250Y-64479D01*
X54353Y-64635D01*
X54530Y-64753D01*
X54739Y-64795D01*
X54760Y-64795D01*
X54969Y-64753D01*
X55146Y-64635D01*
X55204Y-64547D01*
X55204Y-64594D01*
X55242Y-64686D01*
X55313Y-64756D01*
X55405Y-64794D01*
X55504Y-64795D01*
X56094Y-64795D01*
X56186Y-64757D01*
X56256Y-64686D01*
X56294Y-64594D01*
X56295Y-64495D01*
X56295Y-67196D01*
X56264Y-67041D01*
X56146Y-66864D01*
X55969Y-66746D01*
X55760Y-66705D01*
X55739Y-66705D01*
X55530Y-66746D01*
X55353Y-66864D01*
X55250Y-67020D01*
X55146Y-66864D01*
X54969Y-66746D01*
X54760Y-66705D01*
X54739Y-66705D01*
X54530Y-66746D01*
X54353Y-66864D01*
X54250Y-67020D01*
X54146Y-66864D01*
X53969Y-66746D01*
X53760Y-66705D01*
X53739Y-66705D01*
X53530Y-66746D01*
X53353Y-66864D01*
X53250Y-67020D01*
X53146Y-66864D01*
X52969Y-66746D01*
X52760Y-66705D01*
X52739Y-66705D01*
X52530Y-66746D01*
X52353Y-66864D01*
X52235Y-67041D01*
X52194Y-67250D01*
X52235Y-67458D01*
X52353Y-67635D01*
X52450Y-67700D01*
X52049Y-67700D01*
X52049Y-67330D01*
X52038Y-67114D01*
X51977Y-66965D01*
X51882Y-66938D01*
X51811Y-67009D01*
X51811Y-66867D01*
X51784Y-66772D01*
X51580Y-66700D01*
X51364Y-66711D01*
X51215Y-66772D01*
X51188Y-66867D01*
X51500Y-67179D01*
X51811Y-66867D01*
X51811Y-67009D01*
X51570Y-67250D01*
X51882Y-67561D01*
X51977Y-67534D01*
X52049Y-67330D01*
X52049Y-67700D01*
X51792Y-67700D01*
X51811Y-67632D01*
X51500Y-67320D01*
X51429Y-67391D01*
X51429Y-67250D01*
X51117Y-66938D01*
X51022Y-66965D01*
X50950Y-67169D01*
X50961Y-67385D01*
X51022Y-67534D01*
X51117Y-67561D01*
X51429Y-67250D01*
X51429Y-67391D01*
X51188Y-67632D01*
X51207Y-67700D01*
X50323Y-67700D01*
X50462Y-67561D01*
X50680Y-67035D01*
X50681Y-66466D01*
X50463Y-65940D01*
X50061Y-65537D01*
X49535Y-65319D01*
X48966Y-65318D01*
X48440Y-65536D01*
X48300Y-65676D01*
X48300Y-63262D01*
X48390Y-63299D01*
X48608Y-63300D01*
X48811Y-63216D01*
X48965Y-63061D01*
X49049Y-62859D01*
X49050Y-62641D01*
X48966Y-62438D01*
X48827Y-62299D01*
X48849Y-62299D01*
X48941Y-62261D01*
X49012Y-62191D01*
X49050Y-62099D01*
X49050Y-61400D01*
X49012Y-61308D01*
X48941Y-61238D01*
X48849Y-61200D01*
X48750Y-61199D01*
X48612Y-61200D01*
X48550Y-61262D01*
X48550Y-61700D01*
X48987Y-61700D01*
X49050Y-61637D01*
X49050Y-61400D01*
X49050Y-62099D01*
X49050Y-61862D01*
X48987Y-61800D01*
X48550Y-61800D01*
X48550Y-61807D01*
X48450Y-61807D01*
X48450Y-61800D01*
X48442Y-61800D01*
X48442Y-61700D01*
X48450Y-61700D01*
X48450Y-61262D01*
X48387Y-61200D01*
X48300Y-61199D01*
X48300Y-58299D01*
X48364Y-58396D01*
X48541Y-58514D01*
X48750Y-58555D01*
X48958Y-58514D01*
X49135Y-58396D01*
X49253Y-58219D01*
X49295Y-58010D01*
X49295Y-57989D01*
X49253Y-57780D01*
X49135Y-57603D01*
X48969Y-57492D01*
X49028Y-57468D01*
X49186Y-57326D01*
X49278Y-57134D01*
X49230Y-57050D01*
X48800Y-57050D01*
X48800Y-57057D01*
X48700Y-57057D01*
X48700Y-57050D01*
X48692Y-57050D01*
X48692Y-56950D01*
X48700Y-56950D01*
X48700Y-56942D01*
X48800Y-56942D01*
X48800Y-56950D01*
X49230Y-56950D01*
X49278Y-56865D01*
X49186Y-56673D01*
X49028Y-56531D01*
X48969Y-56507D01*
X49135Y-56396D01*
X49253Y-56219D01*
X49295Y-56010D01*
X49295Y-55989D01*
X49253Y-55780D01*
X49135Y-55603D01*
X48969Y-55492D01*
X49028Y-55468D01*
X49186Y-55326D01*
X49278Y-55134D01*
X49278Y-54865D01*
X49186Y-54673D01*
X49065Y-54564D01*
X49065Y-53635D01*
X48750Y-53320D01*
X48434Y-53635D01*
X48462Y-53731D01*
X48668Y-53804D01*
X48886Y-53793D01*
X49037Y-53731D01*
X49065Y-53635D01*
X49065Y-54564D01*
X49028Y-54531D01*
X48884Y-54471D01*
X48800Y-54520D01*
X48800Y-54950D01*
X49230Y-54950D01*
X49278Y-54865D01*
X49278Y-55134D01*
X49230Y-55050D01*
X48800Y-55050D01*
X48800Y-55057D01*
X48700Y-55057D01*
X48700Y-55050D01*
X48692Y-55050D01*
X48692Y-54950D01*
X48700Y-54950D01*
X48700Y-54520D01*
X48615Y-54471D01*
X48471Y-54531D01*
X48313Y-54673D01*
X48300Y-54701D01*
X48300Y-53546D01*
X48364Y-53565D01*
X48679Y-53250D01*
X48364Y-52934D01*
X48300Y-52953D01*
X48300Y-50823D01*
X48438Y-50962D01*
X48964Y-51180D01*
X49533Y-51181D01*
X50059Y-50963D01*
X50462Y-50561D01*
X50680Y-50035D01*
X50681Y-49466D01*
X50463Y-48940D01*
X50323Y-48800D01*
X51701Y-48800D01*
X51673Y-48813D01*
X51531Y-48971D01*
X51471Y-49115D01*
X51520Y-49200D01*
X51950Y-49200D01*
X51950Y-49192D01*
X52050Y-49192D01*
X52050Y-49200D01*
X52057Y-49200D01*
X52057Y-49300D01*
X52050Y-49300D01*
X52050Y-49730D01*
X52134Y-49778D01*
X52326Y-49686D01*
X52468Y-49528D01*
X52492Y-49469D01*
X52603Y-49635D01*
X52780Y-49753D01*
X52989Y-49795D01*
X53010Y-49795D01*
X53219Y-49753D01*
X53396Y-49635D01*
X53500Y-49479D01*
X53603Y-49635D01*
X53780Y-49753D01*
X53989Y-49795D01*
X54010Y-49795D01*
X54219Y-49753D01*
X54396Y-49635D01*
X54454Y-49547D01*
X54454Y-49594D01*
X54492Y-49686D01*
X54563Y-49756D01*
X54655Y-49794D01*
X54754Y-49795D01*
X55344Y-49795D01*
X55436Y-49757D01*
X55506Y-49686D01*
X55544Y-49594D01*
X55545Y-49495D01*
X55545Y-48905D01*
X55507Y-48813D01*
X55493Y-48800D01*
X65176Y-48800D01*
X65037Y-48938D01*
X64819Y-49464D01*
X64818Y-50033D01*
X65036Y-50559D01*
X65438Y-50962D01*
X65964Y-51180D01*
X66533Y-51181D01*
X67059Y-50963D01*
X67200Y-50823D01*
X67200Y-57799D01*
X67140Y-57656D01*
X66845Y-57360D01*
X66459Y-57200D01*
X66042Y-57199D01*
X65656Y-57359D01*
X65360Y-57654D01*
X65200Y-58040D01*
X65199Y-58457D01*
X65359Y-58844D01*
X65654Y-59139D01*
X66040Y-59299D01*
X66457Y-59300D01*
X66844Y-59140D01*
X67139Y-58845D01*
X67200Y-58700D01*
X67200Y-65676D01*
X67200Y-65676D01*
G37*
G54D21*
X67200Y-65676D02*
X67061Y-65537D01*
X66535Y-65319D01*
X65966Y-65318D01*
X65440Y-65536D01*
X65037Y-65938D01*
X64819Y-66464D01*
X64818Y-67033D01*
X65036Y-67559D01*
X65176Y-67700D01*
X63984Y-67700D01*
X63984Y-50142D01*
X63901Y-49941D01*
X63748Y-49788D01*
X63547Y-49705D01*
X63331Y-49704D01*
X63293Y-49720D01*
X63288Y-49621D01*
X63227Y-49473D01*
X63132Y-49446D01*
X63061Y-49517D01*
X63061Y-49375D01*
X63034Y-49280D01*
X62830Y-49208D01*
X62614Y-49219D01*
X62465Y-49280D01*
X62438Y-49375D01*
X62750Y-49687D01*
X63061Y-49375D01*
X63061Y-49517D01*
X62820Y-49757D01*
X62826Y-49763D01*
X62755Y-49834D01*
X62750Y-49828D01*
X62744Y-49834D01*
X62673Y-49763D01*
X62679Y-49757D01*
X62367Y-49446D01*
X62272Y-49473D01*
X62200Y-49677D01*
X62202Y-49721D01*
X62141Y-49700D01*
X61925Y-49711D01*
X61776Y-49772D01*
X61749Y-49867D01*
X62061Y-50179D01*
X62066Y-50173D01*
X62137Y-50244D01*
X62131Y-50250D01*
X62137Y-50255D01*
X62066Y-50326D01*
X62061Y-50320D01*
X61990Y-50391D01*
X61990Y-50250D01*
X61678Y-49938D01*
X61583Y-49965D01*
X61511Y-50169D01*
X61522Y-50385D01*
X61583Y-50534D01*
X61678Y-50561D01*
X61990Y-50250D01*
X61990Y-50391D01*
X61749Y-50632D01*
X61776Y-50727D01*
X61980Y-50799D01*
X62196Y-50788D01*
X62204Y-50785D01*
X62204Y-50850D01*
X62287Y-51050D01*
X62440Y-51203D01*
X62641Y-51287D01*
X62857Y-51287D01*
X63058Y-51204D01*
X63211Y-51051D01*
X63294Y-50851D01*
X63294Y-50780D01*
X63330Y-50794D01*
X63546Y-50795D01*
X63747Y-50712D01*
X63900Y-50559D01*
X63983Y-50358D01*
X63984Y-50142D01*
X63984Y-67700D01*
X63799Y-67700D01*
X63799Y-63330D01*
X63795Y-63238D01*
X63795Y-61142D01*
X63712Y-60941D01*
X63559Y-60788D01*
X63528Y-60775D01*
X63528Y-53134D01*
X63528Y-52865D01*
X63468Y-52721D01*
X63326Y-52563D01*
X63134Y-52471D01*
X63050Y-52519D01*
X63050Y-52950D01*
X63479Y-52950D01*
X63528Y-52865D01*
X63528Y-53134D01*
X63479Y-53050D01*
X63050Y-53050D01*
X63050Y-53480D01*
X63134Y-53528D01*
X63326Y-53436D01*
X63468Y-53278D01*
X63528Y-53134D01*
X63528Y-60775D01*
X63358Y-60705D01*
X63305Y-60705D01*
X63305Y-57250D01*
X63264Y-57041D01*
X63146Y-56864D01*
X62969Y-56746D01*
X62950Y-56742D01*
X62950Y-53480D01*
X62950Y-53050D01*
X62942Y-53050D01*
X62942Y-52950D01*
X62950Y-52950D01*
X62950Y-52519D01*
X62865Y-52471D01*
X62673Y-52563D01*
X62545Y-52706D01*
X62545Y-52655D01*
X62507Y-52563D01*
X62436Y-52493D01*
X62344Y-52455D01*
X62245Y-52454D01*
X61655Y-52454D01*
X61563Y-52492D01*
X61493Y-52563D01*
X61455Y-52655D01*
X61454Y-52754D01*
X61454Y-53344D01*
X61492Y-53436D01*
X61563Y-53506D01*
X61655Y-53544D01*
X61754Y-53545D01*
X62344Y-53545D01*
X62436Y-53507D01*
X62506Y-53436D01*
X62544Y-53344D01*
X62545Y-53293D01*
X62673Y-53436D01*
X62865Y-53528D01*
X62950Y-53480D01*
X62950Y-56742D01*
X62845Y-56721D01*
X62845Y-55295D01*
X62845Y-54605D01*
X62807Y-54513D01*
X62736Y-54443D01*
X62644Y-54405D01*
X62545Y-54404D01*
X61855Y-54404D01*
X61763Y-54442D01*
X61693Y-54513D01*
X61662Y-54586D01*
X61558Y-54490D01*
X61392Y-54422D01*
X61300Y-54469D01*
X61300Y-54950D01*
X61307Y-54950D01*
X61307Y-55050D01*
X61300Y-55050D01*
X61300Y-55530D01*
X61392Y-55577D01*
X61558Y-55509D01*
X61662Y-55413D01*
X61692Y-55486D01*
X61763Y-55556D01*
X61855Y-55594D01*
X61954Y-55595D01*
X62644Y-55595D01*
X62736Y-55557D01*
X62806Y-55486D01*
X62844Y-55394D01*
X62845Y-55295D01*
X62845Y-56721D01*
X62760Y-56705D01*
X62739Y-56705D01*
X62530Y-56746D01*
X62353Y-56864D01*
X62235Y-57041D01*
X62194Y-57250D01*
X62235Y-57458D01*
X62353Y-57635D01*
X62530Y-57753D01*
X62739Y-57795D01*
X62760Y-57795D01*
X62969Y-57753D01*
X63146Y-57635D01*
X63264Y-57458D01*
X63305Y-57250D01*
X63305Y-60705D01*
X63142Y-60704D01*
X62941Y-60787D01*
X62845Y-60884D01*
X62845Y-59761D01*
X62845Y-59738D01*
X62799Y-59510D01*
X62670Y-59317D01*
X62477Y-59188D01*
X62250Y-59143D01*
X62022Y-59188D01*
X61829Y-59317D01*
X61750Y-59436D01*
X61670Y-59317D01*
X61477Y-59188D01*
X61250Y-59143D01*
X61200Y-59153D01*
X61200Y-55530D01*
X61200Y-55050D01*
X61192Y-55050D01*
X61192Y-54950D01*
X61200Y-54950D01*
X61200Y-54469D01*
X61107Y-54422D01*
X60941Y-54490D01*
X60770Y-54647D01*
X60751Y-54688D01*
X60670Y-54567D01*
X60595Y-54517D01*
X60595Y-50295D01*
X60595Y-49605D01*
X60557Y-49513D01*
X60486Y-49443D01*
X60394Y-49405D01*
X60295Y-49404D01*
X59605Y-49404D01*
X59513Y-49442D01*
X59443Y-49513D01*
X59421Y-49565D01*
X59392Y-49536D01*
X59347Y-49581D01*
X59314Y-49481D01*
X59092Y-49400D01*
X58856Y-49410D01*
X58685Y-49481D01*
X58652Y-49581D01*
X59000Y-49929D01*
X59005Y-49923D01*
X59076Y-49994D01*
X59070Y-50000D01*
X59076Y-50005D01*
X59005Y-50076D01*
X59000Y-50070D01*
X58929Y-50141D01*
X58929Y-50000D01*
X58581Y-49652D01*
X58500Y-49678D01*
X58418Y-49652D01*
X58347Y-49722D01*
X58347Y-49581D01*
X58314Y-49481D01*
X58092Y-49400D01*
X57856Y-49410D01*
X57685Y-49481D01*
X57652Y-49581D01*
X58000Y-49929D01*
X58347Y-49581D01*
X58347Y-49722D01*
X58070Y-50000D01*
X58418Y-50347D01*
X58500Y-50321D01*
X58581Y-50347D01*
X58929Y-50000D01*
X58929Y-50141D01*
X58652Y-50418D01*
X58685Y-50518D01*
X58907Y-50599D01*
X59143Y-50589D01*
X59314Y-50518D01*
X59347Y-50418D01*
X59347Y-50418D01*
X59392Y-50463D01*
X59421Y-50434D01*
X59442Y-50486D01*
X59513Y-50556D01*
X59605Y-50594D01*
X59704Y-50595D01*
X60394Y-50595D01*
X60486Y-50557D01*
X60556Y-50486D01*
X60594Y-50394D01*
X60595Y-50295D01*
X60595Y-54517D01*
X60477Y-54438D01*
X60250Y-54393D01*
X60022Y-54438D01*
X59829Y-54567D01*
X59700Y-54760D01*
X59655Y-54988D01*
X59655Y-55011D01*
X59700Y-55239D01*
X59829Y-55432D01*
X60022Y-55561D01*
X60250Y-55606D01*
X60477Y-55561D01*
X60670Y-55432D01*
X60751Y-55311D01*
X60770Y-55352D01*
X60941Y-55509D01*
X61107Y-55577D01*
X61200Y-55530D01*
X61200Y-59153D01*
X61022Y-59188D01*
X60829Y-59317D01*
X60807Y-59263D01*
X60736Y-59193D01*
X60644Y-59155D01*
X60545Y-59154D01*
X60295Y-59154D01*
X60295Y-57495D01*
X60295Y-56905D01*
X60257Y-56813D01*
X60186Y-56743D01*
X60094Y-56705D01*
X59995Y-56704D01*
X59405Y-56704D01*
X59347Y-56728D01*
X59313Y-56742D01*
X59243Y-56813D01*
X59205Y-56905D01*
X59204Y-57004D01*
X59204Y-57594D01*
X59242Y-57686D01*
X59313Y-57756D01*
X59405Y-57794D01*
X59504Y-57795D01*
X60094Y-57795D01*
X60186Y-57757D01*
X60256Y-57686D01*
X60294Y-57594D01*
X60295Y-57495D01*
X60295Y-59154D01*
X59855Y-59154D01*
X59763Y-59192D01*
X59693Y-59263D01*
X59655Y-59355D01*
X59654Y-59454D01*
X59654Y-60144D01*
X59692Y-60236D01*
X59763Y-60306D01*
X59855Y-60344D01*
X59954Y-60345D01*
X60644Y-60345D01*
X60736Y-60307D01*
X60806Y-60236D01*
X60829Y-60182D01*
X61022Y-60311D01*
X61250Y-60356D01*
X61477Y-60311D01*
X61670Y-60182D01*
X61750Y-60063D01*
X61829Y-60182D01*
X62022Y-60311D01*
X62250Y-60356D01*
X62477Y-60311D01*
X62670Y-60182D01*
X62799Y-59989D01*
X62845Y-59761D01*
X62845Y-60884D01*
X62788Y-60940D01*
X62750Y-61032D01*
X62712Y-60941D01*
X62559Y-60788D01*
X62358Y-60705D01*
X62142Y-60704D01*
X61941Y-60787D01*
X61788Y-60940D01*
X61705Y-61141D01*
X61704Y-61357D01*
X61787Y-61558D01*
X61940Y-61711D01*
X62141Y-61794D01*
X62357Y-61795D01*
X62558Y-61712D01*
X62711Y-61559D01*
X62749Y-61467D01*
X62787Y-61558D01*
X62940Y-61711D01*
X63141Y-61794D01*
X63357Y-61795D01*
X63558Y-61712D01*
X63711Y-61559D01*
X63794Y-61358D01*
X63795Y-61142D01*
X63795Y-63238D01*
X63788Y-63114D01*
X63727Y-62965D01*
X63632Y-62938D01*
X63561Y-63009D01*
X63561Y-62867D01*
X63534Y-62772D01*
X63330Y-62700D01*
X63114Y-62711D01*
X62965Y-62772D01*
X62938Y-62867D01*
X63250Y-63179D01*
X63561Y-62867D01*
X63561Y-63009D01*
X63320Y-63250D01*
X63632Y-63561D01*
X63727Y-63534D01*
X63799Y-63330D01*
X63799Y-67700D01*
X63599Y-67700D01*
X63599Y-66592D01*
X63589Y-66356D01*
X63561Y-66289D01*
X63561Y-63632D01*
X63250Y-63320D01*
X63179Y-63391D01*
X63179Y-63250D01*
X62867Y-62938D01*
X62772Y-62965D01*
X62751Y-63024D01*
X62727Y-62965D01*
X62632Y-62938D01*
X62561Y-63009D01*
X62561Y-62867D01*
X62534Y-62772D01*
X62330Y-62700D01*
X62114Y-62711D01*
X61965Y-62772D01*
X61938Y-62867D01*
X62250Y-63179D01*
X62561Y-62867D01*
X62561Y-63009D01*
X62320Y-63250D01*
X62632Y-63561D01*
X62727Y-63534D01*
X62748Y-63475D01*
X62772Y-63534D01*
X62867Y-63561D01*
X63179Y-63250D01*
X63179Y-63391D01*
X62938Y-63632D01*
X62965Y-63727D01*
X63169Y-63799D01*
X63385Y-63788D01*
X63534Y-63727D01*
X63561Y-63632D01*
X63561Y-66289D01*
X63518Y-66185D01*
X63418Y-66152D01*
X63347Y-66222D01*
X63347Y-66081D01*
X63314Y-65981D01*
X63092Y-65900D01*
X62856Y-65910D01*
X62685Y-65981D01*
X62652Y-66081D01*
X63000Y-66429D01*
X63347Y-66081D01*
X63347Y-66222D01*
X63070Y-66500D01*
X63418Y-66847D01*
X63518Y-66814D01*
X63599Y-66592D01*
X63599Y-67700D01*
X63347Y-67700D01*
X63347Y-66918D01*
X63000Y-66570D01*
X62929Y-66641D01*
X62929Y-66500D01*
X62581Y-66152D01*
X62561Y-66158D01*
X62561Y-63632D01*
X62250Y-63320D01*
X62179Y-63391D01*
X62179Y-63250D01*
X61867Y-62938D01*
X61772Y-62965D01*
X61700Y-63169D01*
X61711Y-63385D01*
X61772Y-63534D01*
X61867Y-63561D01*
X62179Y-63250D01*
X62179Y-63391D01*
X61938Y-63632D01*
X61965Y-63727D01*
X62169Y-63799D01*
X62385Y-63788D01*
X62534Y-63727D01*
X62561Y-63632D01*
X62561Y-66158D01*
X62500Y-66178D01*
X62418Y-66152D01*
X62347Y-66222D01*
X62070Y-66500D01*
X62418Y-66847D01*
X62500Y-66821D01*
X62581Y-66847D01*
X62929Y-66500D01*
X62929Y-66641D01*
X62652Y-66918D01*
X62685Y-67018D01*
X62907Y-67099D01*
X63143Y-67089D01*
X63314Y-67018D01*
X63347Y-66918D01*
X63347Y-67700D01*
X62347Y-67700D01*
X62347Y-66918D01*
X62000Y-66570D01*
X61994Y-66576D01*
X61929Y-66511D01*
X61923Y-66505D01*
X61929Y-66500D01*
X61923Y-66494D01*
X61994Y-66423D01*
X62000Y-66429D01*
X62347Y-66081D01*
X62314Y-65981D01*
X62092Y-65900D01*
X61856Y-65910D01*
X61685Y-65981D01*
X61652Y-66081D01*
X61607Y-66036D01*
X61578Y-66065D01*
X61557Y-66013D01*
X61486Y-65943D01*
X61394Y-65905D01*
X61295Y-65904D01*
X60605Y-65904D01*
X60545Y-65929D01*
X60545Y-64245D01*
X60545Y-63655D01*
X60545Y-63655D01*
X60545Y-61010D01*
X60545Y-60989D01*
X60503Y-60780D01*
X60385Y-60603D01*
X60208Y-60485D01*
X60000Y-60444D01*
X59791Y-60485D01*
X59614Y-60603D01*
X59500Y-60775D01*
X59385Y-60603D01*
X59208Y-60485D01*
X59000Y-60444D01*
X58791Y-60485D01*
X58614Y-60603D01*
X58496Y-60780D01*
X58455Y-60989D01*
X58455Y-61010D01*
X58496Y-61219D01*
X58614Y-61396D01*
X58791Y-61514D01*
X59000Y-61555D01*
X59208Y-61514D01*
X59385Y-61396D01*
X59500Y-61224D01*
X59614Y-61396D01*
X59791Y-61514D01*
X60000Y-61555D01*
X60208Y-61514D01*
X60385Y-61396D01*
X60503Y-61219D01*
X60545Y-61010D01*
X60545Y-63655D01*
X60507Y-63563D01*
X60436Y-63493D01*
X60344Y-63455D01*
X60245Y-63454D01*
X59655Y-63454D01*
X59563Y-63492D01*
X59493Y-63563D01*
X59455Y-63655D01*
X59454Y-63754D01*
X59454Y-64344D01*
X59492Y-64436D01*
X59563Y-64506D01*
X59655Y-64544D01*
X59754Y-64545D01*
X60344Y-64545D01*
X60436Y-64507D01*
X60506Y-64436D01*
X60544Y-64344D01*
X60545Y-64245D01*
X60545Y-65929D01*
X60513Y-65942D01*
X60443Y-66013D01*
X60405Y-66105D01*
X60404Y-66204D01*
X60404Y-66894D01*
X60442Y-66986D01*
X60513Y-67056D01*
X60605Y-67094D01*
X60704Y-67095D01*
X61394Y-67095D01*
X61486Y-67057D01*
X61556Y-66986D01*
X61578Y-66934D01*
X61607Y-66963D01*
X61652Y-66918D01*
X61685Y-67018D01*
X61907Y-67099D01*
X62143Y-67089D01*
X62314Y-67018D01*
X62347Y-66918D01*
X62347Y-67700D01*
X59795Y-67700D01*
X59795Y-66745D01*
X59795Y-66155D01*
X59757Y-66063D01*
X59686Y-65993D01*
X59594Y-65955D01*
X59545Y-65955D01*
X59545Y-65010D01*
X59545Y-64989D01*
X59503Y-64780D01*
X59385Y-64603D01*
X59208Y-64485D01*
X59000Y-64444D01*
X58791Y-64485D01*
X58614Y-64603D01*
X58496Y-64780D01*
X58455Y-64989D01*
X58455Y-65010D01*
X58496Y-65219D01*
X58614Y-65396D01*
X58791Y-65514D01*
X59000Y-65555D01*
X59208Y-65514D01*
X59385Y-65396D01*
X59503Y-65219D01*
X59545Y-65010D01*
X59545Y-65955D01*
X59495Y-65954D01*
X58905Y-65954D01*
X58813Y-65992D01*
X58743Y-66063D01*
X58705Y-66155D01*
X58704Y-66206D01*
X58576Y-66063D01*
X58384Y-65971D01*
X58347Y-65992D01*
X58347Y-50418D01*
X58000Y-50070D01*
X57929Y-50141D01*
X57929Y-50000D01*
X57581Y-49652D01*
X57481Y-49685D01*
X57400Y-49907D01*
X57410Y-50143D01*
X57481Y-50314D01*
X57581Y-50347D01*
X57929Y-50000D01*
X57929Y-50141D01*
X57652Y-50418D01*
X57685Y-50518D01*
X57907Y-50599D01*
X58143Y-50589D01*
X58314Y-50518D01*
X58347Y-50418D01*
X58347Y-65992D01*
X58300Y-66019D01*
X58300Y-66450D01*
X58307Y-66450D01*
X58307Y-66550D01*
X58300Y-66550D01*
X58300Y-66980D01*
X58384Y-67028D01*
X58576Y-66936D01*
X58704Y-66793D01*
X58704Y-66844D01*
X58742Y-66936D01*
X58813Y-67006D01*
X58905Y-67044D01*
X59004Y-67045D01*
X59594Y-67045D01*
X59686Y-67007D01*
X59756Y-66936D01*
X59794Y-66844D01*
X59795Y-66745D01*
X59795Y-67700D01*
X58200Y-67700D01*
X58200Y-66980D01*
X58200Y-66550D01*
X58200Y-66450D01*
X58200Y-66019D01*
X58115Y-65971D01*
X57923Y-66063D01*
X57781Y-66221D01*
X57721Y-66365D01*
X57770Y-66450D01*
X58200Y-66450D01*
X58200Y-66550D01*
X57770Y-66550D01*
X57721Y-66634D01*
X57781Y-66778D01*
X57923Y-66936D01*
X58115Y-67028D01*
X58200Y-66980D01*
X58200Y-67700D01*
X57549Y-67700D01*
X57549Y-64830D01*
X57538Y-64614D01*
X57477Y-64465D01*
X57382Y-64438D01*
X57311Y-64509D01*
X57311Y-64367D01*
X57300Y-64327D01*
X57300Y-58042D01*
X57140Y-57656D01*
X56845Y-57360D01*
X56799Y-57341D01*
X56799Y-49830D01*
X56788Y-49614D01*
X56727Y-49465D01*
X56632Y-49438D01*
X56561Y-49509D01*
X56561Y-49367D01*
X56534Y-49272D01*
X56330Y-49200D01*
X56114Y-49211D01*
X55965Y-49272D01*
X55938Y-49367D01*
X56250Y-49679D01*
X56561Y-49367D01*
X56561Y-49509D01*
X56320Y-49750D01*
X56632Y-50061D01*
X56727Y-50034D01*
X56799Y-49830D01*
X56799Y-57341D01*
X56795Y-57339D01*
X56795Y-51642D01*
X56712Y-51441D01*
X56561Y-51290D01*
X56561Y-50132D01*
X56250Y-49820D01*
X56179Y-49891D01*
X56179Y-49750D01*
X55867Y-49438D01*
X55772Y-49465D01*
X55700Y-49669D01*
X55711Y-49885D01*
X55772Y-50034D01*
X55867Y-50061D01*
X56179Y-49750D01*
X56179Y-49891D01*
X55938Y-50132D01*
X55965Y-50227D01*
X56169Y-50299D01*
X56385Y-50288D01*
X56534Y-50227D01*
X56561Y-50132D01*
X56561Y-51290D01*
X56559Y-51288D01*
X56358Y-51205D01*
X56142Y-51204D01*
X55941Y-51287D01*
X55788Y-51440D01*
X55705Y-51641D01*
X55704Y-51857D01*
X55787Y-52058D01*
X55940Y-52211D01*
X56141Y-52294D01*
X56357Y-52295D01*
X56558Y-52212D01*
X56711Y-52059D01*
X56794Y-51858D01*
X56795Y-51642D01*
X56795Y-57339D01*
X56459Y-57200D01*
X56042Y-57199D01*
X55656Y-57359D01*
X55555Y-57459D01*
X55555Y-52250D01*
X55514Y-52041D01*
X55396Y-51864D01*
X55219Y-51746D01*
X55010Y-51705D01*
X54989Y-51705D01*
X54780Y-51746D01*
X54603Y-51864D01*
X54500Y-52020D01*
X54396Y-51864D01*
X54219Y-51746D01*
X54010Y-51705D01*
X53989Y-51705D01*
X53780Y-51746D01*
X53603Y-51864D01*
X53500Y-52020D01*
X53396Y-51864D01*
X53219Y-51746D01*
X53010Y-51705D01*
X52989Y-51705D01*
X52780Y-51746D01*
X52603Y-51864D01*
X52500Y-52020D01*
X52396Y-51864D01*
X52219Y-51746D01*
X52010Y-51705D01*
X51989Y-51705D01*
X51950Y-51712D01*
X51950Y-49730D01*
X51950Y-49300D01*
X51520Y-49300D01*
X51471Y-49384D01*
X51531Y-49528D01*
X51673Y-49686D01*
X51865Y-49778D01*
X51950Y-49730D01*
X51950Y-51712D01*
X51780Y-51746D01*
X51603Y-51864D01*
X51485Y-52041D01*
X51444Y-52250D01*
X51485Y-52458D01*
X51603Y-52635D01*
X51780Y-52753D01*
X51989Y-52795D01*
X52010Y-52795D01*
X52219Y-52753D01*
X52396Y-52635D01*
X52500Y-52479D01*
X52603Y-52635D01*
X52780Y-52753D01*
X52989Y-52795D01*
X53010Y-52795D01*
X53219Y-52753D01*
X53396Y-52635D01*
X53500Y-52479D01*
X53603Y-52635D01*
X53780Y-52753D01*
X53989Y-52795D01*
X54010Y-52795D01*
X54219Y-52753D01*
X54396Y-52635D01*
X54500Y-52479D01*
X54603Y-52635D01*
X54780Y-52753D01*
X54989Y-52795D01*
X55010Y-52795D01*
X55219Y-52753D01*
X55396Y-52635D01*
X55514Y-52458D01*
X55555Y-52250D01*
X55555Y-57459D01*
X55360Y-57654D01*
X55200Y-58040D01*
X55199Y-58457D01*
X55359Y-58844D01*
X55654Y-59139D01*
X56040Y-59299D01*
X56457Y-59300D01*
X56844Y-59140D01*
X57139Y-58845D01*
X57299Y-58459D01*
X57300Y-58042D01*
X57300Y-64327D01*
X57284Y-64272D01*
X57080Y-64200D01*
X56864Y-64211D01*
X56715Y-64272D01*
X56688Y-64367D01*
X57000Y-64679D01*
X57311Y-64367D01*
X57311Y-64509D01*
X57070Y-64750D01*
X57382Y-65061D01*
X57477Y-65034D01*
X57549Y-64830D01*
X57549Y-67700D01*
X57545Y-67700D01*
X57545Y-66642D01*
X57462Y-66441D01*
X57311Y-66290D01*
X57311Y-65132D01*
X57000Y-64820D01*
X56929Y-64891D01*
X56929Y-64750D01*
X56617Y-64438D01*
X56522Y-64465D01*
X56450Y-64669D01*
X56461Y-64885D01*
X56522Y-65034D01*
X56617Y-65061D01*
X56929Y-64750D01*
X56929Y-64891D01*
X56688Y-65132D01*
X56715Y-65227D01*
X56919Y-65299D01*
X57135Y-65288D01*
X57284Y-65227D01*
X57311Y-65132D01*
X57311Y-66290D01*
X57309Y-66288D01*
X57108Y-66205D01*
X56892Y-66204D01*
X56691Y-66287D01*
X56538Y-66440D01*
X56455Y-66641D01*
X56454Y-66857D01*
X56537Y-67058D01*
X56690Y-67211D01*
X56891Y-67294D01*
X57107Y-67295D01*
X57308Y-67212D01*
X57461Y-67059D01*
X57544Y-66858D01*
X57545Y-66642D01*
X57545Y-67700D01*
X56049Y-67700D01*
X56146Y-67635D01*
X56264Y-67458D01*
X56305Y-67250D01*
X56295Y-67196D01*
X56295Y-64495D01*
X56295Y-63905D01*
X56257Y-63813D01*
X56186Y-63743D01*
X56094Y-63705D01*
X55995Y-63704D01*
X55405Y-63704D01*
X55313Y-63742D01*
X55243Y-63813D01*
X55205Y-63905D01*
X55205Y-63952D01*
X55146Y-63864D01*
X54969Y-63746D01*
X54760Y-63705D01*
X54739Y-63705D01*
X54530Y-63746D01*
X54353Y-63864D01*
X54250Y-64020D01*
X54146Y-63864D01*
X53969Y-63746D01*
X53760Y-63705D01*
X53739Y-63705D01*
X53530Y-63746D01*
X53353Y-63864D01*
X53250Y-64020D01*
X53146Y-63864D01*
X52969Y-63746D01*
X52760Y-63705D01*
X52739Y-63705D01*
X52530Y-63746D01*
X52353Y-63864D01*
X52295Y-63952D01*
X52295Y-58245D01*
X52295Y-57655D01*
X52257Y-57563D01*
X52186Y-57493D01*
X52094Y-57455D01*
X52047Y-57455D01*
X52135Y-57396D01*
X52253Y-57219D01*
X52295Y-57010D01*
X52295Y-56989D01*
X52253Y-56780D01*
X52135Y-56603D01*
X51979Y-56500D01*
X52135Y-56396D01*
X52253Y-56219D01*
X52295Y-56010D01*
X52295Y-55989D01*
X52253Y-55780D01*
X52135Y-55603D01*
X51979Y-55500D01*
X52135Y-55396D01*
X52253Y-55219D01*
X52295Y-55010D01*
X52295Y-54989D01*
X52253Y-54780D01*
X52135Y-54603D01*
X51958Y-54485D01*
X51750Y-54444D01*
X51541Y-54485D01*
X51364Y-54603D01*
X51300Y-54700D01*
X51300Y-53500D01*
X51300Y-52900D01*
X51262Y-52808D01*
X51191Y-52738D01*
X51099Y-52700D01*
X51000Y-52699D01*
X50400Y-52699D01*
X50308Y-52737D01*
X50238Y-52808D01*
X50200Y-52900D01*
X50200Y-52922D01*
X50061Y-52784D01*
X49859Y-52700D01*
X49641Y-52699D01*
X49438Y-52783D01*
X49284Y-52938D01*
X49252Y-53013D01*
X49231Y-52962D01*
X49135Y-52934D01*
X49065Y-53005D01*
X49065Y-52864D01*
X49037Y-52768D01*
X48831Y-52695D01*
X48613Y-52706D01*
X48462Y-52768D01*
X48434Y-52864D01*
X48750Y-53179D01*
X49065Y-52864D01*
X49065Y-53005D01*
X48820Y-53250D01*
X49135Y-53565D01*
X49231Y-53537D01*
X49250Y-53482D01*
X49283Y-53561D01*
X49438Y-53715D01*
X49640Y-53799D01*
X49858Y-53800D01*
X50061Y-53716D01*
X50199Y-53577D01*
X50199Y-53599D01*
X50237Y-53691D01*
X50308Y-53761D01*
X50400Y-53799D01*
X50499Y-53800D01*
X51099Y-53800D01*
X51191Y-53762D01*
X51261Y-53691D01*
X51299Y-53599D01*
X51300Y-53500D01*
X51300Y-54700D01*
X51246Y-54780D01*
X51205Y-54989D01*
X51205Y-55010D01*
X51246Y-55219D01*
X51364Y-55396D01*
X51520Y-55500D01*
X51364Y-55603D01*
X51246Y-55780D01*
X51205Y-55989D01*
X51205Y-56010D01*
X51246Y-56219D01*
X51364Y-56396D01*
X51520Y-56500D01*
X51364Y-56603D01*
X51246Y-56780D01*
X51205Y-56989D01*
X51205Y-57010D01*
X51246Y-57219D01*
X51364Y-57396D01*
X51452Y-57454D01*
X51405Y-57454D01*
X51313Y-57492D01*
X51243Y-57563D01*
X51205Y-57655D01*
X51204Y-57754D01*
X51204Y-58344D01*
X51242Y-58436D01*
X51313Y-58506D01*
X51405Y-58544D01*
X51504Y-58545D01*
X52094Y-58545D01*
X52186Y-58507D01*
X52256Y-58436D01*
X52294Y-58344D01*
X52295Y-58245D01*
X52295Y-63952D01*
X52295Y-63952D01*
X52295Y-60260D01*
X52295Y-60239D01*
X52253Y-60030D01*
X52135Y-59853D01*
X51958Y-59735D01*
X51795Y-59703D01*
X51795Y-59142D01*
X51712Y-58941D01*
X51559Y-58788D01*
X51358Y-58705D01*
X51142Y-58704D01*
X50941Y-58787D01*
X50788Y-58940D01*
X50705Y-59141D01*
X50704Y-59357D01*
X50787Y-59558D01*
X50940Y-59711D01*
X51141Y-59794D01*
X51357Y-59795D01*
X51558Y-59712D01*
X51711Y-59559D01*
X51794Y-59358D01*
X51795Y-59142D01*
X51795Y-59703D01*
X51750Y-59694D01*
X51541Y-59735D01*
X51364Y-59853D01*
X51246Y-60030D01*
X51243Y-60043D01*
X51186Y-59923D01*
X51028Y-59781D01*
X50884Y-59721D01*
X50800Y-59770D01*
X50800Y-60200D01*
X50807Y-60200D01*
X50807Y-60300D01*
X50800Y-60300D01*
X50800Y-60729D01*
X50884Y-60778D01*
X51028Y-60718D01*
X51186Y-60576D01*
X51243Y-60456D01*
X51246Y-60469D01*
X51364Y-60646D01*
X51541Y-60764D01*
X51750Y-60805D01*
X51958Y-60764D01*
X52135Y-60646D01*
X52253Y-60469D01*
X52295Y-60260D01*
X52295Y-63952D01*
X52248Y-64022D01*
X52135Y-63853D01*
X51958Y-63735D01*
X51750Y-63694D01*
X51541Y-63735D01*
X51364Y-63853D01*
X51250Y-64025D01*
X51135Y-63853D01*
X50958Y-63735D01*
X50750Y-63694D01*
X50700Y-63704D01*
X50700Y-60729D01*
X50700Y-60300D01*
X50692Y-60300D01*
X50692Y-60200D01*
X50700Y-60200D01*
X50700Y-59770D01*
X50615Y-59721D01*
X50471Y-59781D01*
X50313Y-59923D01*
X50256Y-60043D01*
X50253Y-60030D01*
X50135Y-59853D01*
X49958Y-59735D01*
X49799Y-59704D01*
X49799Y-59330D01*
X49788Y-59114D01*
X49727Y-58965D01*
X49632Y-58938D01*
X49561Y-59009D01*
X49561Y-58867D01*
X49534Y-58772D01*
X49330Y-58700D01*
X49114Y-58711D01*
X48965Y-58772D01*
X48938Y-58867D01*
X49250Y-59179D01*
X49561Y-58867D01*
X49561Y-59009D01*
X49320Y-59250D01*
X49632Y-59561D01*
X49727Y-59534D01*
X49799Y-59330D01*
X49799Y-59704D01*
X49750Y-59694D01*
X49561Y-59731D01*
X49561Y-59632D01*
X49250Y-59320D01*
X49179Y-59391D01*
X49179Y-59250D01*
X48867Y-58938D01*
X48772Y-58965D01*
X48700Y-59169D01*
X48711Y-59385D01*
X48772Y-59534D01*
X48867Y-59561D01*
X49179Y-59250D01*
X49179Y-59391D01*
X48938Y-59632D01*
X48965Y-59727D01*
X49169Y-59799D01*
X49385Y-59788D01*
X49534Y-59727D01*
X49561Y-59632D01*
X49561Y-59731D01*
X49541Y-59735D01*
X49364Y-59853D01*
X49246Y-60030D01*
X49205Y-60239D01*
X49205Y-60260D01*
X49246Y-60469D01*
X49364Y-60646D01*
X49541Y-60764D01*
X49750Y-60805D01*
X49958Y-60764D01*
X50135Y-60646D01*
X50253Y-60469D01*
X50256Y-60456D01*
X50313Y-60576D01*
X50471Y-60718D01*
X50615Y-60778D01*
X50700Y-60729D01*
X50700Y-63704D01*
X50541Y-63735D01*
X50364Y-63853D01*
X50250Y-64025D01*
X50135Y-63853D01*
X49958Y-63735D01*
X49750Y-63694D01*
X49541Y-63735D01*
X49364Y-63853D01*
X49246Y-64030D01*
X49205Y-64239D01*
X49205Y-64260D01*
X49246Y-64469D01*
X49364Y-64646D01*
X49541Y-64764D01*
X49750Y-64805D01*
X49958Y-64764D01*
X50135Y-64646D01*
X50250Y-64474D01*
X50364Y-64646D01*
X50541Y-64764D01*
X50750Y-64805D01*
X50958Y-64764D01*
X51135Y-64646D01*
X51250Y-64474D01*
X51364Y-64646D01*
X51452Y-64704D01*
X51392Y-64704D01*
X51191Y-64787D01*
X51038Y-64940D01*
X50955Y-65141D01*
X50954Y-65357D01*
X51037Y-65558D01*
X51190Y-65711D01*
X51391Y-65794D01*
X51607Y-65795D01*
X51808Y-65712D01*
X51961Y-65559D01*
X52044Y-65358D01*
X52045Y-65142D01*
X51962Y-64941D01*
X51813Y-64792D01*
X51958Y-64764D01*
X52135Y-64646D01*
X52248Y-64477D01*
X52353Y-64635D01*
X52530Y-64753D01*
X52739Y-64795D01*
X52760Y-64795D01*
X52969Y-64753D01*
X53146Y-64635D01*
X53250Y-64479D01*
X53353Y-64635D01*
X53530Y-64753D01*
X53739Y-64795D01*
X53760Y-64795D01*
X53969Y-64753D01*
X54146Y-64635D01*
X54250Y-64479D01*
X54353Y-64635D01*
X54530Y-64753D01*
X54739Y-64795D01*
X54760Y-64795D01*
X54969Y-64753D01*
X55146Y-64635D01*
X55204Y-64547D01*
X55204Y-64594D01*
X55242Y-64686D01*
X55313Y-64756D01*
X55405Y-64794D01*
X55504Y-64795D01*
X56094Y-64795D01*
X56186Y-64757D01*
X56256Y-64686D01*
X56294Y-64594D01*
X56295Y-64495D01*
X56295Y-67196D01*
X56264Y-67041D01*
X56146Y-66864D01*
X55969Y-66746D01*
X55760Y-66705D01*
X55739Y-66705D01*
X55530Y-66746D01*
X55353Y-66864D01*
X55250Y-67020D01*
X55146Y-66864D01*
X54969Y-66746D01*
X54760Y-66705D01*
X54739Y-66705D01*
X54530Y-66746D01*
X54353Y-66864D01*
X54250Y-67020D01*
X54146Y-66864D01*
X53969Y-66746D01*
X53760Y-66705D01*
X53739Y-66705D01*
X53530Y-66746D01*
X53353Y-66864D01*
X53250Y-67020D01*
X53146Y-66864D01*
X52969Y-66746D01*
X52760Y-66705D01*
X52739Y-66705D01*
X52530Y-66746D01*
X52353Y-66864D01*
X52235Y-67041D01*
X52194Y-67250D01*
X52235Y-67458D01*
X52353Y-67635D01*
X52450Y-67700D01*
X52049Y-67700D01*
X52049Y-67330D01*
X52038Y-67114D01*
X51977Y-66965D01*
X51882Y-66938D01*
X51811Y-67009D01*
X51811Y-66867D01*
X51784Y-66772D01*
X51580Y-66700D01*
X51364Y-66711D01*
X51215Y-66772D01*
X51188Y-66867D01*
X51500Y-67179D01*
X51811Y-66867D01*
X51811Y-67009D01*
X51570Y-67250D01*
X51882Y-67561D01*
X51977Y-67534D01*
X52049Y-67330D01*
X52049Y-67700D01*
X51792Y-67700D01*
X51811Y-67632D01*
X51500Y-67320D01*
X51429Y-67391D01*
X51429Y-67250D01*
X51117Y-66938D01*
X51022Y-66965D01*
X50950Y-67169D01*
X50961Y-67385D01*
X51022Y-67534D01*
X51117Y-67561D01*
X51429Y-67250D01*
X51429Y-67391D01*
X51188Y-67632D01*
X51207Y-67700D01*
X50323Y-67700D01*
X50462Y-67561D01*
X50680Y-67035D01*
X50681Y-66466D01*
X50463Y-65940D01*
X50061Y-65537D01*
X49535Y-65319D01*
X48966Y-65318D01*
X48440Y-65536D01*
X48300Y-65676D01*
X48300Y-63262D01*
X48390Y-63299D01*
X48608Y-63300D01*
X48811Y-63216D01*
X48965Y-63061D01*
X49049Y-62859D01*
X49050Y-62641D01*
X48966Y-62438D01*
X48827Y-62299D01*
X48849Y-62299D01*
X48941Y-62261D01*
X49012Y-62191D01*
X49050Y-62099D01*
X49050Y-61400D01*
X49012Y-61308D01*
X48941Y-61238D01*
X48849Y-61200D01*
X48750Y-61199D01*
X48612Y-61200D01*
X48550Y-61262D01*
X48550Y-61700D01*
X48987Y-61700D01*
X49050Y-61637D01*
X49050Y-61400D01*
X49050Y-62099D01*
X49050Y-61862D01*
X48987Y-61800D01*
X48550Y-61800D01*
X48550Y-61807D01*
X48450Y-61807D01*
X48450Y-61800D01*
X48442Y-61800D01*
X48442Y-61700D01*
X48450Y-61700D01*
X48450Y-61262D01*
X48387Y-61200D01*
X48300Y-61199D01*
X48300Y-58299D01*
X48364Y-58396D01*
X48541Y-58514D01*
X48750Y-58555D01*
X48958Y-58514D01*
X49135Y-58396D01*
X49253Y-58219D01*
X49295Y-58010D01*
X49295Y-57989D01*
X49253Y-57780D01*
X49135Y-57603D01*
X48969Y-57492D01*
X49028Y-57468D01*
X49186Y-57326D01*
X49278Y-57134D01*
X49230Y-57050D01*
X48800Y-57050D01*
X48800Y-57057D01*
X48700Y-57057D01*
X48700Y-57050D01*
X48692Y-57050D01*
X48692Y-56950D01*
X48700Y-56950D01*
X48700Y-56942D01*
X48800Y-56942D01*
X48800Y-56950D01*
X49230Y-56950D01*
X49278Y-56865D01*
X49186Y-56673D01*
X49028Y-56531D01*
X48969Y-56507D01*
X49135Y-56396D01*
X49253Y-56219D01*
X49295Y-56010D01*
X49295Y-55989D01*
X49253Y-55780D01*
X49135Y-55603D01*
X48969Y-55492D01*
X49028Y-55468D01*
X49186Y-55326D01*
X49278Y-55134D01*
X49278Y-54865D01*
X49186Y-54673D01*
X49065Y-54564D01*
X49065Y-53635D01*
X48750Y-53320D01*
X48434Y-53635D01*
X48462Y-53731D01*
X48668Y-53804D01*
X48886Y-53793D01*
X49037Y-53731D01*
X49065Y-53635D01*
X49065Y-54564D01*
X49028Y-54531D01*
X48884Y-54471D01*
X48800Y-54520D01*
X48800Y-54950D01*
X49230Y-54950D01*
X49278Y-54865D01*
X49278Y-55134D01*
X49230Y-55050D01*
X48800Y-55050D01*
X48800Y-55057D01*
X48700Y-55057D01*
X48700Y-55050D01*
X48692Y-55050D01*
X48692Y-54950D01*
X48700Y-54950D01*
X48700Y-54520D01*
X48615Y-54471D01*
X48471Y-54531D01*
X48313Y-54673D01*
X48300Y-54701D01*
X48300Y-53546D01*
X48364Y-53565D01*
X48679Y-53250D01*
X48364Y-52934D01*
X48300Y-52953D01*
X48300Y-50823D01*
X48438Y-50962D01*
X48964Y-51180D01*
X49533Y-51181D01*
X50059Y-50963D01*
X50462Y-50561D01*
X50680Y-50035D01*
X50681Y-49466D01*
X50463Y-48940D01*
X50323Y-48800D01*
X51701Y-48800D01*
X51673Y-48813D01*
X51531Y-48971D01*
X51471Y-49115D01*
X51520Y-49200D01*
X51950Y-49200D01*
X51950Y-49192D01*
X52050Y-49192D01*
X52050Y-49200D01*
X52057Y-49200D01*
X52057Y-49300D01*
X52050Y-49300D01*
X52050Y-49730D01*
X52134Y-49778D01*
X52326Y-49686D01*
X52468Y-49528D01*
X52492Y-49469D01*
X52603Y-49635D01*
X52780Y-49753D01*
X52989Y-49795D01*
X53010Y-49795D01*
X53219Y-49753D01*
X53396Y-49635D01*
X53500Y-49479D01*
X53603Y-49635D01*
X53780Y-49753D01*
X53989Y-49795D01*
X54010Y-49795D01*
X54219Y-49753D01*
X54396Y-49635D01*
X54454Y-49547D01*
X54454Y-49594D01*
X54492Y-49686D01*
X54563Y-49756D01*
X54655Y-49794D01*
X54754Y-49795D01*
X55344Y-49795D01*
X55436Y-49757D01*
X55506Y-49686D01*
X55544Y-49594D01*
X55545Y-49495D01*
X55545Y-48905D01*
X55507Y-48813D01*
X55493Y-48800D01*
X65176Y-48800D01*
X65037Y-48938D01*
X64819Y-49464D01*
X64818Y-50033D01*
X65036Y-50559D01*
X65438Y-50962D01*
X65964Y-51180D01*
X66533Y-51181D01*
X67059Y-50963D01*
X67200Y-50823D01*
X67200Y-57799D01*
X67140Y-57656D01*
X66845Y-57360D01*
X66459Y-57200D01*
X66042Y-57199D01*
X65656Y-57359D01*
X65360Y-57654D01*
X65200Y-58040D01*
X65199Y-58457D01*
X65359Y-58844D01*
X65654Y-59139D01*
X66040Y-59299D01*
X66457Y-59300D01*
X66844Y-59140D01*
X67139Y-58845D01*
X67200Y-58700D01*
X67200Y-65676D01*
M02*
