G04 (created by PCBNEW (2013-07-07 BZR 4022)-stable) date 4/8/2015 6:02:03 PM*
%MOIN*%
G04 Gerber Fmt 3.4, Leading zero omitted, Abs format*
%FSLAX34Y34*%
G01*
G70*
G90*
G04 APERTURE LIST*
%ADD10C,0.00590551*%
%ADD11C,0.005*%
%ADD12C,0.008*%
%ADD13C,0.006*%
%ADD14C,0.01*%
%ADD15C,0.0001*%
%ADD16C,0.012*%
G04 APERTURE END LIST*
G54D10*
G54D11*
X48648Y-59940D02*
X48898Y-59940D01*
X48648Y-60083D01*
X48898Y-60083D01*
X48779Y-60202D02*
X48779Y-60285D01*
X48648Y-60321D02*
X48648Y-60202D01*
X48898Y-60202D01*
X48898Y-60321D01*
X48886Y-60559D02*
X48898Y-60535D01*
X48898Y-60500D01*
X48886Y-60464D01*
X48863Y-60440D01*
X48839Y-60428D01*
X48791Y-60416D01*
X48755Y-60416D01*
X48708Y-60428D01*
X48684Y-60440D01*
X48660Y-60464D01*
X48648Y-60500D01*
X48648Y-60523D01*
X48660Y-60559D01*
X48672Y-60571D01*
X48755Y-60571D01*
X48755Y-60523D01*
X48248Y-60059D02*
X48367Y-59976D01*
X48248Y-59916D02*
X48498Y-59916D01*
X48498Y-60011D01*
X48486Y-60035D01*
X48475Y-60047D01*
X48451Y-60059D01*
X48415Y-60059D01*
X48391Y-60047D01*
X48379Y-60035D01*
X48367Y-60011D01*
X48367Y-59916D01*
X48320Y-60154D02*
X48320Y-60273D01*
X48248Y-60130D02*
X48498Y-60214D01*
X48248Y-60297D01*
X48248Y-60380D02*
X48498Y-60380D01*
X48248Y-60619D02*
X48248Y-60500D01*
X48498Y-60500D01*
G54D12*
X48509Y-63652D02*
X48509Y-63347D01*
X48509Y-61152D02*
X48509Y-60847D01*
X48661Y-61000D02*
X48357Y-61000D01*
G54D11*
X52565Y-54232D02*
X52363Y-54232D01*
X52339Y-54220D01*
X52327Y-54208D01*
X52315Y-54184D01*
X52315Y-54148D01*
X52327Y-54124D01*
X52410Y-54232D02*
X52398Y-54208D01*
X52398Y-54160D01*
X52410Y-54136D01*
X52422Y-54124D01*
X52446Y-54113D01*
X52517Y-54113D01*
X52541Y-54124D01*
X52553Y-54136D01*
X52565Y-54160D01*
X52565Y-54208D01*
X52553Y-54232D01*
X52398Y-54351D02*
X52565Y-54351D01*
X52648Y-54351D02*
X52636Y-54339D01*
X52625Y-54351D01*
X52636Y-54363D01*
X52648Y-54351D01*
X52625Y-54351D01*
X52565Y-54434D02*
X52565Y-54529D01*
X52648Y-54470D02*
X52434Y-54470D01*
X52410Y-54482D01*
X52398Y-54505D01*
X52398Y-54529D01*
X52398Y-54613D02*
X52648Y-54613D01*
X52398Y-54720D02*
X52529Y-54720D01*
X52553Y-54708D01*
X52565Y-54684D01*
X52565Y-54648D01*
X52553Y-54624D01*
X52541Y-54613D01*
X52565Y-54946D02*
X52398Y-54946D01*
X52565Y-54839D02*
X52434Y-54839D01*
X52410Y-54851D01*
X52398Y-54874D01*
X52398Y-54910D01*
X52410Y-54934D01*
X52422Y-54946D01*
X52398Y-55065D02*
X52648Y-55065D01*
X52553Y-55065D02*
X52565Y-55089D01*
X52565Y-55136D01*
X52553Y-55160D01*
X52541Y-55172D01*
X52517Y-55184D01*
X52446Y-55184D01*
X52422Y-55172D01*
X52410Y-55160D01*
X52398Y-55136D01*
X52398Y-55089D01*
X52410Y-55065D01*
X52422Y-55291D02*
X52410Y-55303D01*
X52398Y-55291D01*
X52410Y-55279D01*
X52422Y-55291D01*
X52398Y-55291D01*
X52410Y-55517D02*
X52398Y-55494D01*
X52398Y-55446D01*
X52410Y-55422D01*
X52422Y-55410D01*
X52446Y-55398D01*
X52517Y-55398D01*
X52541Y-55410D01*
X52553Y-55422D01*
X52565Y-55446D01*
X52565Y-55494D01*
X52553Y-55517D01*
X52398Y-55660D02*
X52410Y-55636D01*
X52422Y-55624D01*
X52446Y-55613D01*
X52517Y-55613D01*
X52541Y-55624D01*
X52553Y-55636D01*
X52565Y-55660D01*
X52565Y-55696D01*
X52553Y-55720D01*
X52541Y-55732D01*
X52517Y-55744D01*
X52446Y-55744D01*
X52422Y-55732D01*
X52410Y-55720D01*
X52398Y-55696D01*
X52398Y-55660D01*
X52398Y-55851D02*
X52565Y-55851D01*
X52541Y-55851D02*
X52553Y-55863D01*
X52565Y-55886D01*
X52565Y-55922D01*
X52553Y-55946D01*
X52529Y-55958D01*
X52398Y-55958D01*
X52529Y-55958D02*
X52553Y-55970D01*
X52565Y-55994D01*
X52565Y-56029D01*
X52553Y-56053D01*
X52529Y-56065D01*
X52398Y-56065D01*
X52660Y-56363D02*
X52339Y-56148D01*
X52565Y-56446D02*
X52315Y-56446D01*
X52553Y-56446D02*
X52565Y-56470D01*
X52565Y-56517D01*
X52553Y-56541D01*
X52541Y-56553D01*
X52517Y-56565D01*
X52446Y-56565D01*
X52422Y-56553D01*
X52410Y-56541D01*
X52398Y-56517D01*
X52398Y-56470D01*
X52410Y-56446D01*
X52410Y-56767D02*
X52398Y-56744D01*
X52398Y-56696D01*
X52410Y-56672D01*
X52434Y-56660D01*
X52529Y-56660D01*
X52553Y-56672D01*
X52565Y-56696D01*
X52565Y-56744D01*
X52553Y-56767D01*
X52529Y-56779D01*
X52505Y-56779D01*
X52482Y-56660D01*
X52565Y-56886D02*
X52315Y-56886D01*
X52553Y-56886D02*
X52565Y-56910D01*
X52565Y-56958D01*
X52553Y-56982D01*
X52541Y-56994D01*
X52517Y-57005D01*
X52446Y-57005D01*
X52422Y-56994D01*
X52410Y-56982D01*
X52398Y-56958D01*
X52398Y-56910D01*
X52410Y-56886D01*
X52398Y-57220D02*
X52529Y-57220D01*
X52553Y-57208D01*
X52565Y-57184D01*
X52565Y-57136D01*
X52553Y-57113D01*
X52410Y-57220D02*
X52398Y-57196D01*
X52398Y-57136D01*
X52410Y-57113D01*
X52434Y-57101D01*
X52458Y-57101D01*
X52482Y-57113D01*
X52494Y-57136D01*
X52494Y-57196D01*
X52505Y-57220D01*
X52410Y-57327D02*
X52398Y-57351D01*
X52398Y-57398D01*
X52410Y-57422D01*
X52434Y-57434D01*
X52446Y-57434D01*
X52470Y-57422D01*
X52482Y-57398D01*
X52482Y-57363D01*
X52494Y-57339D01*
X52517Y-57327D01*
X52529Y-57327D01*
X52553Y-57339D01*
X52565Y-57363D01*
X52565Y-57398D01*
X52553Y-57422D01*
X52398Y-57577D02*
X52410Y-57553D01*
X52434Y-57541D01*
X52648Y-57541D01*
X52398Y-57779D02*
X52529Y-57779D01*
X52553Y-57767D01*
X52565Y-57744D01*
X52565Y-57696D01*
X52553Y-57672D01*
X52410Y-57779D02*
X52398Y-57755D01*
X52398Y-57696D01*
X52410Y-57672D01*
X52434Y-57660D01*
X52458Y-57660D01*
X52482Y-57672D01*
X52494Y-57696D01*
X52494Y-57755D01*
X52505Y-57779D01*
X52398Y-57898D02*
X52648Y-57898D01*
X52553Y-57898D02*
X52565Y-57922D01*
X52565Y-57970D01*
X52553Y-57994D01*
X52541Y-58005D01*
X52517Y-58017D01*
X52446Y-58017D01*
X52422Y-58005D01*
X52410Y-57994D01*
X52398Y-57970D01*
X52398Y-57922D01*
X52410Y-57898D01*
X52410Y-58113D02*
X52398Y-58136D01*
X52398Y-58184D01*
X52410Y-58208D01*
X52434Y-58220D01*
X52446Y-58220D01*
X52470Y-58208D01*
X52482Y-58184D01*
X52482Y-58148D01*
X52494Y-58125D01*
X52517Y-58113D01*
X52529Y-58113D01*
X52553Y-58125D01*
X52565Y-58148D01*
X52565Y-58184D01*
X52553Y-58208D01*
X52660Y-58505D02*
X52339Y-58291D01*
X52398Y-58589D02*
X52648Y-58589D01*
X52648Y-58684D01*
X52636Y-58708D01*
X52625Y-58720D01*
X52601Y-58732D01*
X52565Y-58732D01*
X52541Y-58720D01*
X52529Y-58708D01*
X52517Y-58684D01*
X52517Y-58589D01*
X52398Y-58839D02*
X52565Y-58839D01*
X52517Y-58839D02*
X52541Y-58851D01*
X52553Y-58863D01*
X52565Y-58886D01*
X52565Y-58910D01*
X52398Y-59029D02*
X52410Y-59005D01*
X52422Y-58994D01*
X52446Y-58982D01*
X52517Y-58982D01*
X52541Y-58994D01*
X52553Y-59005D01*
X52565Y-59029D01*
X52565Y-59065D01*
X52553Y-59089D01*
X52541Y-59101D01*
X52517Y-59113D01*
X52446Y-59113D01*
X52422Y-59101D01*
X52410Y-59089D01*
X52398Y-59065D01*
X52398Y-59029D01*
X52565Y-59327D02*
X52363Y-59327D01*
X52339Y-59315D01*
X52327Y-59303D01*
X52315Y-59279D01*
X52315Y-59244D01*
X52327Y-59220D01*
X52410Y-59327D02*
X52398Y-59303D01*
X52398Y-59255D01*
X52410Y-59232D01*
X52422Y-59220D01*
X52446Y-59208D01*
X52517Y-59208D01*
X52541Y-59220D01*
X52553Y-59232D01*
X52565Y-59255D01*
X52565Y-59303D01*
X52553Y-59327D01*
X52398Y-59446D02*
X52565Y-59446D01*
X52517Y-59446D02*
X52541Y-59458D01*
X52553Y-59470D01*
X52565Y-59494D01*
X52565Y-59517D01*
X52398Y-59708D02*
X52529Y-59708D01*
X52553Y-59696D01*
X52565Y-59672D01*
X52565Y-59625D01*
X52553Y-59601D01*
X52410Y-59708D02*
X52398Y-59684D01*
X52398Y-59625D01*
X52410Y-59601D01*
X52434Y-59589D01*
X52458Y-59589D01*
X52482Y-59601D01*
X52494Y-59625D01*
X52494Y-59684D01*
X52505Y-59708D01*
X52398Y-59827D02*
X52565Y-59827D01*
X52541Y-59827D02*
X52553Y-59839D01*
X52565Y-59863D01*
X52565Y-59898D01*
X52553Y-59922D01*
X52529Y-59934D01*
X52398Y-59934D01*
X52529Y-59934D02*
X52553Y-59946D01*
X52565Y-59970D01*
X52565Y-60005D01*
X52553Y-60029D01*
X52529Y-60041D01*
X52398Y-60041D01*
X52398Y-60160D02*
X52565Y-60160D01*
X52541Y-60160D02*
X52553Y-60172D01*
X52565Y-60196D01*
X52565Y-60232D01*
X52553Y-60255D01*
X52529Y-60267D01*
X52398Y-60267D01*
X52529Y-60267D02*
X52553Y-60279D01*
X52565Y-60303D01*
X52565Y-60339D01*
X52553Y-60363D01*
X52529Y-60375D01*
X52398Y-60375D01*
X52398Y-60601D02*
X52529Y-60601D01*
X52553Y-60589D01*
X52565Y-60565D01*
X52565Y-60517D01*
X52553Y-60494D01*
X52410Y-60601D02*
X52398Y-60577D01*
X52398Y-60517D01*
X52410Y-60494D01*
X52434Y-60482D01*
X52458Y-60482D01*
X52482Y-60494D01*
X52494Y-60517D01*
X52494Y-60577D01*
X52505Y-60601D01*
X52398Y-60720D02*
X52648Y-60720D01*
X52553Y-60720D02*
X52565Y-60744D01*
X52565Y-60791D01*
X52553Y-60815D01*
X52541Y-60827D01*
X52517Y-60839D01*
X52446Y-60839D01*
X52422Y-60827D01*
X52410Y-60815D01*
X52398Y-60791D01*
X52398Y-60744D01*
X52410Y-60720D01*
X52398Y-60982D02*
X52410Y-60958D01*
X52434Y-60946D01*
X52648Y-60946D01*
X52410Y-61172D02*
X52398Y-61148D01*
X52398Y-61101D01*
X52410Y-61077D01*
X52434Y-61065D01*
X52529Y-61065D01*
X52553Y-61077D01*
X52565Y-61101D01*
X52565Y-61148D01*
X52553Y-61172D01*
X52529Y-61184D01*
X52505Y-61184D01*
X52482Y-61065D01*
X52398Y-61410D02*
X52398Y-61291D01*
X52648Y-61291D01*
X52398Y-61494D02*
X52648Y-61494D01*
X52470Y-61577D01*
X52648Y-61660D01*
X52398Y-61660D01*
X52648Y-61755D02*
X52648Y-61910D01*
X52553Y-61827D01*
X52553Y-61863D01*
X52541Y-61886D01*
X52529Y-61898D01*
X52505Y-61910D01*
X52446Y-61910D01*
X52422Y-61898D01*
X52410Y-61886D01*
X52398Y-61863D01*
X52398Y-61791D01*
X52410Y-61767D01*
X52422Y-61755D01*
X52398Y-62148D02*
X52398Y-62005D01*
X52398Y-62077D02*
X52648Y-62077D01*
X52613Y-62053D01*
X52589Y-62029D01*
X52577Y-62005D01*
X52648Y-62232D02*
X52648Y-62398D01*
X52398Y-62291D01*
G54D13*
X48521Y-52335D02*
X48492Y-52321D01*
X48450Y-52321D01*
X48407Y-52335D01*
X48378Y-52364D01*
X48364Y-52392D01*
X48350Y-52450D01*
X48350Y-52492D01*
X48364Y-52550D01*
X48378Y-52578D01*
X48407Y-52607D01*
X48450Y-52621D01*
X48478Y-52621D01*
X48521Y-52607D01*
X48535Y-52592D01*
X48535Y-52492D01*
X48478Y-52492D01*
X48664Y-52621D02*
X48664Y-52321D01*
X48835Y-52621D01*
X48835Y-52321D01*
X48978Y-52621D02*
X48978Y-52321D01*
X49050Y-52321D01*
X49092Y-52335D01*
X49121Y-52364D01*
X49135Y-52392D01*
X49150Y-52450D01*
X49150Y-52492D01*
X49135Y-52550D01*
X49121Y-52578D01*
X49092Y-52607D01*
X49050Y-52621D01*
X48978Y-52621D01*
X50700Y-52621D02*
X50600Y-52478D01*
X50528Y-52621D02*
X50528Y-52321D01*
X50642Y-52321D01*
X50671Y-52335D01*
X50685Y-52350D01*
X50700Y-52378D01*
X50700Y-52421D01*
X50685Y-52450D01*
X50671Y-52464D01*
X50642Y-52478D01*
X50528Y-52478D01*
X50800Y-52321D02*
X51000Y-52621D01*
X51000Y-52321D02*
X50800Y-52621D01*
X49521Y-52321D02*
X49692Y-52321D01*
X49607Y-52621D02*
X49607Y-52321D01*
X49764Y-52321D02*
X49964Y-52621D01*
X49964Y-52321D02*
X49764Y-52621D01*
X48592Y-54207D02*
X48635Y-54221D01*
X48707Y-54221D01*
X48735Y-54207D01*
X48750Y-54192D01*
X48764Y-54164D01*
X48764Y-54135D01*
X48750Y-54107D01*
X48735Y-54092D01*
X48707Y-54078D01*
X48650Y-54064D01*
X48621Y-54050D01*
X48607Y-54035D01*
X48592Y-54007D01*
X48592Y-53978D01*
X48607Y-53950D01*
X48621Y-53935D01*
X48650Y-53921D01*
X48721Y-53921D01*
X48764Y-53935D01*
X48892Y-54064D02*
X48992Y-54064D01*
X49035Y-54221D02*
X48892Y-54221D01*
X48892Y-53921D01*
X49035Y-53921D01*
X49335Y-54221D02*
X49235Y-54078D01*
X49164Y-54221D02*
X49164Y-53921D01*
X49278Y-53921D01*
X49307Y-53935D01*
X49321Y-53950D01*
X49335Y-53978D01*
X49335Y-54021D01*
X49321Y-54050D01*
X49307Y-54064D01*
X49278Y-54078D01*
X49164Y-54078D01*
X49464Y-54221D02*
X49464Y-53921D01*
X49592Y-54135D02*
X49735Y-54135D01*
X49564Y-54221D02*
X49664Y-53921D01*
X49764Y-54221D01*
X50007Y-54221D02*
X49864Y-54221D01*
X49864Y-53921D01*
X50292Y-53921D02*
X50464Y-53921D01*
X50378Y-54221D02*
X50378Y-53921D01*
X50521Y-53921D02*
X50692Y-53921D01*
X50607Y-54221D02*
X50607Y-53921D01*
X50935Y-54221D02*
X50792Y-54221D01*
X50792Y-53921D01*
G54D12*
X56547Y-48809D02*
X56852Y-48809D01*
X61147Y-48809D02*
X61452Y-48809D01*
X61300Y-48961D02*
X61300Y-48657D01*
G54D13*
X59885Y-52357D02*
X60114Y-52357D01*
X60000Y-52471D02*
X60000Y-52242D01*
X57885Y-52357D02*
X58114Y-52357D01*
X58421Y-52471D02*
X58421Y-52171D01*
X58564Y-52471D02*
X58564Y-52171D01*
X58735Y-52471D01*
X58735Y-52171D01*
X58878Y-52471D02*
X58878Y-52171D01*
X58992Y-52171D01*
X59021Y-52185D01*
X59035Y-52200D01*
X59050Y-52228D01*
X59050Y-52271D01*
X59035Y-52300D01*
X59021Y-52314D01*
X58992Y-52328D01*
X58878Y-52328D01*
X59178Y-52171D02*
X59178Y-52414D01*
X59192Y-52442D01*
X59207Y-52457D01*
X59235Y-52471D01*
X59292Y-52471D01*
X59321Y-52457D01*
X59335Y-52442D01*
X59350Y-52414D01*
X59350Y-52171D01*
X59450Y-52171D02*
X59621Y-52171D01*
X59535Y-52471D02*
X59535Y-52171D01*
X63135Y-64257D02*
X63364Y-64257D01*
X61278Y-64071D02*
X61335Y-64071D01*
X61364Y-64085D01*
X61392Y-64114D01*
X61407Y-64171D01*
X61407Y-64271D01*
X61392Y-64328D01*
X61364Y-64357D01*
X61335Y-64371D01*
X61278Y-64371D01*
X61250Y-64357D01*
X61221Y-64328D01*
X61207Y-64271D01*
X61207Y-64171D01*
X61221Y-64114D01*
X61250Y-64085D01*
X61278Y-64071D01*
X61535Y-64071D02*
X61535Y-64314D01*
X61550Y-64342D01*
X61564Y-64357D01*
X61592Y-64371D01*
X61650Y-64371D01*
X61678Y-64357D01*
X61692Y-64342D01*
X61707Y-64314D01*
X61707Y-64071D01*
X61807Y-64071D02*
X61978Y-64071D01*
X61892Y-64371D02*
X61892Y-64071D01*
X62078Y-64371D02*
X62078Y-64071D01*
X62192Y-64071D01*
X62221Y-64085D01*
X62235Y-64100D01*
X62250Y-64128D01*
X62250Y-64171D01*
X62235Y-64200D01*
X62221Y-64214D01*
X62192Y-64228D01*
X62078Y-64228D01*
X62378Y-64071D02*
X62378Y-64314D01*
X62392Y-64342D01*
X62407Y-64357D01*
X62435Y-64371D01*
X62492Y-64371D01*
X62521Y-64357D01*
X62535Y-64342D01*
X62550Y-64314D01*
X62550Y-64071D01*
X62650Y-64071D02*
X62821Y-64071D01*
X62735Y-64371D02*
X62735Y-64071D01*
X60635Y-64257D02*
X60864Y-64257D01*
X60750Y-64371D02*
X60750Y-64142D01*
G54D12*
X64197Y-67659D02*
X64502Y-67659D01*
X59497Y-67659D02*
X59802Y-67659D01*
X59650Y-67811D02*
X59650Y-67507D01*
G54D14*
X63250Y-55750D02*
X63250Y-56000D01*
X63250Y-56000D02*
X59250Y-56000D01*
X59250Y-56000D02*
X59250Y-55750D01*
X63250Y-54250D02*
X63250Y-55750D01*
X63250Y-55750D02*
X59250Y-55750D01*
X59250Y-55750D02*
X59250Y-54250D01*
X59250Y-54250D02*
X63250Y-54250D01*
X63500Y-53000D02*
G75*
G03X63500Y-53000I-1000J0D01*
G74*
G01*
X59250Y-59000D02*
X59250Y-58750D01*
X59250Y-58750D02*
X63250Y-58750D01*
X63250Y-58750D02*
X63250Y-59000D01*
X59250Y-60500D02*
X59250Y-59000D01*
X59250Y-59000D02*
X63250Y-59000D01*
X63250Y-59000D02*
X63250Y-60500D01*
X63250Y-60500D02*
X59250Y-60500D01*
X50750Y-64250D02*
X50750Y-63850D01*
X50750Y-63850D02*
X50350Y-63850D01*
X50350Y-63850D02*
X50350Y-60650D01*
X50350Y-60650D02*
X51150Y-60650D01*
X51150Y-60650D02*
X51150Y-63850D01*
X51150Y-63850D02*
X50750Y-63850D01*
X50750Y-60250D02*
X50750Y-60650D01*
X51750Y-60250D02*
X51750Y-60650D01*
X51750Y-60650D02*
X52150Y-60650D01*
X52150Y-60650D02*
X52150Y-63850D01*
X52150Y-63850D02*
X51350Y-63850D01*
X51350Y-63850D02*
X51350Y-60650D01*
X51350Y-60650D02*
X51750Y-60650D01*
X51750Y-64250D02*
X51750Y-63850D01*
G54D13*
X51250Y-52750D02*
X51250Y-53750D01*
X51250Y-53750D02*
X48250Y-53750D01*
X48250Y-53750D02*
X48250Y-52750D01*
X48250Y-52750D02*
X51250Y-52750D01*
X50250Y-53750D02*
X50250Y-52750D01*
G54D14*
X64324Y-50250D02*
G75*
G03X64324Y-50250I-1574J0D01*
G74*
G01*
X55950Y-65750D02*
G75*
G03X56250Y-66050I300J0D01*
G74*
G01*
X56250Y-65450D02*
G75*
G03X55950Y-65750I0J-300D01*
G74*
G01*
X56250Y-66750D02*
X52250Y-66750D01*
X52250Y-66750D02*
X52250Y-64750D01*
X52250Y-64750D02*
X56250Y-64750D01*
X56250Y-64750D02*
X56250Y-66750D01*
X50250Y-58200D02*
G75*
G03X49950Y-58500I0J-300D01*
G74*
G01*
X50550Y-58500D02*
G75*
G03X50250Y-58200I-300J0D01*
G74*
G01*
X49250Y-58500D02*
X49250Y-54500D01*
X49250Y-54500D02*
X51250Y-54500D01*
X51250Y-54500D02*
X51250Y-58500D01*
X51250Y-58500D02*
X49250Y-58500D01*
X55200Y-50750D02*
G75*
G03X55500Y-51050I300J0D01*
G74*
G01*
X55500Y-50450D02*
G75*
G03X55200Y-50750I0J-300D01*
G74*
G01*
X55500Y-51750D02*
X51500Y-51750D01*
X51500Y-51750D02*
X51500Y-49750D01*
X51500Y-49750D02*
X55500Y-49750D01*
X55500Y-49750D02*
X55500Y-51750D01*
G54D10*
X57750Y-53180D02*
X57900Y-53300D01*
X57900Y-57940D02*
X57900Y-53300D01*
X57760Y-63320D02*
X57900Y-63200D01*
X57900Y-58560D02*
X57900Y-63200D01*
X64680Y-53210D02*
X64600Y-53300D01*
X64600Y-57940D02*
X64600Y-53300D01*
X64600Y-63150D02*
X64700Y-63280D01*
X64600Y-58560D02*
X64600Y-63150D01*
X66690Y-58421D02*
X69550Y-60111D01*
X69550Y-60111D02*
X69590Y-60291D01*
X69590Y-60291D02*
X69470Y-60471D01*
X69470Y-60471D02*
X69320Y-60521D01*
X69320Y-60521D02*
X69180Y-60481D01*
X69180Y-60481D02*
X67530Y-59531D01*
X67530Y-59531D02*
X67200Y-59551D01*
X67200Y-59551D02*
X66960Y-59771D01*
X66960Y-59771D02*
X66890Y-60141D01*
X66890Y-60141D02*
X66990Y-60341D01*
X66990Y-60341D02*
X69600Y-63011D01*
X69600Y-63011D02*
X69580Y-63181D01*
X69580Y-63181D02*
X69420Y-63311D01*
X69420Y-63311D02*
X69280Y-63321D01*
X69280Y-63321D02*
X69160Y-63241D01*
X69160Y-63241D02*
X67410Y-61551D01*
X67410Y-61551D02*
X67290Y-61541D01*
X67290Y-61541D02*
X67140Y-61601D01*
X67140Y-61601D02*
X67080Y-61821D01*
X67080Y-61821D02*
X67730Y-63011D01*
X67730Y-63011D02*
X67730Y-63141D01*
X67730Y-63141D02*
X67620Y-63281D01*
X67620Y-63281D02*
X67460Y-63321D01*
X67460Y-63321D02*
X67310Y-63281D01*
X67310Y-63281D02*
X65630Y-60981D01*
X65630Y-60981D02*
X65380Y-60931D01*
X65380Y-60931D02*
X65170Y-61011D01*
X65170Y-61011D02*
X65100Y-61141D01*
X65100Y-61141D02*
X65100Y-63101D01*
X65100Y-63101D02*
X64940Y-63281D01*
X64940Y-63281D02*
X64820Y-63311D01*
X64820Y-63311D02*
X64700Y-63281D01*
X64680Y-53210D02*
X64850Y-53171D01*
X64850Y-53171D02*
X64990Y-53231D01*
X64990Y-53231D02*
X65090Y-53431D01*
X65090Y-53431D02*
X65120Y-55361D01*
X65120Y-55361D02*
X65240Y-55511D01*
X65240Y-55511D02*
X65440Y-55591D01*
X65440Y-55591D02*
X65640Y-55491D01*
X65640Y-55491D02*
X67330Y-53201D01*
X67330Y-53201D02*
X67500Y-53171D01*
X67500Y-53171D02*
X67670Y-53251D01*
X67670Y-53251D02*
X67740Y-53431D01*
X67740Y-53431D02*
X67130Y-54541D01*
X67130Y-54541D02*
X67100Y-54821D01*
X67100Y-54821D02*
X67230Y-54941D01*
X67230Y-54941D02*
X67380Y-54941D01*
X67380Y-54941D02*
X67480Y-54871D01*
X67480Y-54871D02*
X69200Y-53221D01*
X69200Y-53221D02*
X69380Y-53171D01*
X69380Y-53171D02*
X69520Y-53251D01*
X69520Y-53251D02*
X69600Y-53411D01*
X69600Y-53411D02*
X69530Y-53561D01*
X69530Y-53561D02*
X66910Y-56231D01*
X66910Y-56231D02*
X66940Y-56681D01*
X66940Y-56681D02*
X67170Y-56901D01*
X67170Y-56901D02*
X67470Y-56941D01*
X67470Y-56941D02*
X67670Y-56891D01*
X67670Y-56891D02*
X69300Y-55961D01*
X69300Y-55961D02*
X69460Y-56011D01*
X69460Y-56011D02*
X69580Y-56151D01*
X69580Y-56151D02*
X69570Y-56321D01*
X69570Y-56321D02*
X69430Y-56471D01*
X69430Y-56471D02*
X66690Y-58031D01*
X55810Y-58021D02*
X52960Y-56361D01*
X52960Y-56361D02*
X52930Y-56161D01*
X52930Y-56161D02*
X53020Y-56031D01*
X53020Y-56031D02*
X53250Y-55981D01*
X53250Y-55981D02*
X54980Y-56971D01*
X54980Y-56971D02*
X55350Y-56911D01*
X55350Y-56911D02*
X55630Y-56591D01*
X55630Y-56591D02*
X55630Y-56331D01*
X55630Y-56331D02*
X55540Y-56151D01*
X55540Y-56151D02*
X52920Y-53481D01*
X52920Y-53481D02*
X52940Y-53291D01*
X52940Y-53291D02*
X53040Y-53191D01*
X53040Y-53191D02*
X53210Y-53161D01*
X53210Y-53161D02*
X53320Y-53231D01*
X53320Y-53231D02*
X55040Y-54901D01*
X55040Y-54901D02*
X55220Y-54951D01*
X55220Y-54951D02*
X55370Y-54881D01*
X55370Y-54881D02*
X55430Y-54721D01*
X55430Y-54721D02*
X55390Y-54551D01*
X55390Y-54551D02*
X54800Y-53501D01*
X54800Y-53501D02*
X54800Y-53341D01*
X54800Y-53341D02*
X54890Y-53211D01*
X54890Y-53211D02*
X55070Y-53161D01*
X55070Y-53161D02*
X55210Y-53231D01*
X55210Y-53231D02*
X56810Y-55431D01*
X56810Y-55431D02*
X57070Y-55601D01*
X57070Y-55601D02*
X57230Y-55551D01*
X57230Y-55551D02*
X57410Y-55341D01*
X57410Y-55341D02*
X57440Y-53311D01*
X57440Y-53311D02*
X57620Y-53191D01*
X57620Y-53191D02*
X57750Y-53181D01*
X57610Y-63321D02*
X57450Y-63191D01*
X57450Y-63191D02*
X57410Y-61161D01*
X57410Y-61161D02*
X57280Y-60961D01*
X57280Y-60961D02*
X56990Y-60931D01*
X56990Y-60931D02*
X56830Y-61041D01*
X56830Y-61041D02*
X55200Y-63271D01*
X55200Y-63271D02*
X54950Y-63321D01*
X54950Y-63321D02*
X54810Y-63211D01*
X54810Y-63211D02*
X54790Y-62991D01*
X54790Y-62991D02*
X55430Y-61861D01*
X55430Y-61861D02*
X55410Y-61651D01*
X55410Y-61651D02*
X55280Y-61551D01*
X55280Y-61551D02*
X55090Y-61561D01*
X55090Y-61561D02*
X53270Y-63311D01*
X53270Y-63311D02*
X53060Y-63311D01*
X53060Y-63311D02*
X52960Y-63221D01*
X52960Y-63221D02*
X52940Y-62971D01*
X52940Y-62971D02*
X55600Y-60221D01*
X55600Y-60221D02*
X55630Y-59951D01*
X55630Y-59951D02*
X55340Y-59571D01*
X55340Y-59571D02*
X55010Y-59521D01*
X55010Y-59521D02*
X53210Y-60521D01*
X53210Y-60521D02*
X53040Y-60481D01*
X53040Y-60481D02*
X52940Y-60341D01*
X52940Y-60341D02*
X53010Y-60061D01*
X53010Y-60061D02*
X55800Y-58441D01*
X57760Y-63321D02*
X57610Y-63321D01*
X64600Y-57940D02*
X57900Y-57940D01*
X64600Y-58560D02*
X57900Y-58560D01*
X51021Y-49750D02*
G75*
G03X51021Y-49750I-1771J0D01*
G74*
G01*
X51021Y-66750D02*
G75*
G03X51021Y-66750I-1771J0D01*
G74*
G01*
X68021Y-49750D02*
G75*
G03X68021Y-49750I-1771J0D01*
G74*
G01*
X68021Y-66750D02*
G75*
G03X68021Y-66750I-1771J0D01*
G74*
G01*
G54D14*
X59750Y-66500D02*
G75*
G03X59750Y-66500I-1000J0D01*
G74*
G01*
X59000Y-65000D02*
X59000Y-64600D01*
X59000Y-64600D02*
X58600Y-64600D01*
X58600Y-64600D02*
X58600Y-61400D01*
X58600Y-61400D02*
X59400Y-61400D01*
X59400Y-61400D02*
X59400Y-64600D01*
X59400Y-64600D02*
X59000Y-64600D01*
X59000Y-61000D02*
X59000Y-61400D01*
G54D15*
G36*
X53043Y-57773D02*
X53047Y-57781D01*
X53059Y-57800D01*
X53076Y-57826D01*
X53097Y-57857D01*
X53118Y-57888D01*
X53135Y-57914D01*
X53147Y-57932D01*
X53151Y-57939D01*
X53150Y-57943D01*
X53142Y-57958D01*
X53131Y-57980D01*
X53125Y-57992D01*
X53116Y-58012D01*
X53114Y-58022D01*
X53117Y-58023D01*
X53132Y-58031D01*
X53158Y-58042D01*
X53192Y-58057D01*
X53232Y-58074D01*
X53275Y-58092D01*
X53319Y-58110D01*
X53361Y-58128D01*
X53399Y-58143D01*
X53429Y-58156D01*
X53451Y-58164D01*
X53460Y-58167D01*
X53462Y-58166D01*
X53471Y-58156D01*
X53484Y-58139D01*
X53515Y-58101D01*
X53561Y-58065D01*
X53613Y-58042D01*
X53671Y-58035D01*
X53724Y-58041D01*
X53775Y-58062D01*
X53822Y-58098D01*
X53856Y-58142D01*
X53878Y-58193D01*
X53885Y-58250D01*
X53879Y-58305D01*
X53858Y-58357D01*
X53823Y-58404D01*
X53800Y-58423D01*
X53753Y-58450D01*
X53703Y-58466D01*
X53691Y-58467D01*
X53635Y-58465D01*
X53582Y-58449D01*
X53535Y-58420D01*
X53496Y-58379D01*
X53492Y-58374D01*
X53478Y-58355D01*
X53469Y-58343D01*
X53461Y-58333D01*
X53291Y-58403D01*
X53264Y-58414D01*
X53218Y-58434D01*
X53178Y-58451D01*
X53146Y-58464D01*
X53125Y-58474D01*
X53116Y-58478D01*
X53116Y-58478D01*
X53115Y-58484D01*
X53120Y-58497D01*
X53131Y-58521D01*
X53139Y-58537D01*
X53148Y-58555D01*
X53151Y-58563D01*
X53147Y-58570D01*
X53136Y-58587D01*
X53119Y-58612D01*
X53099Y-58642D01*
X53079Y-58671D01*
X53061Y-58698D01*
X53049Y-58717D01*
X53044Y-58727D01*
X53044Y-58728D01*
X53049Y-58736D01*
X53061Y-58752D01*
X53083Y-58775D01*
X53115Y-58807D01*
X53120Y-58812D01*
X53148Y-58839D01*
X53171Y-58861D01*
X53187Y-58876D01*
X53194Y-58881D01*
X53194Y-58881D01*
X53204Y-58876D01*
X53223Y-58864D01*
X53250Y-58846D01*
X53281Y-58825D01*
X53363Y-58769D01*
X53440Y-58800D01*
X53463Y-58809D01*
X53492Y-58821D01*
X53512Y-58830D01*
X53521Y-58835D01*
X53524Y-58843D01*
X53529Y-58864D01*
X53536Y-58895D01*
X53542Y-58931D01*
X53549Y-58966D01*
X53555Y-58997D01*
X53559Y-59020D01*
X53561Y-59030D01*
X53563Y-59032D01*
X53568Y-59034D01*
X53578Y-59036D01*
X53597Y-59036D01*
X53627Y-59037D01*
X53671Y-59037D01*
X53675Y-59037D01*
X53717Y-59036D01*
X53750Y-59036D01*
X53771Y-59035D01*
X53779Y-59033D01*
X53779Y-59033D01*
X53782Y-59023D01*
X53786Y-59001D01*
X53793Y-58970D01*
X53800Y-58932D01*
X53800Y-58930D01*
X53807Y-58893D01*
X53814Y-58862D01*
X53819Y-58840D01*
X53822Y-58831D01*
X53824Y-58829D01*
X53839Y-58821D01*
X53862Y-58810D01*
X53890Y-58798D01*
X53919Y-58786D01*
X53946Y-58775D01*
X53965Y-58768D01*
X53974Y-58766D01*
X53974Y-58766D01*
X53983Y-58772D01*
X54003Y-58785D01*
X54029Y-58803D01*
X54061Y-58825D01*
X54064Y-58826D01*
X54095Y-58848D01*
X54122Y-58865D01*
X54141Y-58877D01*
X54149Y-58881D01*
X54150Y-58881D01*
X54159Y-58874D01*
X54177Y-58858D01*
X54201Y-58835D01*
X54229Y-58807D01*
X54237Y-58798D01*
X54267Y-58768D01*
X54287Y-58747D01*
X54297Y-58733D01*
X54300Y-58727D01*
X54299Y-58727D01*
X54294Y-58717D01*
X54281Y-58697D01*
X54262Y-58670D01*
X54241Y-58638D01*
X54239Y-58636D01*
X54218Y-58605D01*
X54200Y-58579D01*
X54188Y-58560D01*
X54183Y-58552D01*
X54183Y-58550D01*
X54187Y-58538D01*
X54194Y-58515D01*
X54205Y-58488D01*
X54217Y-58459D01*
X54228Y-58432D01*
X54237Y-58412D01*
X54242Y-58403D01*
X54243Y-58403D01*
X54254Y-58399D01*
X54278Y-58394D01*
X54310Y-58387D01*
X54349Y-58380D01*
X54355Y-58379D01*
X54392Y-58372D01*
X54423Y-58366D01*
X54445Y-58361D01*
X54454Y-58359D01*
X54455Y-58354D01*
X54456Y-58335D01*
X54457Y-58307D01*
X54457Y-58273D01*
X54457Y-58238D01*
X54456Y-58204D01*
X54455Y-58174D01*
X54454Y-58153D01*
X54452Y-58144D01*
X54451Y-58143D01*
X54440Y-58140D01*
X54416Y-58135D01*
X54384Y-58128D01*
X54345Y-58121D01*
X54338Y-58120D01*
X54301Y-58113D01*
X54270Y-58106D01*
X54249Y-58102D01*
X54241Y-58099D01*
X54239Y-58096D01*
X54232Y-58081D01*
X54222Y-58056D01*
X54209Y-58024D01*
X54180Y-57952D01*
X54241Y-57864D01*
X54246Y-57856D01*
X54268Y-57824D01*
X54285Y-57798D01*
X54297Y-57780D01*
X54301Y-57772D01*
X54301Y-57772D01*
X54293Y-57763D01*
X54277Y-57745D01*
X54253Y-57721D01*
X54226Y-57694D01*
X54205Y-57673D01*
X54180Y-57649D01*
X54164Y-57633D01*
X54153Y-57625D01*
X54146Y-57622D01*
X54142Y-57623D01*
X54133Y-57628D01*
X54114Y-57641D01*
X54087Y-57659D01*
X54056Y-57681D01*
X54029Y-57699D01*
X54000Y-57718D01*
X53979Y-57730D01*
X53968Y-57735D01*
X53964Y-57734D01*
X53947Y-57727D01*
X53920Y-57717D01*
X53889Y-57704D01*
X53819Y-57673D01*
X53811Y-57627D01*
X53805Y-57599D01*
X53798Y-57560D01*
X53791Y-57523D01*
X53779Y-57465D01*
X53567Y-57463D01*
X53563Y-57472D01*
X53560Y-57481D01*
X53556Y-57502D01*
X53550Y-57533D01*
X53543Y-57569D01*
X53537Y-57600D01*
X53531Y-57631D01*
X53527Y-57653D01*
X53525Y-57663D01*
X53521Y-57666D01*
X53506Y-57674D01*
X53482Y-57685D01*
X53453Y-57697D01*
X53424Y-57709D01*
X53396Y-57720D01*
X53375Y-57728D01*
X53364Y-57731D01*
X53356Y-57727D01*
X53338Y-57715D01*
X53312Y-57698D01*
X53281Y-57677D01*
X53250Y-57655D01*
X53223Y-57638D01*
X53204Y-57625D01*
X53196Y-57620D01*
X53190Y-57623D01*
X53175Y-57635D01*
X53151Y-57658D01*
X53116Y-57693D01*
X53111Y-57699D01*
X53084Y-57726D01*
X53063Y-57750D01*
X53048Y-57766D01*
X53043Y-57773D01*
X53043Y-57773D01*
G37*
G54D16*
X60000Y-61400D02*
X60000Y-61000D01*
X60000Y-63600D02*
X60000Y-64000D01*
X59600Y-61400D02*
X59600Y-63600D01*
X60400Y-63600D02*
X60400Y-61400D01*
X60400Y-63350D02*
X59600Y-63350D01*
X60000Y-63600D02*
X60400Y-63600D01*
X60400Y-61400D02*
X60000Y-61400D01*
X60000Y-61400D02*
X59600Y-61400D01*
X59600Y-63600D02*
X60000Y-63600D01*
X62350Y-57250D02*
X62750Y-57250D01*
X60150Y-57250D02*
X59750Y-57250D01*
X62350Y-56850D02*
X60150Y-56850D01*
X60150Y-57650D02*
X62350Y-57650D01*
X60400Y-57650D02*
X60400Y-56850D01*
X60150Y-57250D02*
X60150Y-57650D01*
X62350Y-57650D02*
X62350Y-57250D01*
X62350Y-57250D02*
X62350Y-56850D01*
X60150Y-56850D02*
X60150Y-57250D01*
G54D14*
X49750Y-60250D02*
X49750Y-60650D01*
X49750Y-60650D02*
X50150Y-60650D01*
X50150Y-60650D02*
X50150Y-63850D01*
X50150Y-63850D02*
X49350Y-63850D01*
X49350Y-63850D02*
X49350Y-60650D01*
X49350Y-60650D02*
X49750Y-60650D01*
X49750Y-64250D02*
X49750Y-63850D01*
G54D13*
X48000Y-61250D02*
X49000Y-61250D01*
X49000Y-61250D02*
X49000Y-63250D01*
X49000Y-63250D02*
X48000Y-63250D01*
X48000Y-63250D02*
X48000Y-61250D01*
G54D10*
X62500Y-68000D02*
X62500Y-67500D01*
X62500Y-67500D02*
X63500Y-67500D01*
X63500Y-67500D02*
X63500Y-68000D01*
X60500Y-68000D02*
X60500Y-67500D01*
X60500Y-67500D02*
X61500Y-67500D01*
X61500Y-67500D02*
X61500Y-68000D01*
X60000Y-64500D02*
X60000Y-68000D01*
X60000Y-68000D02*
X64000Y-68000D01*
X64000Y-68000D02*
X64000Y-64500D01*
X64000Y-64500D02*
X60000Y-64500D01*
X58500Y-48500D02*
X58500Y-49000D01*
X58500Y-49000D02*
X57500Y-49000D01*
X57500Y-49000D02*
X57500Y-48500D01*
X60500Y-48500D02*
X60500Y-49000D01*
X60500Y-49000D02*
X59500Y-49000D01*
X59500Y-49000D02*
X59500Y-48500D01*
X61000Y-52000D02*
X61000Y-48500D01*
X61000Y-48500D02*
X57000Y-48500D01*
X57000Y-48500D02*
X57000Y-52000D01*
X57000Y-52000D02*
X61000Y-52000D01*
G54D14*
X55850Y-52150D02*
X55850Y-49350D01*
X55850Y-49350D02*
X56650Y-49350D01*
X56650Y-49350D02*
X56650Y-52150D01*
X56650Y-52150D02*
X55850Y-52150D01*
X62650Y-60850D02*
X62650Y-63650D01*
X62650Y-63650D02*
X61850Y-63650D01*
X61850Y-63650D02*
X61850Y-60850D01*
X61850Y-60850D02*
X62650Y-60850D01*
X51650Y-59650D02*
X48850Y-59650D01*
X48850Y-59650D02*
X48850Y-58850D01*
X48850Y-58850D02*
X51650Y-58850D01*
X51650Y-58850D02*
X51650Y-59650D01*
X51100Y-67650D02*
X51100Y-64850D01*
X51100Y-64850D02*
X51900Y-64850D01*
X51900Y-64850D02*
X51900Y-67650D01*
X51900Y-67650D02*
X51100Y-67650D01*
X56600Y-67150D02*
X56600Y-64350D01*
X56600Y-64350D02*
X57400Y-64350D01*
X57400Y-64350D02*
X57400Y-67150D01*
X57400Y-67150D02*
X56600Y-67150D01*
X63650Y-60850D02*
X63650Y-63650D01*
X63650Y-63650D02*
X62850Y-63650D01*
X62850Y-63650D02*
X62850Y-60850D01*
X62850Y-60850D02*
X63650Y-60850D01*
G54D13*
X60021Y-53721D02*
X60021Y-53964D01*
X60035Y-53992D01*
X60050Y-54007D01*
X60078Y-54021D01*
X60135Y-54021D01*
X60164Y-54007D01*
X60178Y-53992D01*
X60192Y-53964D01*
X60192Y-53721D01*
X60464Y-53821D02*
X60464Y-54021D01*
X60392Y-53707D02*
X60321Y-53921D01*
X60507Y-53921D01*
X63421Y-55528D02*
X63421Y-55328D01*
X63721Y-55457D01*
X63550Y-55171D02*
X63535Y-55200D01*
X63521Y-55214D01*
X63492Y-55228D01*
X63478Y-55228D01*
X63450Y-55214D01*
X63435Y-55200D01*
X63421Y-55171D01*
X63421Y-55114D01*
X63435Y-55085D01*
X63450Y-55071D01*
X63478Y-55057D01*
X63492Y-55057D01*
X63521Y-55071D01*
X63535Y-55085D01*
X63550Y-55114D01*
X63550Y-55171D01*
X63564Y-55200D01*
X63578Y-55214D01*
X63607Y-55228D01*
X63664Y-55228D01*
X63692Y-55214D01*
X63707Y-55200D01*
X63721Y-55171D01*
X63721Y-55114D01*
X63707Y-55085D01*
X63692Y-55071D01*
X63664Y-55057D01*
X63607Y-55057D01*
X63578Y-55071D01*
X63564Y-55085D01*
X63550Y-55114D01*
X63421Y-54871D02*
X63421Y-54842D01*
X63435Y-54814D01*
X63450Y-54800D01*
X63478Y-54785D01*
X63535Y-54771D01*
X63607Y-54771D01*
X63664Y-54785D01*
X63692Y-54800D01*
X63707Y-54814D01*
X63721Y-54842D01*
X63721Y-54871D01*
X63707Y-54900D01*
X63692Y-54914D01*
X63664Y-54928D01*
X63607Y-54942D01*
X63535Y-54942D01*
X63478Y-54928D01*
X63450Y-54914D01*
X63435Y-54900D01*
X63421Y-54871D01*
X63421Y-54500D02*
X63421Y-54642D01*
X63564Y-54657D01*
X63550Y-54642D01*
X63535Y-54614D01*
X63535Y-54542D01*
X63550Y-54514D01*
X63564Y-54500D01*
X63592Y-54485D01*
X63664Y-54485D01*
X63692Y-54500D01*
X63707Y-54514D01*
X63721Y-54542D01*
X63721Y-54614D01*
X63707Y-54642D01*
X63692Y-54657D01*
G54D11*
X62808Y-52527D02*
X62796Y-52539D01*
X62760Y-52551D01*
X62736Y-52551D01*
X62701Y-52539D01*
X62677Y-52515D01*
X62665Y-52491D01*
X62653Y-52444D01*
X62653Y-52408D01*
X62665Y-52360D01*
X62677Y-52336D01*
X62701Y-52313D01*
X62736Y-52301D01*
X62760Y-52301D01*
X62796Y-52313D01*
X62808Y-52325D01*
X63022Y-52301D02*
X62975Y-52301D01*
X62951Y-52313D01*
X62939Y-52325D01*
X62915Y-52360D01*
X62903Y-52408D01*
X62903Y-52503D01*
X62915Y-52527D01*
X62927Y-52539D01*
X62951Y-52551D01*
X62998Y-52551D01*
X63022Y-52539D01*
X63034Y-52527D01*
X63046Y-52503D01*
X63046Y-52444D01*
X63034Y-52420D01*
X63022Y-52408D01*
X62998Y-52396D01*
X62951Y-52396D01*
X62927Y-52408D01*
X62915Y-52420D01*
X62903Y-52444D01*
X62232Y-53701D02*
X62089Y-53701D01*
X62160Y-53701D02*
X62160Y-53451D01*
X62136Y-53486D01*
X62113Y-53510D01*
X62089Y-53522D01*
X62386Y-53451D02*
X62410Y-53451D01*
X62434Y-53463D01*
X62446Y-53475D01*
X62458Y-53498D01*
X62470Y-53546D01*
X62470Y-53605D01*
X62458Y-53653D01*
X62446Y-53677D01*
X62434Y-53689D01*
X62410Y-53701D01*
X62386Y-53701D01*
X62363Y-53689D01*
X62351Y-53677D01*
X62339Y-53653D01*
X62327Y-53605D01*
X62327Y-53546D01*
X62339Y-53498D01*
X62351Y-53475D01*
X62363Y-53463D01*
X62386Y-53451D01*
X62684Y-53534D02*
X62684Y-53701D01*
X62577Y-53534D02*
X62577Y-53665D01*
X62589Y-53689D01*
X62613Y-53701D01*
X62648Y-53701D01*
X62672Y-53689D01*
X62684Y-53677D01*
X62886Y-53570D02*
X62803Y-53570D01*
X62803Y-53701D02*
X62803Y-53451D01*
X62922Y-53451D01*
G54D13*
X61885Y-52407D02*
X62114Y-52407D01*
X62000Y-52521D02*
X62000Y-52292D01*
X61021Y-60671D02*
X61021Y-60914D01*
X61035Y-60942D01*
X61050Y-60957D01*
X61078Y-60971D01*
X61135Y-60971D01*
X61164Y-60957D01*
X61178Y-60942D01*
X61192Y-60914D01*
X61192Y-60671D01*
X61492Y-60971D02*
X61321Y-60971D01*
X61407Y-60971D02*
X61407Y-60671D01*
X61378Y-60714D01*
X61350Y-60742D01*
X61321Y-60757D01*
X59121Y-60257D02*
X59121Y-60399D01*
X58821Y-60399D01*
X59121Y-60157D02*
X58821Y-60157D01*
X59035Y-60057D01*
X58821Y-59957D01*
X59121Y-59957D01*
X58821Y-59842D02*
X58821Y-59657D01*
X58935Y-59757D01*
X58935Y-59714D01*
X58950Y-59685D01*
X58964Y-59671D01*
X58992Y-59657D01*
X59064Y-59657D01*
X59092Y-59671D01*
X59107Y-59685D01*
X59121Y-59714D01*
X59121Y-59800D01*
X59107Y-59828D01*
X59092Y-59842D01*
X59121Y-59371D02*
X59121Y-59542D01*
X59121Y-59457D02*
X58821Y-59457D01*
X58864Y-59485D01*
X58892Y-59514D01*
X58907Y-59542D01*
X58821Y-59271D02*
X58821Y-59071D01*
X59121Y-59200D01*
X50871Y-63100D02*
X50728Y-63200D01*
X50871Y-63271D02*
X50571Y-63271D01*
X50571Y-63157D01*
X50585Y-63128D01*
X50600Y-63114D01*
X50628Y-63100D01*
X50671Y-63100D01*
X50700Y-63114D01*
X50714Y-63128D01*
X50728Y-63157D01*
X50728Y-63271D01*
X50871Y-62814D02*
X50871Y-62985D01*
X50871Y-62900D02*
X50571Y-62900D01*
X50614Y-62928D01*
X50642Y-62957D01*
X50657Y-62985D01*
X50871Y-61628D02*
X50871Y-61799D01*
X50871Y-61714D02*
X50571Y-61714D01*
X50614Y-61742D01*
X50642Y-61771D01*
X50657Y-61799D01*
X50571Y-61442D02*
X50571Y-61414D01*
X50585Y-61385D01*
X50600Y-61371D01*
X50628Y-61357D01*
X50685Y-61342D01*
X50757Y-61342D01*
X50814Y-61357D01*
X50842Y-61371D01*
X50857Y-61385D01*
X50871Y-61414D01*
X50871Y-61442D01*
X50857Y-61471D01*
X50842Y-61485D01*
X50814Y-61499D01*
X50757Y-61514D01*
X50685Y-61514D01*
X50628Y-61499D01*
X50600Y-61485D01*
X50585Y-61471D01*
X50571Y-61442D01*
X50871Y-61214D02*
X50571Y-61214D01*
X50757Y-61185D02*
X50871Y-61100D01*
X50671Y-61100D02*
X50785Y-61214D01*
X51871Y-61500D02*
X51728Y-61600D01*
X51871Y-61671D02*
X51571Y-61671D01*
X51571Y-61557D01*
X51585Y-61528D01*
X51600Y-61514D01*
X51628Y-61500D01*
X51671Y-61500D01*
X51700Y-61514D01*
X51714Y-61528D01*
X51728Y-61557D01*
X51728Y-61671D01*
X51600Y-61385D02*
X51585Y-61371D01*
X51571Y-61342D01*
X51571Y-61271D01*
X51585Y-61242D01*
X51600Y-61228D01*
X51628Y-61214D01*
X51657Y-61214D01*
X51700Y-61228D01*
X51871Y-61400D01*
X51871Y-61214D01*
X51571Y-63414D02*
X51571Y-63228D01*
X51685Y-63328D01*
X51685Y-63285D01*
X51700Y-63257D01*
X51714Y-63242D01*
X51742Y-63228D01*
X51814Y-63228D01*
X51842Y-63242D01*
X51857Y-63257D01*
X51871Y-63285D01*
X51871Y-63371D01*
X51857Y-63399D01*
X51842Y-63414D01*
X51571Y-63128D02*
X51571Y-62942D01*
X51685Y-63042D01*
X51685Y-62999D01*
X51700Y-62971D01*
X51714Y-62957D01*
X51742Y-62942D01*
X51814Y-62942D01*
X51842Y-62957D01*
X51857Y-62971D01*
X51871Y-62999D01*
X51871Y-63085D01*
X51857Y-63114D01*
X51842Y-63128D01*
X51871Y-62814D02*
X51571Y-62814D01*
X51757Y-62785D02*
X51871Y-62700D01*
X51671Y-62700D02*
X51785Y-62814D01*
X62700Y-51592D02*
X62685Y-51607D01*
X62642Y-51621D01*
X62614Y-51621D01*
X62571Y-51607D01*
X62542Y-51578D01*
X62528Y-51550D01*
X62514Y-51492D01*
X62514Y-51450D01*
X62528Y-51392D01*
X62542Y-51364D01*
X62571Y-51335D01*
X62614Y-51321D01*
X62642Y-51321D01*
X62685Y-51335D01*
X62700Y-51350D01*
X62985Y-51621D02*
X62814Y-51621D01*
X62900Y-51621D02*
X62900Y-51321D01*
X62871Y-51364D01*
X62842Y-51392D01*
X62814Y-51407D01*
X62285Y-49271D02*
X62114Y-49271D01*
X62200Y-49271D02*
X62200Y-48971D01*
X62171Y-49014D01*
X62142Y-49042D01*
X62114Y-49057D01*
X62471Y-48971D02*
X62500Y-48971D01*
X62528Y-48985D01*
X62542Y-49000D01*
X62557Y-49028D01*
X62571Y-49085D01*
X62571Y-49157D01*
X62557Y-49214D01*
X62542Y-49242D01*
X62528Y-49257D01*
X62500Y-49271D01*
X62471Y-49271D01*
X62442Y-49257D01*
X62428Y-49242D01*
X62414Y-49214D01*
X62400Y-49157D01*
X62400Y-49085D01*
X62414Y-49028D01*
X62428Y-49000D01*
X62442Y-48985D01*
X62471Y-48971D01*
X62757Y-48971D02*
X62785Y-48971D01*
X62814Y-48985D01*
X62828Y-49000D01*
X62842Y-49028D01*
X62857Y-49085D01*
X62857Y-49157D01*
X62842Y-49214D01*
X62828Y-49242D01*
X62814Y-49257D01*
X62785Y-49271D01*
X62757Y-49271D01*
X62728Y-49257D01*
X62714Y-49242D01*
X62700Y-49214D01*
X62685Y-49157D01*
X62685Y-49085D01*
X62700Y-49028D01*
X62714Y-49000D01*
X62728Y-48985D01*
X62757Y-48971D01*
X63114Y-49071D02*
X63114Y-49271D01*
X62985Y-49071D02*
X62985Y-49228D01*
X62999Y-49257D01*
X63028Y-49271D01*
X63071Y-49271D01*
X63099Y-49257D01*
X63114Y-49242D01*
X63357Y-49114D02*
X63257Y-49114D01*
X63257Y-49271D02*
X63257Y-48971D01*
X63400Y-48971D01*
G54D16*
X63308Y-51051D02*
X63765Y-51051D01*
X63537Y-51280D02*
X63537Y-50823D01*
G54D13*
X55321Y-65978D02*
X55564Y-65978D01*
X55592Y-65964D01*
X55607Y-65950D01*
X55621Y-65921D01*
X55621Y-65864D01*
X55607Y-65835D01*
X55592Y-65821D01*
X55564Y-65807D01*
X55321Y-65807D01*
X55350Y-65678D02*
X55335Y-65664D01*
X55321Y-65635D01*
X55321Y-65564D01*
X55335Y-65535D01*
X55350Y-65521D01*
X55378Y-65507D01*
X55407Y-65507D01*
X55450Y-65521D01*
X55621Y-65692D01*
X55621Y-65507D01*
X53242Y-65871D02*
X53100Y-65871D01*
X53100Y-65571D01*
X53342Y-65871D02*
X53342Y-65571D01*
X53442Y-65785D01*
X53542Y-65571D01*
X53542Y-65871D01*
X53657Y-65571D02*
X53842Y-65571D01*
X53742Y-65685D01*
X53785Y-65685D01*
X53814Y-65700D01*
X53828Y-65714D01*
X53842Y-65742D01*
X53842Y-65814D01*
X53828Y-65842D01*
X53814Y-65857D01*
X53785Y-65871D01*
X53700Y-65871D01*
X53671Y-65857D01*
X53657Y-65842D01*
X54114Y-65571D02*
X53971Y-65571D01*
X53957Y-65714D01*
X53971Y-65700D01*
X54000Y-65685D01*
X54071Y-65685D01*
X54100Y-65700D01*
X54114Y-65714D01*
X54128Y-65742D01*
X54128Y-65814D01*
X54114Y-65842D01*
X54100Y-65857D01*
X54071Y-65871D01*
X54000Y-65871D01*
X53971Y-65857D01*
X53957Y-65842D01*
X54300Y-65700D02*
X54271Y-65685D01*
X54257Y-65671D01*
X54242Y-65642D01*
X54242Y-65628D01*
X54257Y-65600D01*
X54271Y-65585D01*
X54300Y-65571D01*
X54357Y-65571D01*
X54385Y-65585D01*
X54400Y-65600D01*
X54414Y-65628D01*
X54414Y-65642D01*
X54400Y-65671D01*
X54385Y-65685D01*
X54357Y-65700D01*
X54300Y-65700D01*
X54271Y-65714D01*
X54257Y-65728D01*
X54242Y-65757D01*
X54242Y-65814D01*
X54257Y-65842D01*
X54271Y-65857D01*
X54300Y-65871D01*
X54357Y-65871D01*
X54385Y-65857D01*
X54400Y-65842D01*
X54414Y-65814D01*
X54414Y-65757D01*
X54400Y-65728D01*
X54385Y-65714D01*
X54357Y-65700D01*
X50021Y-57571D02*
X50021Y-57814D01*
X50035Y-57842D01*
X50050Y-57857D01*
X50078Y-57871D01*
X50135Y-57871D01*
X50164Y-57857D01*
X50178Y-57842D01*
X50192Y-57814D01*
X50192Y-57571D01*
X50307Y-57571D02*
X50492Y-57571D01*
X50392Y-57685D01*
X50435Y-57685D01*
X50464Y-57700D01*
X50478Y-57714D01*
X50492Y-57742D01*
X50492Y-57814D01*
X50478Y-57842D01*
X50464Y-57857D01*
X50435Y-57871D01*
X50350Y-57871D01*
X50321Y-57857D01*
X50307Y-57842D01*
X50371Y-56971D02*
X50071Y-56971D01*
X50285Y-56871D01*
X50071Y-56771D01*
X50371Y-56771D01*
X50342Y-56457D02*
X50357Y-56471D01*
X50371Y-56514D01*
X50371Y-56542D01*
X50357Y-56585D01*
X50328Y-56614D01*
X50300Y-56628D01*
X50242Y-56642D01*
X50200Y-56642D01*
X50142Y-56628D01*
X50114Y-56614D01*
X50085Y-56585D01*
X50071Y-56542D01*
X50071Y-56514D01*
X50085Y-56471D01*
X50100Y-56457D01*
X50371Y-56328D02*
X50071Y-56328D01*
X50071Y-56214D01*
X50085Y-56185D01*
X50100Y-56171D01*
X50128Y-56157D01*
X50171Y-56157D01*
X50200Y-56171D01*
X50214Y-56185D01*
X50228Y-56214D01*
X50228Y-56328D01*
X50171Y-55899D02*
X50371Y-55899D01*
X50057Y-55971D02*
X50271Y-56042D01*
X50271Y-55857D01*
X50200Y-55699D02*
X50185Y-55728D01*
X50171Y-55742D01*
X50142Y-55757D01*
X50128Y-55757D01*
X50100Y-55742D01*
X50085Y-55728D01*
X50071Y-55699D01*
X50071Y-55642D01*
X50085Y-55614D01*
X50100Y-55599D01*
X50128Y-55585D01*
X50142Y-55585D01*
X50171Y-55599D01*
X50185Y-55614D01*
X50200Y-55642D01*
X50200Y-55699D01*
X50214Y-55728D01*
X50228Y-55742D01*
X50257Y-55757D01*
X50314Y-55757D01*
X50342Y-55742D01*
X50357Y-55728D01*
X50371Y-55699D01*
X50371Y-55642D01*
X50357Y-55614D01*
X50342Y-55599D01*
X50314Y-55585D01*
X50257Y-55585D01*
X50228Y-55599D01*
X50214Y-55614D01*
X50200Y-55642D01*
X50071Y-55400D02*
X50071Y-55371D01*
X50085Y-55342D01*
X50100Y-55328D01*
X50128Y-55314D01*
X50185Y-55300D01*
X50257Y-55300D01*
X50314Y-55314D01*
X50342Y-55328D01*
X50357Y-55342D01*
X50371Y-55371D01*
X50371Y-55400D01*
X50357Y-55428D01*
X50342Y-55442D01*
X50314Y-55457D01*
X50257Y-55471D01*
X50185Y-55471D01*
X50128Y-55457D01*
X50100Y-55442D01*
X50085Y-55428D01*
X50071Y-55400D01*
X50371Y-55014D02*
X50371Y-55185D01*
X50371Y-55100D02*
X50071Y-55100D01*
X50114Y-55128D01*
X50142Y-55157D01*
X50157Y-55185D01*
X54871Y-51042D02*
X54571Y-51042D01*
X54842Y-50728D02*
X54857Y-50742D01*
X54871Y-50785D01*
X54871Y-50814D01*
X54857Y-50857D01*
X54828Y-50885D01*
X54800Y-50899D01*
X54742Y-50914D01*
X54700Y-50914D01*
X54642Y-50899D01*
X54614Y-50885D01*
X54585Y-50857D01*
X54571Y-50814D01*
X54571Y-50785D01*
X54585Y-50742D01*
X54600Y-50728D01*
X54871Y-50442D02*
X54871Y-50614D01*
X54871Y-50528D02*
X54571Y-50528D01*
X54614Y-50557D01*
X54642Y-50585D01*
X54657Y-50614D01*
X51721Y-50785D02*
X51864Y-50785D01*
X51692Y-50871D02*
X51792Y-50571D01*
X51892Y-50871D01*
X51950Y-50571D02*
X52121Y-50571D01*
X52035Y-50871D02*
X52035Y-50571D01*
X52178Y-50571D02*
X52350Y-50571D01*
X52264Y-50871D02*
X52264Y-50571D01*
X52450Y-50871D02*
X52450Y-50571D01*
X52592Y-50871D02*
X52592Y-50571D01*
X52764Y-50871D01*
X52764Y-50571D01*
X52964Y-50728D02*
X52964Y-50871D01*
X52864Y-50571D02*
X52964Y-50728D01*
X53064Y-50571D01*
X53207Y-50700D02*
X53178Y-50685D01*
X53164Y-50671D01*
X53150Y-50642D01*
X53150Y-50628D01*
X53164Y-50600D01*
X53178Y-50585D01*
X53207Y-50571D01*
X53264Y-50571D01*
X53292Y-50585D01*
X53307Y-50600D01*
X53321Y-50628D01*
X53321Y-50642D01*
X53307Y-50671D01*
X53292Y-50685D01*
X53264Y-50700D01*
X53207Y-50700D01*
X53178Y-50714D01*
X53164Y-50728D01*
X53150Y-50757D01*
X53150Y-50814D01*
X53164Y-50842D01*
X53178Y-50857D01*
X53207Y-50871D01*
X53264Y-50871D01*
X53292Y-50857D01*
X53307Y-50842D01*
X53321Y-50814D01*
X53321Y-50757D01*
X53307Y-50728D01*
X53292Y-50714D01*
X53264Y-50700D01*
X53592Y-50571D02*
X53450Y-50571D01*
X53435Y-50714D01*
X53450Y-50700D01*
X53478Y-50685D01*
X53550Y-50685D01*
X53578Y-50700D01*
X53592Y-50714D01*
X53607Y-50742D01*
X53607Y-50814D01*
X53592Y-50842D01*
X53578Y-50857D01*
X53550Y-50871D01*
X53478Y-50871D01*
X53450Y-50857D01*
X53435Y-50842D01*
X53735Y-50757D02*
X53964Y-50757D01*
X54107Y-50871D02*
X54107Y-50571D01*
X54221Y-50571D01*
X54250Y-50585D01*
X54264Y-50600D01*
X54278Y-50628D01*
X54278Y-50671D01*
X54264Y-50700D01*
X54250Y-50714D01*
X54221Y-50728D01*
X54107Y-50728D01*
G54D11*
X64151Y-61630D02*
X64151Y-61750D01*
X64270Y-61761D01*
X64258Y-61750D01*
X64246Y-61726D01*
X64246Y-61666D01*
X64258Y-61642D01*
X64270Y-61630D01*
X64294Y-61619D01*
X64353Y-61619D01*
X64377Y-61630D01*
X64389Y-61642D01*
X64401Y-61666D01*
X64401Y-61726D01*
X64389Y-61750D01*
X64377Y-61761D01*
X64151Y-61535D02*
X64151Y-61380D01*
X64246Y-61464D01*
X64246Y-61428D01*
X64258Y-61404D01*
X64270Y-61392D01*
X64294Y-61380D01*
X64353Y-61380D01*
X64377Y-61392D01*
X64389Y-61404D01*
X64401Y-61428D01*
X64401Y-61500D01*
X64389Y-61523D01*
X64377Y-61535D01*
X64151Y-61226D02*
X64151Y-61202D01*
X64163Y-61178D01*
X64175Y-61166D01*
X64198Y-61154D01*
X64246Y-61142D01*
X64305Y-61142D01*
X64353Y-61154D01*
X64377Y-61166D01*
X64389Y-61178D01*
X64401Y-61202D01*
X64401Y-61226D01*
X64389Y-61250D01*
X64377Y-61261D01*
X64353Y-61273D01*
X64305Y-61285D01*
X64246Y-61285D01*
X64198Y-61273D01*
X64175Y-61261D01*
X64163Y-61250D01*
X64151Y-61226D01*
X64151Y-60988D02*
X64151Y-60964D01*
X64163Y-60940D01*
X64175Y-60928D01*
X64198Y-60916D01*
X64246Y-60904D01*
X64305Y-60904D01*
X64353Y-60916D01*
X64377Y-60928D01*
X64389Y-60940D01*
X64401Y-60964D01*
X64401Y-60988D01*
X64389Y-61011D01*
X64377Y-61023D01*
X64353Y-61035D01*
X64305Y-61047D01*
X64246Y-61047D01*
X64198Y-61035D01*
X64175Y-61023D01*
X64163Y-61011D01*
X64151Y-60988D01*
X64151Y-60750D02*
X64151Y-60726D01*
X64163Y-60702D01*
X64175Y-60690D01*
X64198Y-60678D01*
X64246Y-60666D01*
X64305Y-60666D01*
X64353Y-60678D01*
X64377Y-60690D01*
X64389Y-60702D01*
X64401Y-60726D01*
X64401Y-60750D01*
X64389Y-60773D01*
X64377Y-60785D01*
X64353Y-60797D01*
X64305Y-60809D01*
X64246Y-60809D01*
X64198Y-60797D01*
X64175Y-60785D01*
X64163Y-60773D01*
X64151Y-60750D01*
X64175Y-60571D02*
X64163Y-60559D01*
X64151Y-60535D01*
X64151Y-60476D01*
X64163Y-60452D01*
X64175Y-60440D01*
X64198Y-60428D01*
X64222Y-60428D01*
X64258Y-60440D01*
X64401Y-60583D01*
X64401Y-60428D01*
X64270Y-60238D02*
X64282Y-60202D01*
X64294Y-60190D01*
X64317Y-60178D01*
X64353Y-60178D01*
X64377Y-60190D01*
X64389Y-60202D01*
X64401Y-60226D01*
X64401Y-60321D01*
X64151Y-60321D01*
X64151Y-60238D01*
X64163Y-60214D01*
X64175Y-60202D01*
X64198Y-60190D01*
X64222Y-60190D01*
X64246Y-60202D01*
X64258Y-60214D01*
X64270Y-60238D01*
X64270Y-60321D01*
X64151Y-60023D02*
X64151Y-60000D01*
X64163Y-59976D01*
X64175Y-59964D01*
X64198Y-59952D01*
X64246Y-59940D01*
X64305Y-59940D01*
X64353Y-59952D01*
X64377Y-59964D01*
X64389Y-59976D01*
X64401Y-60000D01*
X64401Y-60023D01*
X64389Y-60047D01*
X64377Y-60059D01*
X64353Y-60071D01*
X64305Y-60083D01*
X64246Y-60083D01*
X64198Y-60071D01*
X64175Y-60059D01*
X64163Y-60047D01*
X64151Y-60023D01*
X64175Y-59845D02*
X64163Y-59833D01*
X64151Y-59809D01*
X64151Y-59750D01*
X64163Y-59726D01*
X64175Y-59714D01*
X64198Y-59702D01*
X64222Y-59702D01*
X64258Y-59714D01*
X64401Y-59857D01*
X64401Y-59702D01*
X64151Y-59476D02*
X64151Y-59595D01*
X64270Y-59607D01*
X64258Y-59595D01*
X64246Y-59571D01*
X64246Y-59511D01*
X64258Y-59488D01*
X64270Y-59476D01*
X64294Y-59464D01*
X64353Y-59464D01*
X64377Y-59476D01*
X64389Y-59488D01*
X64401Y-59511D01*
X64401Y-59571D01*
X64389Y-59595D01*
X64377Y-59607D01*
X64151Y-59309D02*
X64151Y-59285D01*
X64163Y-59261D01*
X64175Y-59250D01*
X64198Y-59238D01*
X64246Y-59226D01*
X64305Y-59226D01*
X64353Y-59238D01*
X64377Y-59250D01*
X64389Y-59261D01*
X64401Y-59285D01*
X64401Y-59309D01*
X64389Y-59333D01*
X64377Y-59345D01*
X64353Y-59357D01*
X64305Y-59369D01*
X64246Y-59369D01*
X64198Y-59357D01*
X64175Y-59345D01*
X64163Y-59333D01*
X64151Y-59309D01*
X64151Y-59071D02*
X64151Y-59047D01*
X64163Y-59023D01*
X64175Y-59011D01*
X64198Y-59000D01*
X64246Y-58988D01*
X64305Y-58988D01*
X64353Y-59000D01*
X64377Y-59011D01*
X64389Y-59023D01*
X64401Y-59047D01*
X64401Y-59071D01*
X64389Y-59095D01*
X64377Y-59107D01*
X64353Y-59119D01*
X64305Y-59130D01*
X64246Y-59130D01*
X64198Y-59119D01*
X64175Y-59107D01*
X64163Y-59095D01*
X64151Y-59071D01*
X64163Y-58749D02*
X64151Y-58773D01*
X64151Y-58809D01*
X64163Y-58845D01*
X64186Y-58869D01*
X64210Y-58880D01*
X64258Y-58892D01*
X64294Y-58892D01*
X64341Y-58880D01*
X64365Y-58869D01*
X64389Y-58845D01*
X64401Y-58809D01*
X64401Y-58785D01*
X64389Y-58749D01*
X64377Y-58738D01*
X64294Y-58738D01*
X64294Y-58785D01*
X64329Y-57547D02*
X64329Y-57428D01*
X64401Y-57571D02*
X64151Y-57488D01*
X64401Y-57404D01*
X64401Y-57214D02*
X64270Y-57214D01*
X64246Y-57226D01*
X64234Y-57250D01*
X64234Y-57297D01*
X64246Y-57321D01*
X64389Y-57214D02*
X64401Y-57238D01*
X64401Y-57297D01*
X64389Y-57321D01*
X64365Y-57333D01*
X64341Y-57333D01*
X64317Y-57321D01*
X64305Y-57297D01*
X64305Y-57238D01*
X64294Y-57214D01*
X64234Y-57119D02*
X64401Y-57059D01*
X64234Y-57000D01*
X64401Y-56904D02*
X64234Y-56904D01*
X64151Y-56904D02*
X64163Y-56916D01*
X64175Y-56904D01*
X64163Y-56892D01*
X64151Y-56904D01*
X64175Y-56904D01*
X64401Y-56678D02*
X64151Y-56678D01*
X64389Y-56678D02*
X64401Y-56702D01*
X64401Y-56750D01*
X64389Y-56773D01*
X64377Y-56785D01*
X64353Y-56797D01*
X64282Y-56797D01*
X64258Y-56785D01*
X64246Y-56773D01*
X64234Y-56750D01*
X64234Y-56702D01*
X64246Y-56678D01*
X64151Y-56404D02*
X64151Y-56261D01*
X64401Y-56333D02*
X64151Y-56333D01*
X64401Y-56178D02*
X64151Y-56178D01*
X64401Y-56071D02*
X64270Y-56071D01*
X64246Y-56083D01*
X64234Y-56107D01*
X64234Y-56142D01*
X64246Y-56166D01*
X64258Y-56178D01*
X64389Y-55857D02*
X64401Y-55880D01*
X64401Y-55928D01*
X64389Y-55952D01*
X64365Y-55964D01*
X64270Y-55964D01*
X64246Y-55952D01*
X64234Y-55928D01*
X64234Y-55880D01*
X64246Y-55857D01*
X64270Y-55845D01*
X64294Y-55845D01*
X64317Y-55964D01*
X64401Y-55738D02*
X64234Y-55738D01*
X64282Y-55738D02*
X64258Y-55726D01*
X64246Y-55714D01*
X64234Y-55690D01*
X64234Y-55666D01*
X64401Y-55583D02*
X64234Y-55583D01*
X64258Y-55583D02*
X64246Y-55571D01*
X64234Y-55547D01*
X64234Y-55511D01*
X64246Y-55488D01*
X64270Y-55476D01*
X64401Y-55476D01*
X64270Y-55476D02*
X64246Y-55464D01*
X64234Y-55440D01*
X64234Y-55404D01*
X64246Y-55380D01*
X64270Y-55369D01*
X64401Y-55369D01*
X64401Y-55142D02*
X64270Y-55142D01*
X64246Y-55154D01*
X64234Y-55178D01*
X64234Y-55226D01*
X64246Y-55249D01*
X64389Y-55142D02*
X64401Y-55166D01*
X64401Y-55226D01*
X64389Y-55249D01*
X64365Y-55261D01*
X64341Y-55261D01*
X64317Y-55249D01*
X64305Y-55226D01*
X64305Y-55166D01*
X64294Y-55142D01*
X64401Y-54988D02*
X64389Y-55011D01*
X64365Y-55023D01*
X64151Y-55023D01*
X64401Y-54857D02*
X64389Y-54880D01*
X64365Y-54892D01*
X64151Y-54892D01*
X64401Y-54726D02*
X64389Y-54749D01*
X64377Y-54761D01*
X64353Y-54773D01*
X64282Y-54773D01*
X64258Y-54761D01*
X64246Y-54749D01*
X64234Y-54726D01*
X64234Y-54690D01*
X64246Y-54666D01*
X64258Y-54654D01*
X64282Y-54642D01*
X64353Y-54642D01*
X64377Y-54654D01*
X64389Y-54666D01*
X64401Y-54690D01*
X64401Y-54726D01*
X64234Y-54559D02*
X64401Y-54499D01*
X64234Y-54440D02*
X64401Y-54499D01*
X64460Y-54523D01*
X64472Y-54535D01*
X64484Y-54559D01*
X58458Y-67177D02*
X58446Y-67189D01*
X58410Y-67201D01*
X58386Y-67201D01*
X58351Y-67189D01*
X58327Y-67165D01*
X58315Y-67141D01*
X58303Y-67094D01*
X58303Y-67058D01*
X58315Y-67010D01*
X58327Y-66986D01*
X58351Y-66963D01*
X58386Y-66951D01*
X58410Y-66951D01*
X58446Y-66963D01*
X58458Y-66975D01*
X58553Y-66975D02*
X58565Y-66963D01*
X58589Y-66951D01*
X58648Y-66951D01*
X58672Y-66963D01*
X58684Y-66975D01*
X58696Y-66998D01*
X58696Y-67022D01*
X58684Y-67058D01*
X58541Y-67201D01*
X58696Y-67201D01*
X58482Y-66001D02*
X58339Y-66001D01*
X58410Y-66001D02*
X58410Y-65751D01*
X58386Y-65786D01*
X58363Y-65810D01*
X58339Y-65822D01*
X58636Y-65751D02*
X58660Y-65751D01*
X58684Y-65763D01*
X58696Y-65775D01*
X58708Y-65798D01*
X58720Y-65846D01*
X58720Y-65905D01*
X58708Y-65953D01*
X58696Y-65977D01*
X58684Y-65989D01*
X58660Y-66001D01*
X58636Y-66001D01*
X58613Y-65989D01*
X58601Y-65977D01*
X58589Y-65953D01*
X58577Y-65905D01*
X58577Y-65846D01*
X58589Y-65798D01*
X58601Y-65775D01*
X58613Y-65763D01*
X58636Y-65751D01*
X58934Y-65834D02*
X58934Y-66001D01*
X58827Y-65834D02*
X58827Y-65965D01*
X58839Y-65989D01*
X58863Y-66001D01*
X58898Y-66001D01*
X58922Y-65989D01*
X58934Y-65977D01*
X59136Y-65870D02*
X59053Y-65870D01*
X59053Y-66001D02*
X59053Y-65751D01*
X59172Y-65751D01*
G54D13*
X59135Y-67107D02*
X59364Y-67107D01*
X59250Y-67221D02*
X59250Y-66992D01*
X59121Y-63850D02*
X58978Y-63950D01*
X59121Y-64021D02*
X58821Y-64021D01*
X58821Y-63907D01*
X58835Y-63878D01*
X58850Y-63864D01*
X58878Y-63850D01*
X58921Y-63850D01*
X58950Y-63864D01*
X58964Y-63878D01*
X58978Y-63907D01*
X58978Y-64021D01*
X58821Y-63750D02*
X58821Y-63564D01*
X58935Y-63664D01*
X58935Y-63621D01*
X58950Y-63592D01*
X58964Y-63578D01*
X58992Y-63564D01*
X59064Y-63564D01*
X59092Y-63578D01*
X59107Y-63592D01*
X59121Y-63621D01*
X59121Y-63707D01*
X59107Y-63735D01*
X59092Y-63750D01*
X58850Y-62571D02*
X58835Y-62557D01*
X58821Y-62528D01*
X58821Y-62457D01*
X58835Y-62428D01*
X58850Y-62414D01*
X58878Y-62400D01*
X58907Y-62400D01*
X58950Y-62414D01*
X59121Y-62585D01*
X59121Y-62400D01*
X58850Y-62285D02*
X58835Y-62271D01*
X58821Y-62242D01*
X58821Y-62171D01*
X58835Y-62142D01*
X58850Y-62128D01*
X58878Y-62114D01*
X58907Y-62114D01*
X58950Y-62128D01*
X59121Y-62300D01*
X59121Y-62114D01*
X58821Y-61928D02*
X58821Y-61900D01*
X58835Y-61871D01*
X58850Y-61857D01*
X58878Y-61842D01*
X58935Y-61828D01*
X59007Y-61828D01*
X59064Y-61842D01*
X59092Y-61857D01*
X59107Y-61871D01*
X59121Y-61900D01*
X59121Y-61928D01*
X59107Y-61957D01*
X59092Y-61971D01*
X59064Y-61985D01*
X59007Y-62000D01*
X58935Y-62000D01*
X58878Y-61985D01*
X58850Y-61971D01*
X58835Y-61957D01*
X58821Y-61928D01*
G54D11*
X60851Y-62684D02*
X60601Y-62684D01*
X60601Y-62625D01*
X60613Y-62589D01*
X60636Y-62565D01*
X60660Y-62553D01*
X60708Y-62541D01*
X60744Y-62541D01*
X60791Y-62553D01*
X60815Y-62565D01*
X60839Y-62589D01*
X60851Y-62625D01*
X60851Y-62684D01*
X60625Y-62446D02*
X60613Y-62434D01*
X60601Y-62410D01*
X60601Y-62351D01*
X60613Y-62327D01*
X60625Y-62315D01*
X60648Y-62303D01*
X60672Y-62303D01*
X60708Y-62315D01*
X60851Y-62458D01*
X60851Y-62303D01*
X60101Y-63035D02*
X60101Y-63178D01*
X60101Y-63107D02*
X59851Y-63107D01*
X59886Y-63130D01*
X59910Y-63154D01*
X59922Y-63178D01*
X60101Y-62928D02*
X59851Y-62928D01*
X60101Y-62785D01*
X59851Y-62785D01*
X59934Y-62559D02*
X60101Y-62559D01*
X59839Y-62619D02*
X60017Y-62678D01*
X60017Y-62523D01*
X59851Y-62380D02*
X59851Y-62357D01*
X59863Y-62333D01*
X59875Y-62321D01*
X59898Y-62309D01*
X59946Y-62297D01*
X60005Y-62297D01*
X60053Y-62309D01*
X60077Y-62321D01*
X60089Y-62333D01*
X60101Y-62357D01*
X60101Y-62380D01*
X60089Y-62404D01*
X60077Y-62416D01*
X60053Y-62428D01*
X60005Y-62440D01*
X59946Y-62440D01*
X59898Y-62428D01*
X59875Y-62416D01*
X59863Y-62404D01*
X59851Y-62380D01*
X59851Y-62142D02*
X59851Y-62119D01*
X59863Y-62095D01*
X59875Y-62083D01*
X59898Y-62071D01*
X59946Y-62059D01*
X60005Y-62059D01*
X60053Y-62071D01*
X60077Y-62083D01*
X60089Y-62095D01*
X60101Y-62119D01*
X60101Y-62142D01*
X60089Y-62166D01*
X60077Y-62178D01*
X60053Y-62190D01*
X60005Y-62202D01*
X59946Y-62202D01*
X59898Y-62190D01*
X59875Y-62178D01*
X59863Y-62166D01*
X59851Y-62142D01*
X60101Y-61821D02*
X60101Y-61964D01*
X60101Y-61892D02*
X59851Y-61892D01*
X59886Y-61916D01*
X59910Y-61940D01*
X59922Y-61964D01*
X61815Y-56601D02*
X61815Y-56351D01*
X61875Y-56351D01*
X61910Y-56363D01*
X61934Y-56386D01*
X61946Y-56410D01*
X61958Y-56458D01*
X61958Y-56494D01*
X61946Y-56541D01*
X61934Y-56565D01*
X61910Y-56589D01*
X61875Y-56601D01*
X61815Y-56601D01*
X62196Y-56601D02*
X62053Y-56601D01*
X62125Y-56601D02*
X62125Y-56351D01*
X62101Y-56386D01*
X62077Y-56410D01*
X62053Y-56422D01*
X60714Y-57351D02*
X60571Y-57351D01*
X60642Y-57351D02*
X60642Y-57101D01*
X60619Y-57136D01*
X60595Y-57160D01*
X60571Y-57172D01*
X60821Y-57351D02*
X60821Y-57101D01*
X60964Y-57351D01*
X60964Y-57101D01*
X61190Y-57184D02*
X61190Y-57351D01*
X61130Y-57089D02*
X61071Y-57267D01*
X61226Y-57267D01*
X61369Y-57101D02*
X61392Y-57101D01*
X61416Y-57113D01*
X61428Y-57125D01*
X61440Y-57148D01*
X61452Y-57196D01*
X61452Y-57255D01*
X61440Y-57303D01*
X61428Y-57327D01*
X61416Y-57339D01*
X61392Y-57351D01*
X61369Y-57351D01*
X61345Y-57339D01*
X61333Y-57327D01*
X61321Y-57303D01*
X61309Y-57255D01*
X61309Y-57196D01*
X61321Y-57148D01*
X61333Y-57125D01*
X61345Y-57113D01*
X61369Y-57101D01*
X61607Y-57101D02*
X61630Y-57101D01*
X61654Y-57113D01*
X61666Y-57125D01*
X61678Y-57148D01*
X61690Y-57196D01*
X61690Y-57255D01*
X61678Y-57303D01*
X61666Y-57327D01*
X61654Y-57339D01*
X61630Y-57351D01*
X61607Y-57351D01*
X61583Y-57339D01*
X61571Y-57327D01*
X61559Y-57303D01*
X61547Y-57255D01*
X61547Y-57196D01*
X61559Y-57148D01*
X61571Y-57125D01*
X61583Y-57113D01*
X61607Y-57101D01*
X61928Y-57351D02*
X61785Y-57351D01*
X61857Y-57351D02*
X61857Y-57101D01*
X61833Y-57136D01*
X61809Y-57160D01*
X61785Y-57172D01*
G54D13*
X49871Y-61500D02*
X49728Y-61600D01*
X49871Y-61671D02*
X49571Y-61671D01*
X49571Y-61557D01*
X49585Y-61528D01*
X49600Y-61514D01*
X49628Y-61500D01*
X49671Y-61500D01*
X49700Y-61514D01*
X49714Y-61528D01*
X49728Y-61557D01*
X49728Y-61671D01*
X49671Y-61242D02*
X49871Y-61242D01*
X49557Y-61314D02*
X49771Y-61385D01*
X49771Y-61200D01*
X49871Y-63371D02*
X49871Y-63542D01*
X49871Y-63457D02*
X49571Y-63457D01*
X49614Y-63485D01*
X49642Y-63514D01*
X49657Y-63542D01*
X49571Y-63185D02*
X49571Y-63157D01*
X49585Y-63128D01*
X49600Y-63114D01*
X49628Y-63099D01*
X49685Y-63085D01*
X49757Y-63085D01*
X49814Y-63099D01*
X49842Y-63114D01*
X49857Y-63128D01*
X49871Y-63157D01*
X49871Y-63185D01*
X49857Y-63214D01*
X49842Y-63228D01*
X49814Y-63242D01*
X49757Y-63257D01*
X49685Y-63257D01*
X49628Y-63242D01*
X49600Y-63228D01*
X49585Y-63214D01*
X49571Y-63185D01*
X49571Y-62900D02*
X49571Y-62871D01*
X49585Y-62842D01*
X49600Y-62828D01*
X49628Y-62814D01*
X49685Y-62800D01*
X49757Y-62800D01*
X49814Y-62814D01*
X49842Y-62828D01*
X49857Y-62842D01*
X49871Y-62871D01*
X49871Y-62900D01*
X49857Y-62928D01*
X49842Y-62942D01*
X49814Y-62957D01*
X49757Y-62971D01*
X49685Y-62971D01*
X49628Y-62957D01*
X49600Y-62942D01*
X49585Y-62928D01*
X49571Y-62900D01*
X49871Y-62671D02*
X49571Y-62671D01*
X49757Y-62642D02*
X49871Y-62557D01*
X49671Y-62557D02*
X49785Y-62671D01*
X48621Y-64471D02*
X48321Y-64471D01*
X48321Y-64357D01*
X48335Y-64328D01*
X48350Y-64314D01*
X48378Y-64300D01*
X48421Y-64300D01*
X48450Y-64314D01*
X48464Y-64328D01*
X48478Y-64357D01*
X48478Y-64471D01*
X48321Y-64200D02*
X48321Y-64014D01*
X48435Y-64114D01*
X48435Y-64071D01*
X48450Y-64042D01*
X48464Y-64028D01*
X48492Y-64014D01*
X48564Y-64014D01*
X48592Y-64028D01*
X48607Y-64042D01*
X48621Y-64071D01*
X48621Y-64157D01*
X48607Y-64185D01*
X48592Y-64200D01*
X61778Y-65121D02*
X61778Y-64821D01*
X61892Y-64821D01*
X61921Y-64835D01*
X61935Y-64850D01*
X61950Y-64878D01*
X61950Y-64921D01*
X61935Y-64950D01*
X61921Y-64964D01*
X61892Y-64978D01*
X61778Y-64978D01*
X62064Y-64850D02*
X62078Y-64835D01*
X62107Y-64821D01*
X62178Y-64821D01*
X62207Y-64835D01*
X62221Y-64850D01*
X62235Y-64878D01*
X62235Y-64907D01*
X62221Y-64950D01*
X62050Y-65121D01*
X62235Y-65121D01*
X58778Y-51621D02*
X58778Y-51321D01*
X58892Y-51321D01*
X58921Y-51335D01*
X58935Y-51350D01*
X58950Y-51378D01*
X58950Y-51421D01*
X58935Y-51450D01*
X58921Y-51464D01*
X58892Y-51478D01*
X58778Y-51478D01*
X59235Y-51621D02*
X59064Y-51621D01*
X59150Y-51621D02*
X59150Y-51321D01*
X59121Y-51364D01*
X59092Y-51392D01*
X59064Y-51407D01*
G54D11*
X56127Y-52841D02*
X56139Y-52853D01*
X56151Y-52889D01*
X56151Y-52913D01*
X56139Y-52948D01*
X56115Y-52972D01*
X56091Y-52984D01*
X56044Y-52996D01*
X56008Y-52996D01*
X55960Y-52984D01*
X55936Y-52972D01*
X55913Y-52948D01*
X55901Y-52913D01*
X55901Y-52889D01*
X55913Y-52853D01*
X55925Y-52841D01*
X55901Y-52758D02*
X55901Y-52591D01*
X56151Y-52698D01*
X56301Y-53210D02*
X56301Y-53186D01*
X56313Y-53163D01*
X56325Y-53151D01*
X56348Y-53139D01*
X56396Y-53127D01*
X56455Y-53127D01*
X56503Y-53139D01*
X56527Y-53151D01*
X56539Y-53163D01*
X56551Y-53186D01*
X56551Y-53210D01*
X56539Y-53234D01*
X56527Y-53246D01*
X56503Y-53258D01*
X56455Y-53270D01*
X56396Y-53270D01*
X56348Y-53258D01*
X56325Y-53246D01*
X56313Y-53234D01*
X56301Y-53210D01*
X56527Y-53020D02*
X56539Y-53008D01*
X56551Y-53020D01*
X56539Y-53032D01*
X56527Y-53020D01*
X56551Y-53020D01*
X56551Y-52770D02*
X56551Y-52913D01*
X56551Y-52841D02*
X56301Y-52841D01*
X56336Y-52865D01*
X56360Y-52889D01*
X56372Y-52913D01*
X56384Y-52555D02*
X56551Y-52555D01*
X56384Y-52663D02*
X56515Y-52663D01*
X56539Y-52651D01*
X56551Y-52627D01*
X56551Y-52591D01*
X56539Y-52567D01*
X56527Y-52555D01*
X56420Y-52353D02*
X56420Y-52436D01*
X56551Y-52436D02*
X56301Y-52436D01*
X56301Y-52317D01*
X61677Y-63291D02*
X61689Y-63303D01*
X61701Y-63339D01*
X61701Y-63363D01*
X61689Y-63398D01*
X61665Y-63422D01*
X61641Y-63434D01*
X61594Y-63446D01*
X61558Y-63446D01*
X61510Y-63434D01*
X61486Y-63422D01*
X61463Y-63398D01*
X61451Y-63363D01*
X61451Y-63339D01*
X61463Y-63303D01*
X61475Y-63291D01*
X61701Y-63172D02*
X61701Y-63125D01*
X61689Y-63101D01*
X61677Y-63089D01*
X61641Y-63065D01*
X61594Y-63053D01*
X61498Y-63053D01*
X61475Y-63065D01*
X61463Y-63077D01*
X61451Y-63101D01*
X61451Y-63148D01*
X61463Y-63172D01*
X61475Y-63184D01*
X61498Y-63196D01*
X61558Y-63196D01*
X61582Y-63184D01*
X61594Y-63172D01*
X61605Y-63148D01*
X61605Y-63101D01*
X61594Y-63077D01*
X61582Y-63065D01*
X61558Y-63053D01*
X61451Y-62660D02*
X61451Y-62636D01*
X61463Y-62613D01*
X61475Y-62601D01*
X61498Y-62589D01*
X61546Y-62577D01*
X61605Y-62577D01*
X61653Y-62589D01*
X61677Y-62601D01*
X61689Y-62613D01*
X61701Y-62636D01*
X61701Y-62660D01*
X61689Y-62684D01*
X61677Y-62696D01*
X61653Y-62708D01*
X61605Y-62720D01*
X61546Y-62720D01*
X61498Y-62708D01*
X61475Y-62696D01*
X61463Y-62684D01*
X61451Y-62660D01*
X61677Y-62470D02*
X61689Y-62458D01*
X61701Y-62470D01*
X61689Y-62482D01*
X61677Y-62470D01*
X61701Y-62470D01*
X61701Y-62220D02*
X61701Y-62363D01*
X61701Y-62291D02*
X61451Y-62291D01*
X61486Y-62315D01*
X61510Y-62339D01*
X61522Y-62363D01*
X61534Y-62005D02*
X61701Y-62005D01*
X61534Y-62113D02*
X61665Y-62113D01*
X61689Y-62101D01*
X61701Y-62077D01*
X61701Y-62041D01*
X61689Y-62017D01*
X61677Y-62005D01*
X61570Y-61803D02*
X61570Y-61886D01*
X61701Y-61886D02*
X61451Y-61886D01*
X61451Y-61767D01*
X48677Y-59291D02*
X48689Y-59303D01*
X48701Y-59339D01*
X48701Y-59363D01*
X48689Y-59398D01*
X48665Y-59422D01*
X48641Y-59434D01*
X48594Y-59446D01*
X48558Y-59446D01*
X48510Y-59434D01*
X48486Y-59422D01*
X48463Y-59398D01*
X48451Y-59363D01*
X48451Y-59339D01*
X48463Y-59303D01*
X48475Y-59291D01*
X48534Y-59077D02*
X48701Y-59077D01*
X48439Y-59136D02*
X48617Y-59196D01*
X48617Y-59041D01*
X51801Y-59660D02*
X51801Y-59636D01*
X51813Y-59613D01*
X51825Y-59601D01*
X51848Y-59589D01*
X51896Y-59577D01*
X51955Y-59577D01*
X52003Y-59589D01*
X52027Y-59601D01*
X52039Y-59613D01*
X52051Y-59636D01*
X52051Y-59660D01*
X52039Y-59684D01*
X52027Y-59696D01*
X52003Y-59708D01*
X51955Y-59720D01*
X51896Y-59720D01*
X51848Y-59708D01*
X51825Y-59696D01*
X51813Y-59684D01*
X51801Y-59660D01*
X52027Y-59470D02*
X52039Y-59458D01*
X52051Y-59470D01*
X52039Y-59482D01*
X52027Y-59470D01*
X52051Y-59470D01*
X52051Y-59220D02*
X52051Y-59363D01*
X52051Y-59291D02*
X51801Y-59291D01*
X51836Y-59315D01*
X51860Y-59339D01*
X51872Y-59363D01*
X51884Y-59005D02*
X52051Y-59005D01*
X51884Y-59113D02*
X52015Y-59113D01*
X52039Y-59101D01*
X52051Y-59077D01*
X52051Y-59041D01*
X52039Y-59017D01*
X52027Y-59005D01*
X51920Y-58803D02*
X51920Y-58886D01*
X52051Y-58886D02*
X51801Y-58886D01*
X51801Y-58767D01*
X50927Y-65341D02*
X50939Y-65353D01*
X50951Y-65389D01*
X50951Y-65413D01*
X50939Y-65448D01*
X50915Y-65472D01*
X50891Y-65484D01*
X50844Y-65496D01*
X50808Y-65496D01*
X50760Y-65484D01*
X50736Y-65472D01*
X50713Y-65448D01*
X50701Y-65413D01*
X50701Y-65389D01*
X50713Y-65353D01*
X50725Y-65341D01*
X50701Y-65115D02*
X50701Y-65234D01*
X50820Y-65246D01*
X50808Y-65234D01*
X50796Y-65210D01*
X50796Y-65151D01*
X50808Y-65127D01*
X50820Y-65115D01*
X50844Y-65103D01*
X50903Y-65103D01*
X50927Y-65115D01*
X50939Y-65127D01*
X50951Y-65151D01*
X50951Y-65210D01*
X50939Y-65234D01*
X50927Y-65246D01*
X52051Y-67760D02*
X52051Y-67736D01*
X52063Y-67713D01*
X52075Y-67701D01*
X52098Y-67689D01*
X52146Y-67677D01*
X52205Y-67677D01*
X52253Y-67689D01*
X52277Y-67701D01*
X52289Y-67713D01*
X52301Y-67736D01*
X52301Y-67760D01*
X52289Y-67784D01*
X52277Y-67796D01*
X52253Y-67808D01*
X52205Y-67820D01*
X52146Y-67820D01*
X52098Y-67808D01*
X52075Y-67796D01*
X52063Y-67784D01*
X52051Y-67760D01*
X52277Y-67570D02*
X52289Y-67558D01*
X52301Y-67570D01*
X52289Y-67582D01*
X52277Y-67570D01*
X52301Y-67570D01*
X52301Y-67320D02*
X52301Y-67463D01*
X52301Y-67391D02*
X52051Y-67391D01*
X52086Y-67415D01*
X52110Y-67439D01*
X52122Y-67463D01*
X52134Y-67105D02*
X52301Y-67105D01*
X52134Y-67213D02*
X52265Y-67213D01*
X52289Y-67201D01*
X52301Y-67177D01*
X52301Y-67141D01*
X52289Y-67117D01*
X52277Y-67105D01*
X52170Y-66903D02*
X52170Y-66986D01*
X52301Y-66986D02*
X52051Y-66986D01*
X52051Y-66867D01*
X56877Y-63741D02*
X56889Y-63753D01*
X56901Y-63789D01*
X56901Y-63813D01*
X56889Y-63848D01*
X56865Y-63872D01*
X56841Y-63884D01*
X56794Y-63896D01*
X56758Y-63896D01*
X56710Y-63884D01*
X56686Y-63872D01*
X56663Y-63848D01*
X56651Y-63813D01*
X56651Y-63789D01*
X56663Y-63753D01*
X56675Y-63741D01*
X56651Y-63658D02*
X56651Y-63503D01*
X56746Y-63586D01*
X56746Y-63551D01*
X56758Y-63527D01*
X56770Y-63515D01*
X56794Y-63503D01*
X56853Y-63503D01*
X56877Y-63515D01*
X56889Y-63527D01*
X56901Y-63551D01*
X56901Y-63622D01*
X56889Y-63646D01*
X56877Y-63658D01*
X57051Y-64110D02*
X57051Y-64086D01*
X57063Y-64063D01*
X57075Y-64051D01*
X57098Y-64039D01*
X57146Y-64027D01*
X57205Y-64027D01*
X57253Y-64039D01*
X57277Y-64051D01*
X57289Y-64063D01*
X57301Y-64086D01*
X57301Y-64110D01*
X57289Y-64134D01*
X57277Y-64146D01*
X57253Y-64158D01*
X57205Y-64170D01*
X57146Y-64170D01*
X57098Y-64158D01*
X57075Y-64146D01*
X57063Y-64134D01*
X57051Y-64110D01*
X57277Y-63920D02*
X57289Y-63908D01*
X57301Y-63920D01*
X57289Y-63932D01*
X57277Y-63920D01*
X57301Y-63920D01*
X57301Y-63670D02*
X57301Y-63813D01*
X57301Y-63741D02*
X57051Y-63741D01*
X57086Y-63765D01*
X57110Y-63789D01*
X57122Y-63813D01*
X57134Y-63455D02*
X57301Y-63455D01*
X57134Y-63563D02*
X57265Y-63563D01*
X57289Y-63551D01*
X57301Y-63527D01*
X57301Y-63491D01*
X57289Y-63467D01*
X57277Y-63455D01*
X57170Y-63253D02*
X57170Y-63336D01*
X57301Y-63336D02*
X57051Y-63336D01*
X57051Y-63217D01*
X64027Y-63541D02*
X64039Y-63553D01*
X64051Y-63589D01*
X64051Y-63613D01*
X64039Y-63648D01*
X64015Y-63672D01*
X63991Y-63684D01*
X63944Y-63696D01*
X63908Y-63696D01*
X63860Y-63684D01*
X63836Y-63672D01*
X63813Y-63648D01*
X63801Y-63613D01*
X63801Y-63589D01*
X63813Y-63553D01*
X63825Y-63541D01*
X63908Y-63398D02*
X63896Y-63422D01*
X63884Y-63434D01*
X63860Y-63446D01*
X63848Y-63446D01*
X63825Y-63434D01*
X63813Y-63422D01*
X63801Y-63398D01*
X63801Y-63351D01*
X63813Y-63327D01*
X63825Y-63315D01*
X63848Y-63303D01*
X63860Y-63303D01*
X63884Y-63315D01*
X63896Y-63327D01*
X63908Y-63351D01*
X63908Y-63398D01*
X63920Y-63422D01*
X63932Y-63434D01*
X63955Y-63446D01*
X64003Y-63446D01*
X64027Y-63434D01*
X64039Y-63422D01*
X64051Y-63398D01*
X64051Y-63351D01*
X64039Y-63327D01*
X64027Y-63315D01*
X64003Y-63303D01*
X63955Y-63303D01*
X63932Y-63315D01*
X63920Y-63327D01*
X63908Y-63351D01*
X63801Y-62910D02*
X63801Y-62886D01*
X63813Y-62863D01*
X63825Y-62851D01*
X63848Y-62839D01*
X63896Y-62827D01*
X63955Y-62827D01*
X64003Y-62839D01*
X64027Y-62851D01*
X64039Y-62863D01*
X64051Y-62886D01*
X64051Y-62910D01*
X64039Y-62934D01*
X64027Y-62946D01*
X64003Y-62958D01*
X63955Y-62970D01*
X63896Y-62970D01*
X63848Y-62958D01*
X63825Y-62946D01*
X63813Y-62934D01*
X63801Y-62910D01*
X64027Y-62720D02*
X64039Y-62708D01*
X64051Y-62720D01*
X64039Y-62732D01*
X64027Y-62720D01*
X64051Y-62720D01*
X64051Y-62470D02*
X64051Y-62613D01*
X64051Y-62541D02*
X63801Y-62541D01*
X63836Y-62565D01*
X63860Y-62589D01*
X63872Y-62613D01*
X63884Y-62255D02*
X64051Y-62255D01*
X63884Y-62363D02*
X64015Y-62363D01*
X64039Y-62351D01*
X64051Y-62327D01*
X64051Y-62291D01*
X64039Y-62267D01*
X64027Y-62255D01*
X63920Y-62053D02*
X63920Y-62136D01*
X64051Y-62136D02*
X63801Y-62136D01*
X63801Y-62017D01*
M02*
