G04 (created by PCBNEW (2013-07-07 BZR 4022)-stable) date 4/8/2015 5:18:20 PM*
%MOIN*%
G04 Gerber Fmt 3.4, Leading zero omitted, Abs format*
%FSLAX34Y34*%
G01*
G70*
G90*
G04 APERTURE LIST*
%ADD10C,0.00590551*%
%ADD11R,0.069X0.069*%
%ADD12O,0.069X0.069*%
%ADD13R,0.059X0.059*%
%ADD14O,0.059X0.059*%
%ADD15R,0.06X0.06*%
%ADD16C,0.06*%
%ADD17C,0.059*%
%ADD18C,0.16*%
%ADD19C,0.23622*%
%ADD20C,0.069*%
%ADD21C,0.03*%
%ADD22C,0.01*%
%ADD23C,0.02*%
%ADD24C,0.04*%
%ADD25C,0.08*%
G04 APERTURE END LIST*
G54D10*
G54D11*
X62250Y-55000D03*
G54D12*
X61250Y-55000D03*
X60250Y-55000D03*
G54D13*
X62000Y-53000D03*
G54D14*
X63000Y-53000D03*
G54D11*
X60250Y-59750D03*
G54D12*
X61250Y-59750D03*
X62250Y-59750D03*
G54D14*
X50750Y-64250D03*
X50750Y-60250D03*
X51750Y-60250D03*
X51750Y-64250D03*
G54D15*
X50750Y-53250D03*
G54D16*
X49750Y-53250D03*
X48750Y-53250D03*
G54D17*
X62750Y-49757D03*
X63438Y-50250D03*
X62061Y-50250D03*
X62750Y-50742D03*
X57000Y-66750D03*
X57000Y-64750D03*
X56250Y-51750D03*
X56250Y-49750D03*
X51250Y-59250D03*
X49250Y-59250D03*
G54D13*
X55750Y-64250D03*
G54D14*
X54750Y-64250D03*
X53750Y-64250D03*
X52750Y-64250D03*
X52750Y-67250D03*
X53750Y-67250D03*
X55750Y-67250D03*
X54750Y-67250D03*
G54D13*
X51750Y-58000D03*
G54D14*
X51750Y-57000D03*
X51750Y-56000D03*
X51750Y-55000D03*
X48750Y-55000D03*
X48750Y-56000D03*
X48750Y-58000D03*
X48750Y-57000D03*
G54D13*
X55000Y-49250D03*
G54D14*
X54000Y-49250D03*
X53000Y-49250D03*
X52000Y-49250D03*
X52000Y-52250D03*
X53000Y-52250D03*
X55000Y-52250D03*
X54000Y-52250D03*
G54D18*
X66250Y-58250D03*
X56250Y-58250D03*
G54D19*
X49250Y-49750D03*
X49250Y-66750D03*
X66250Y-49750D03*
X66250Y-66750D03*
G54D17*
X63250Y-61250D03*
X63250Y-63250D03*
X62250Y-61250D03*
X62250Y-63250D03*
G54D13*
X59250Y-66500D03*
G54D14*
X58250Y-66500D03*
X59000Y-65000D03*
X59000Y-61000D03*
G54D13*
X60000Y-64000D03*
G54D14*
X60000Y-61000D03*
G54D13*
X59750Y-57250D03*
G54D14*
X62750Y-57250D03*
X49750Y-60250D03*
X49750Y-64250D03*
G54D15*
X48500Y-61750D03*
G54D16*
X48500Y-62750D03*
G54D17*
X51500Y-67250D03*
X51500Y-65250D03*
G54D11*
X61000Y-66500D03*
G54D20*
X63000Y-66500D03*
X62000Y-66500D03*
G54D11*
X60000Y-50000D03*
G54D20*
X58000Y-50000D03*
X59000Y-50000D03*
G54D21*
X60250Y-54500D02*
X61750Y-53000D01*
X61750Y-53000D02*
X62000Y-53000D01*
X60250Y-55000D02*
X60250Y-54500D01*
X57500Y-51750D02*
X56250Y-51750D01*
X59500Y-53750D02*
X57500Y-51750D01*
X60250Y-54500D02*
X59500Y-53750D01*
G54D22*
X50750Y-57500D02*
X49250Y-56000D01*
G54D23*
X51250Y-60500D02*
X51250Y-60750D01*
X52750Y-67250D02*
X52750Y-66750D01*
X54250Y-65750D02*
X55250Y-64750D01*
X53750Y-65750D02*
X54250Y-65750D01*
X52750Y-66750D02*
X53750Y-65750D01*
X55250Y-63500D02*
X55250Y-64750D01*
X51250Y-60000D02*
X51250Y-59250D01*
X51250Y-60500D02*
X51250Y-60000D01*
X54000Y-62250D02*
X55250Y-63500D01*
X52750Y-62250D02*
X54000Y-62250D01*
X51250Y-60750D02*
X52750Y-62250D01*
G54D22*
X49750Y-60250D02*
X49250Y-60250D01*
X50750Y-57500D02*
X51250Y-58000D01*
X51250Y-58000D02*
X51750Y-58000D01*
X49250Y-57500D02*
X50750Y-57500D01*
X48750Y-57500D02*
X49250Y-57500D01*
X48500Y-57500D02*
X48750Y-57500D01*
X48250Y-57750D02*
X48500Y-57500D01*
X48250Y-58250D02*
X48250Y-57750D01*
X48250Y-59250D02*
X48250Y-58250D01*
X49250Y-60250D02*
X48250Y-59250D01*
X48750Y-56000D02*
X49250Y-56000D01*
G54D21*
X51750Y-58000D02*
X51750Y-58750D01*
X51750Y-58750D02*
X51250Y-59250D01*
X55000Y-52250D02*
X55000Y-54750D01*
X55000Y-54750D02*
X51750Y-58000D01*
X55000Y-52250D02*
X55750Y-52250D01*
X55750Y-52250D02*
X56250Y-51750D01*
G54D23*
X51750Y-64250D02*
X52500Y-63500D01*
X54000Y-65000D02*
X54750Y-64250D01*
X53500Y-65000D02*
X54000Y-65000D01*
X53250Y-64750D02*
X53500Y-65000D01*
G54D22*
X53250Y-63750D02*
X53250Y-64750D01*
G54D23*
X53000Y-63500D02*
X53250Y-63750D01*
X52500Y-63500D02*
X53000Y-63500D01*
X51750Y-64250D02*
X50750Y-64250D01*
X49750Y-64250D02*
X50750Y-64250D01*
X51750Y-60250D02*
X58250Y-60250D01*
X58250Y-60250D02*
X59000Y-61000D01*
X55750Y-64250D02*
X59000Y-61000D01*
X60000Y-61000D02*
X59000Y-61000D01*
X60250Y-59750D02*
X60250Y-60750D01*
X60250Y-60750D02*
X60000Y-61000D01*
X53750Y-67250D02*
X54750Y-67250D01*
X52000Y-52250D02*
X52000Y-54750D01*
X52000Y-54750D02*
X51750Y-55000D01*
X53750Y-64250D02*
X53750Y-63500D01*
X49500Y-58000D02*
X50250Y-58750D01*
X50250Y-59750D02*
X50250Y-60750D01*
X50250Y-58750D02*
X50250Y-59750D01*
X50250Y-60750D02*
X52250Y-62750D01*
X49500Y-58000D02*
X48750Y-58000D01*
X53000Y-62750D02*
X52250Y-62750D01*
X53750Y-63500D02*
X53000Y-62750D01*
X53000Y-52250D02*
X53000Y-54750D01*
X53000Y-54750D02*
X51750Y-56000D01*
X54000Y-52250D02*
X54000Y-54750D01*
X54000Y-54750D02*
X51750Y-57000D01*
X50750Y-53250D02*
X50750Y-52500D01*
X50750Y-51750D02*
X52000Y-50500D01*
X52000Y-50500D02*
X52750Y-50500D01*
X52750Y-50500D02*
X54000Y-49250D01*
X50750Y-52500D02*
X50750Y-51750D01*
X49750Y-53250D02*
X49750Y-52500D01*
X49750Y-51750D02*
X51500Y-50000D01*
X51500Y-50000D02*
X52250Y-50000D01*
X52250Y-50000D02*
X53000Y-49250D01*
X49750Y-52500D02*
X49750Y-51750D01*
X59750Y-57250D02*
X60000Y-57250D01*
X60000Y-57250D02*
X62250Y-55000D01*
G54D21*
X62250Y-55000D02*
X64000Y-55000D01*
X61500Y-67500D02*
X63250Y-67500D01*
X57000Y-66750D02*
X57750Y-67500D01*
X61000Y-67500D02*
X61500Y-67500D01*
X64000Y-64000D02*
X64000Y-62250D01*
X64000Y-62250D02*
X64000Y-62000D01*
X64000Y-62000D02*
X63250Y-61250D01*
X61000Y-67500D02*
X57750Y-67500D01*
X64000Y-66750D02*
X64000Y-64000D01*
X63250Y-67500D02*
X64000Y-66750D01*
X55750Y-67250D02*
X56500Y-67250D01*
X56500Y-67250D02*
X57000Y-66750D01*
X63250Y-61250D02*
X63250Y-60750D01*
X63250Y-60750D02*
X62250Y-59750D01*
G54D24*
X62750Y-50742D02*
X62946Y-50742D01*
X62946Y-50742D02*
X63438Y-50250D01*
X62750Y-50742D02*
X62750Y-51500D01*
X62750Y-51500D02*
X63000Y-51750D01*
G54D21*
X60000Y-50000D02*
X60750Y-50750D01*
G54D25*
X60750Y-50750D02*
X61750Y-51750D01*
X64000Y-58000D02*
X63000Y-59000D01*
G54D21*
X63000Y-59000D02*
X62250Y-59750D01*
G54D25*
X64000Y-57250D02*
X64000Y-57500D01*
X64000Y-57500D02*
X64000Y-58000D01*
X63500Y-51750D02*
X64000Y-52250D01*
X63000Y-51750D02*
X63500Y-51750D01*
X64000Y-52250D02*
X64000Y-54500D01*
X64000Y-54500D02*
X64000Y-55000D01*
X64000Y-55000D02*
X64000Y-56750D01*
X64000Y-56750D02*
X64000Y-57250D01*
X61750Y-51750D02*
X63000Y-51750D01*
G54D21*
X48500Y-62750D02*
X48500Y-64000D01*
X49750Y-65250D02*
X51500Y-65250D01*
X48500Y-64000D02*
X49750Y-65250D01*
G54D23*
X51500Y-65250D02*
X51750Y-65250D01*
G54D21*
X51750Y-65250D02*
X52750Y-64250D01*
G54D23*
X61250Y-59750D02*
X61250Y-58750D01*
X61250Y-58750D02*
X62750Y-57250D01*
X61000Y-66500D02*
X59250Y-66500D01*
X60000Y-64000D02*
X59000Y-65000D01*
X60000Y-64000D02*
X61250Y-64000D01*
G54D21*
X62250Y-61250D02*
X61250Y-61250D01*
X61250Y-59750D02*
X61250Y-60750D01*
G54D25*
X61250Y-60750D02*
X61250Y-61250D01*
X61250Y-61250D02*
X61250Y-61500D01*
X61250Y-61500D02*
X61250Y-64000D01*
X61250Y-64000D02*
X61250Y-65500D01*
G54D21*
X61250Y-66250D02*
X61000Y-66500D01*
X61250Y-65500D02*
X61250Y-66250D01*
M02*
